<svg xmlns="http://www.w3.org/2000/svg" id="terms" width="65" height="65" viewBox="0 0 65 65">
    <defs>
        <style>
            .auth-paper-symbol-3{fill:#141f38}.auth-paper-symbol-4{fill:#d9e4e8}
        </style>
    </defs>
    <g id="paper_symbol" transform="translate(9.363 7.471)">
        <path id="path-9" fill="#0143be" d="M1623.16 247.668a8.351 8.351 0 1 1 8.4-8.351 8.386 8.386 0 0 1-8.4 8.351z" transform="translate(-1586.003 -208.904)"/>
        <path id="path-8" fill="#fff" d="M1649.362 278.084a1.1 1.1 0 0 1-.793-.337l-3.341-3.479a1.085 1.085 0 0 1 .036-1.541 1.1 1.1 0 0 1 1.55.036l2.46 2.561 4.336-5.588a1.1 1.1 0 0 1 1.537-.2 1.085 1.085 0 0 1 .2 1.529l-5.116 6.592a1.1 1.1 0 0 1-.81.423z" transform="translate(-1613.019 -243.241)"/>
        <path id="path-7" d="M1368.946 52.392c0 1.623.015 3.216 0 4.81a5.1 5.1 0 0 1-4.274 5.043 6.869 6.869 0 0 1-1.223.073q-13.774.006-27.547 0a5.1 5.1 0 0 1-5.38-5.329c-.007-9.825.015-19.65-.029-29.475a3.174 3.174 0 0 1 .994-2.451c4.036-4.145 8.021-8.339 12.043-12.5a1.448 1.448 0 0 1 .938-.393c6.332-.017 12.664 0 19 0a5.137 5.137 0 0 1 5.485 5.439q.005 7.381 0 14.763v.585a9.851 9.851 0 0 1 6.994 4.175 9.511 9.511 0 0 1 1.728 6.1 9.882 9.882 0 0 1-8.729 9.16zm-23.568-38.172v.63c0 2.409.008 4.819-.005 7.228a6.894 6.894 0 0 1-.137 1.464 5.13 5.13 0 0 1-5.172 4.012c-2.3.015-4.608 0-6.911 0h-.558c-.01.187-.02.3-.02.419v29.116a3.033 3.033 0 0 0 3.222 3.184c1.484.006 2.969 0 4.454 0h23.347a3.08 3.08 0 0 0 3.292-3.285c0-1.408-.006-2.817.006-4.225 0-.288-.068-.409-.385-.453a9.716 9.716 0 0 1-3.006-18.329 32.818 32.818 0 0 1 3.385-1.188v-.312-14.914a3.09 3.09 0 0 0-3.38-3.348q-7.015-.005-14.028 0zm22.5 20.763a7.7 7.7 0 1 0 7.745 7.695 7.721 7.721 0 0 0-7.747-7.695zm-24.555-19.253l-9.348 9.74c.181.021.261.039.34.039 1.963 0 3.926.026 5.888-.009a3.057 3.057 0 0 0 3.112-3.113c.026-1.17.006-2.342.007-3.513l.001-3.144z" class="auth-paper-symbol-3" transform="translate(-1330.489 -12.166)"/>
        <path id="path-6" d="M1363.9 32.327h18.484a3.119 3.119 0 0 1 3.447 3.342q.007 7.444 0 14.888v.312a33.913 33.913 0 0 0-3.452 1.186 9.574 9.574 0 0 0-2.351 15.779 10.013 10.013 0 0 0 5.415 2.518c.322.044.394.165.392.452-.012 1.406 0 2.812-.006 4.217a3.108 3.108 0 0 1-3.356 3.279q-11.9.006-23.8 0h-4.541a3.061 3.061 0 0 1-3.285-3.178q-.011-14.533 0-29.065c0-.116.011-.232.021-.418h.569c2.349 0 4.7.012 7.047 0a5.21 5.21 0 0 0 5.273-4 6.725 6.725 0 0 0 .14-1.461c.013-2.405.006-4.81.005-7.215z" class="auth-paper-symbol-4" transform="translate(-1348.719 -30.234)"/>
        <path id="path-5" d="M1374.061 47.17v3.206c0 1.194.02 2.388-.007 3.581a3.117 3.117 0 0 1-3.173 3.174c-2 .036-4 .01-6 .01-.081 0-.162-.018-.347-.039z" class="auth-paper-symbol-4" transform="translate(-1360.976 -43.537)"/>
        <path id="path-4" d="M1374.061 47.17v3.206c0 1.194.02 2.388-.007 3.581a3.117 3.117 0 0 1-3.173 3.174c-2 .036-4 .01-6 .01-.081 0-.162-.018-.347-.039z" class="auth-paper-symbol-4" transform="translate(-1360.976 -43.537)"/>
        <path id="path-3" d="M1424.483 205.265H1403.1a1.09 1.09 0 1 1 0-2.18h21.387a1.09 1.09 0 1 1 0 2.18z" class="auth-paper-symbol-3" transform="translate(-1394.814 -183.667)"/>
        <path id="path-2" d="M1417.137 274H1403.1a1.09 1.09 0 1 1 0-2.18h14.041a1.09 1.09 0 1 1 0 2.18z" class="auth-paper-symbol-3" transform="translate(-1394.75 -245.415)"/>
        <path id="path-1" d="M1417.137 342.742H1403.1a1.09 1.09 0 1 1 0-2.18h14.041a1.09 1.09 0 1 1 0 2.18z" class="auth-paper-symbol-3" transform="translate(-1394.75 -307.162)"/>
    </g>
    <path id="size" fill="none" d="M0 0H65V65H0z"/>
</svg>
