<svg xmlns="http://www.w3.org/2000/svg" width="65" height="65" viewBox="0 0 65 65">
    <g>
        <path fill="#d9e4e8" d="M839.31 42.235v-4.924a10.982 10.982 0 0 0 6.292-9.849V23.8a11.331 11.331 0 0 0-22.652 0v3.666a10.982 10.982 0 0 0 6.292 9.849v4.924A15.461 15.461 0 0 0 815.4 57.4a1.863 1.863 0 0 0 1.888 1.833h33.977a1.863 1.863 0 0 0 1.888-1.833 15.461 15.461 0 0 0-13.843-15.165z" transform="translate(10.333 8.418) translate(-814.142 -11.578)"/>
        <path fill="#141f38" d="M847.9 35.434a8.684 8.684 0 0 0-8.81-8.552 8.9 8.9 0 0 0-7.132 3.534 17.253 17.253 0 0 0-2.935-.807v-3.142a12.158 12.158 0 0 0 6.292-10.583v-3.666a12.59 12.59 0 0 0-25.168 0v3.666a12.158 12.158 0 0 0 6.292 10.583v3.141A16.636 16.636 0 0 0 802.6 45.819a3.1 3.1 0 0 0 3.146 3.055h33.977a3.1 3.1 0 0 0 3.146-3.055 16.13 16.13 0 0 0-.206-2.565 8.547 8.547 0 0 0 5.237-7.82zm-35.236-19.55v-3.666a10.072 10.072 0 0 1 20.136-.008v3.674a10.072 10.072 0 0 1-20.135 0zm13.846 11.659v2.842l-3.775 2.2-3.775-2.2v-2.842a13.011 13.011 0 0 0 7.55 0zm13.213 18.887h-33.977a.621.621 0 0 1-.629-.611 14.19 14.19 0 0 1 11.754-13.8l5.863 3.415 5.86-3.415a14.7 14.7 0 0 1 2.184.581 8.5 8.5 0 0 0 5.4 10.906 9.052 9.052 0 0 0 2.912.481 9.163 9.163 0 0 0 1.125-.069 13.663 13.663 0 0 1 .133 1.9.621.621 0 0 1-.625.612zm-.629-4.2a6.8 6.8 0 1 1 7-6.8 6.9 6.9 0 0 1-7 6.8z" transform="translate(10.333 8.418) translate(-802.6)"/>
        <path d="M978.546 0a12.922 12.922 0 0 0-3.146.4 12.283 12.283 0 0 1 9.438 11.818v3.666A12.283 12.283 0 0 1 975.4 27.7a12.58 12.58 0 0 0 15.318-8.677 11.843 11.843 0 0 0 .413-3.14v-3.665A12.406 12.406 0 0 0 978.546 0z" transform="translate(10.333 8.418) translate(-958.411)" style="isolation:isolate" fill="#17292d" opacity="0.14"/>
    </g>
    <path fill="none" d="M0 0H65V65H0z"/>
</svg>
