<svg xmlns="http://www.w3.org/2000/svg" width="96" height="96" viewBox="0 0 96 96">
    <defs>
        <style>
            .blood-2{fill:#dd3e4e}.blood-3{fill:#e23354}.blood-4{fill:#d6253f}.blood-5{fill:#e8426a}.blood-7{fill:#528bef}.blood-8{fill:#83bbff}.blood-9{fill:#f4996c}.blood-10{fill:#fea97a}.blood-11{fill:#ffb38d}
        </style>
    </defs>
    <g id="blood_03" transform="translate(-202)">
        <path id="사각형_599" fill="none" d="M0 0H96V96H0z" transform="translate(202)"/>
        <g id="그룹_1994" transform="rotate(90 438.144 180.747)">
            <g id="그룹_616">
                <g id="그룹_615">
                    <path id="패스_767" d="M299.019 408.594a22.831 22.831 0 0 1-8.427-6.045c2.28 2.815 5.152 5.222 8.427 6.045z" class="blood-2"/>
                    <path id="패스_768" d="M286.412 391.578c.352 2.891 2.129 6.008 3.812 8.3 3.544 4.835 9.481 9.412 15.676 7.94.213-.1.423-.182.638-.3 8.423-4.575-3.807-27.057-15.888-23.729-.236.065-.459.137-.676.214-2.265 1.941-3.953 4.361-3.562 7.575z" class="blood-3"/>
                    <path id="패스_769" d="M305.9 407.821c-6.2 1.472-12.132-3.105-15.676-7.94-1.683-2.3-3.46-5.412-3.812-8.3-.391-3.214 1.3-5.634 3.562-7.571-7.3 2.585-4.1 11.75-.954 16.414.487.721 1.012 1.437 1.572 2.128a22.831 22.831 0 0 0 8.427 6.045 9.985 9.985 0 0 0 6.881-.776z" class="blood-4"/>
                </g>
                <path id="패스_770" d="M305.16 396.281c-1.315-3.726-6.078-10.555-10.331-10.211-4.285.345-1.643 7.387-.649 9.558 1.477 3.228 6.043 8.938 10.4 7.352 2.761-1.008 1.485-4.135.58-6.699z" class="blood-4"/>
                <path id="패스_771" d="M291.741 388.8a4.474 4.474 0 0 1 .028-1.483c.155-.566.46-.681.834-1.052a1.312 1.312 0 0 0 .534-1c-.056-.841-1.042-.93-1.633-.67a4.012 4.012 0 0 0-2.144 2.54 6.109 6.109 0 0 0 .32 3.644c.3.6.867 1.368 1.532.771.741-.664.597-1.876.529-2.75z" class="blood-5"/>
                <path id="패스_772" d="M306.113 405.324a1.3 1.3 0 0 0-1.164-.751 14.967 14.967 0 0 1-5.9-1.56 17.072 17.072 0 0 1-6.635-7.752c-.747-1.9-1.645-1.321-1.631-.481.071 4.238 4.746 8.435 8.241 10.424 1.482.846 6.104 2.604 7.089.12z" class="blood-5"/>
            </g>
            <g id="그룹_618">
                <g id="그룹_617">
                    <path id="패스_773" d="M324.91 340.738a22.817 22.817 0 0 1-8.246 6.29c3.359-1.357 6.501-3.399 8.246-6.29z" class="blood-2"/>
                    <path id="패스_774" d="M304.95 347.815c2.868.51 6.368-.278 9.055-1.216 5.66-1.975 11.774-6.312 12.179-12.667-.034-.233-.051-.458-.1-.7-1.91-9.393-26.987-4.276-27.339 8.251-.007.244 0 .479.007.708 1.191 2.736 3.011 5.058 6.198 5.624z" class="blood-3"/>
                    <path id="패스_775" d="M326.184 333.932c-.4 6.355-6.519 10.692-12.179 12.667-2.687.938-6.187 1.726-9.055 1.216-3.187-.566-5.007-2.888-6.2-5.621.336 7.735 10.036 7.356 15.416 5.714.833-.254 1.67-.546 2.495-.88a22.817 22.817 0 0 0 8.246-6.29 9.982 9.982 0 0 0 1.277-6.806z" class="blood-4"/>
                </g>
                <path id="패스_776" d="M314.932 331.264c-3.947.167-11.871 2.724-12.787 6.891-.923 4.2 6.584 3.732 8.951 3.418 3.518-.468 10.315-3.164 10.071-7.79-.154-2.94-3.518-2.634-6.235-2.519z" class="blood-4"/>
                <path id="패스_777" d="M303.852 341.907a4.462 4.462 0 0 1-1.409-.461c-.5-.314-.516-.639-.762-1.105-.183-.346-.379-.7-.8-.8-.821-.193-1.194.724-1.118 1.365a4 4 0 0 0 1.8 2.793 6.1 6.1 0 0 0 3.578.761c.657-.111 1.562-.429 1.186-1.24-.418-.906-1.618-1.12-2.475-1.313z" class="blood-5"/>
                <path id="패스_778" d="M323.859 333c-.083-.066-.748.161-1.059.893a14.972 14.972 0 0 1-3.219 5.191 17.076 17.076 0 0 1-9.355 4.076c-2.035.159-1.744 1.187-.937 1.419 4.074 1.172 9.455-2.071 12.379-4.831 1.244-1.176 4.278-5.082 2.191-6.748z" class="blood-5"/>
            </g>
            <g id="그룹_620">
                <g id="그룹_619">
                    <path id="패스_779" fill="#69a4f9" d="M307.058 376.458c4.1 1.475 8.566.4 12.273-1.651 3.505-1.934 7.545-5.069 9.425-8.712 1.545-2.992 1.444-6.4.94-9.693-3.1-3.615-8.492-5-13.688-3.49-6.962 2.019-14.627 8.221-15.116 15.619a10.611 10.611 0 0 0 .084 3.01 11.564 11.564 0 0 0 6.082 4.917z"/>
                    <path id="패스_780" d="M316.647 379.693c7.729-1.564 15.671-10.061 15.671-15.892a11.114 11.114 0 0 0-2.622-7.4c.5 3.292.6 6.7-.94 9.693-1.88 3.643-5.92 6.778-9.425 8.712-3.707 2.047-8.168 3.126-12.273 1.651a11.564 11.564 0 0 1-6.082-4.917c1.169 6.598 8.891 9.524 15.671 8.153z" class="blood-7"/>
                </g>
                <path id="패스_781" d="M315.145 364.751c1.86-.484 3.608.222 4.715.25 2.792.068 5.416-1.46 5.688-4.466a5.3 5.3 0 0 0-1.6-3.9c-2.757-3.176-9.771-.694-12.359 1.122-3.772 2.646-8.087 8.5-5.545 13.284 1.2 2.248 3.7 3.12 6.11 3.309 2.305.181 6.336-.24 7.513-2.672.708-1.461-.429-2.631-1.915-2.512a4.542 4.542 0 0 0-1.093.3c-1.678.552-5.339.22-4.28-2.789.274-.765 2.051-1.74 2.766-1.926z" class="blood-7"/>
                <path id="패스_782" d="M302.147 366.932c-.351 1.559-.135 5.308 1.233 3.684.364-.433.055-2.306.111-2.775a8.824 8.824 0 0 1 1.371-3.776 18.788 18.788 0 0 1 2.239-2.76c.276-.29.883-.716.941-1.173.292-2.299-4.21-.683-5.895 6.8z" class="blood-8"/>
                <path id="패스_783" d="M327.975 356.592c-.4-.372-.869-.542-1.3-.1s.413 1.791-.107 5.522c-.082.591-1 2.939-.157 3.437.7.412 1.327-.538 1.632-1.022a8.565 8.565 0 0 0 .846-4.438c-.003-1.161.024-2.523-.914-3.399z" class="blood-8"/>
                <path id="패스_784" d="M325.414 366.86c-.469-.158-.741.181-.982.527-.189.272-.432.575-.637.892-.088.1-.184.184-.268.281-.247.287-.681.705-.482 1.129.428.913 1.8-.157 2.19-.564.498-.525 1.283-1.895.179-2.265z" class="blood-8"/>
            </g>
            <g id="그룹_623">
                <g id="그룹_621">
                    <path id="패스_785" d="M284.887 354.63c1.116-1.259 1.9-1.72 1.547-3.308-.426-1.906-.7-4-2.129-5.477-1.467-1.521-5.378-2.332-5.64-4.572-.45.489-.315 1.31.287 2.056a4.664 4.664 0 0 0 2.048 1.283 5.569 5.569 0 0 1 2.663 1.533c1.276 1.252 1.1 2.061 1.359 3.665a4.632 4.632 0 0 1 .291 2.579c-.61 1.583-2.449 3.04-3.292 3.727-.668.543-2.122 1.671-1.559 2.737a1.145 1.145 0 0 0 .974.629 18.952 18.952 0 0 1 1.881-3.084q.783-.885 1.57-1.768z" class="blood-9"/>
                    <path id="패스_786" d="M289.537 355.756a1.474 1.474 0 0 0-1.74-.854c1.506 1.736.894 3.956.623 6.147-.124 1.008-.256 2.506 1.132 2.607a1.6 1.6 0 0 0 .328-.015c-1.64-2.259.727-5.494-.343-7.885z" class="blood-9"/>
                    <path id="패스_787" d="M297.352 353.5c-.345-.225-.786-.806-1.25-.557a6.19 6.19 0 0 1-.519 1.318c.138-.194.27-.394.393-.605a12.518 12.518 0 0 1 2.1 1.181 1.6 1.6 0 0 0 1.9-.439 1.033 1.033 0 0 0 .065-.116 2.013 2.013 0 0 0-.322-.074 5.265 5.265 0 0 1-2.367-.708z" class="blood-9"/>
                </g>
                <g id="그룹_622">
                    <path id="패스_788" d="M297.608 347.649c.6-.435 1.586-.436 2.262-.774a7.04 7.04 0 0 0 2.58-2.086l.011-.005a1.6 1.6 0 0 0-.088-.168 1.987 1.987 0 0 0-2.359-.521c-1.06.472-1.949 2.333-3.124 2.562a4.451 4.451 0 0 0-3.364-2.448h-.043c-.237-1.937 1.748-3.549 1.864-5.565a2.139 2.139 0 0 0-1.745-2.378c-.152-.027-.724 0-.974.956-.36 1.381.062 2.06-.207 3.461a9.249 9.249 0 0 1-.942 3.222 10.716 10.716 0 0 0-3.336 1.167c-.508-.237-.995-1.92-1.074-2.414-.141-.88.045-1.8-.112-2.7-.183-1.033-1.016-3.15-2.368-1.745-.791.822-.248 2.209.022 3.116a39.524 39.524 0 0 0 1.444 3.961c-2.322-.713-3.345-4.665-6.365-4.445a1.477 1.477 0 0 0-1.025.426c.262 2.24 4.173 3.051 5.64 4.572 1.425 1.477 1.7 3.571 2.129 5.477.355 1.588-.431 2.049-1.547 3.308q-.784.883-1.567 1.768a18.952 18.952 0 0 0-1.881 3.084 2.258 2.258 0 0 0 1.332-.368c2-1.271 2.466-3.989 5-4.249.01.012.016.025.026.037a1.474 1.474 0 0 1 1.74.854c1.07 2.391-1.3 5.626.343 7.885a1.994 1.994 0 0 0 1.5-1.808 14.768 14.768 0 0 0-.077-3.143c-.036-.743-.065-1.488-.1-2.233a4.649 4.649 0 0 0 4.382-2.194 6.19 6.19 0 0 0 .519-1.318c.464-.249.9.332 1.25.557a5.265 5.265 0 0 0 2.362.708 2.013 2.013 0 0 1 .322.074 1.079 1.079 0 0 0-.436-1.425c-.839-.594-2.216-.817-2.594-1.834a10.514 10.514 0 0 0 .273-2.4.742.742 0 0 1 .327-.974z" class="blood-10"/>
                    <path id="패스_789" d="M302.461 344.784l-.011.005a7.04 7.04 0 0 1-2.58 2.086c-.676.338-1.66.339-2.262.774a.742.742 0 0 0-.329.979v-.007c1.871-.349 6.226-1.889 5.182-3.837z" class="blood-9"/>
                </g>
                <path id="패스_790" d="M288.717 351.028l-.353-.909a.234.234 0 0 0-.279-.159.539.539 0 0 0-.458.524 1.181 1.181 0 0 0 .651 1.353.4.4 0 0 0 .578-.262 1.059 1.059 0 0 0-.139-.547z" class="blood-9"/>
                <path id="패스_791" d="M291.934 351.369l-.965-.145a.234.234 0 0 0-.276.164.538.538 0 0 0 .227.657 1.183 1.183 0 0 0 1.5.107.4.4 0 0 0 .059-.632 1.057 1.057 0 0 0-.545-.151z" class="blood-9"/>
                <path id="패스_792" d="M294.076 353.4c-.074.063-.15.123-.226.185a2.264 2.264 0 0 1-1.126.266.69.69 0 0 0-.56.126c-.275.268-.071.689.2.874.954.656 2.08-.3 2.15-1.271.016-.234-.284-.307-.438-.18z" class="blood-9"/>
                <path id="패스_793" d="M289.564 346.385a.485.485 0 0 0-.694-.077.794.794 0 0 0-.223 1.1.633.633 0 0 0 .334.5.279.279 0 0 0 .4-.311c-.055-.342.1-.506.19-.807a.486.486 0 0 0-.007-.405z" class="blood-9"/>
                <path id="패스_794" d="M296.412 350.237a.229.229 0 0 0-.437 0c-.177.466-.531.451-.91.622a.525.525 0 0 0-.349.413.289.289 0 0 0 .125.3c.467.336 1.355.2 1.434-.451a1.059 1.059 0 0 0 .137-.884z" class="blood-9"/>
                <path id="패스_795" d="M295.607 346.286a1.959 1.959 0 0 0-1.84-.887 1.791 1.791 0 0 0-.945-.593.209.209 0 0 0-.255.145c-.09.478-1.385-.02-1.663.566-.257.544.325.682.567.995-.194.114-.388.226-.58.342a.3.3 0 0 0-.06.464 2.849 2.849 0 0 0 .481.393c-.393.428-.8.656-.231 1.258a1.865 1.865 0 0 1 .423.556 1.941 1.941 0 0 0 .175.431.713.713 0 0 0 .707.282.94.94 0 0 0 .6-.605c.083-.194.067-1.005.643-.913a1.041 1.041 0 0 0 1.324-.569c.83.014 1.054-1.165.654-1.865z" class="blood-11"/>
                <path id="패스_796" d="M293.583 337.213c-.007-.006-.014-.006-.021-.011-.13-.213-.347-.32-.588-.037-.338.4-.116 1.327.074 1.736.242.521.7.335.89-.1a1.4 1.4 0 0 0-.355-1.588z" class="blood-11"/>
                <path id="패스_797" d="M301.138 344.8a.4.4 0 0 0-.131-.142.175.175 0 0 0-.116-.109 1.338 1.338 0 0 0-.949.249 3.013 3.013 0 0 0-1 .8.373.373 0 0 0 .088.558c.265.165.72.015.982-.086.388-.143 1.434-.706 1.126-1.27z" class="blood-11"/>
                <path id="패스_798" d="M285.988 340c-.045-.427.041-.941-.373-1.227a.46.46 0 0 0-.7.227 1.219 1.219 0 0 0-.031.725 2.945 2.945 0 0 0 .681 1.615.306.306 0 0 0 .478-.061c.276-.444-.006-.809-.055-1.279z" class="blood-11"/>
            </g>
            <g id="그룹_626">
                <g id="그룹_624">
                    <path id="패스_799" d="M323.453 392.445c-1.116-1.259-1.9-1.72-1.547-3.308.426-1.906.7-4 2.128-5.477 1.468-1.521 5.379-2.332 5.64-4.572.451.489.315 1.31-.287 2.056a4.655 4.655 0 0 1-2.05 1.283 5.573 5.573 0 0 0-2.663 1.533c-1.276 1.252-1.1 2.061-1.359 3.665a4.632 4.632 0 0 0-.291 2.579c.609 1.583 2.449 3.04 3.292 3.727.667.544 2.122 1.671 1.558 2.737a1.145 1.145 0 0 1-.973.63 18.92 18.92 0 0 0-1.881-3.085q-.783-.885-1.567-1.768z" class="blood-9"/>
                    <path id="패스_800" d="M318.8 393.571a1.474 1.474 0 0 1 1.74-.854c-1.506 1.736-.895 3.956-.624 6.147.125 1.008.257 2.506-1.131 2.607a1.6 1.6 0 0 1-.328-.015c1.643-2.256-.725-5.494.343-7.885z" class="blood-9"/>
                    <path id="패스_801" d="M310.987 391.317c.346-.224.787-.806 1.25-.557a6.258 6.258 0 0 0 .52 1.318c-.138-.193-.271-.394-.393-.6a12.5 12.5 0 0 0-2.1 1.18 1.593 1.593 0 0 1-1.9-.439 1.038 1.038 0 0 1-.065-.116 2.01 2.01 0 0 1 .322-.074 5.251 5.251 0 0 0 2.366-.712z" class="blood-9"/>
                </g>
                <g id="그룹_625">
                    <path id="패스_802" d="M310.732 385.464c-.6-.435-1.587-.436-2.262-.774a7.031 7.031 0 0 1-2.58-2.086l-.011-.005a1.428 1.428 0 0 1 .088-.168 1.988 1.988 0 0 1 2.359-.521c1.059.472 1.949 2.333 3.124 2.562a4.451 4.451 0 0 1 3.364-2.448h.042c.237-1.937-1.748-3.549-1.864-5.565a2.14 2.14 0 0 1 1.746-2.378c.152-.027.723 0 .973.956.361 1.381-.061 2.06.208 3.461a9.243 9.243 0 0 0 .942 3.222 10.741 10.741 0 0 1 3.336 1.167c.508-.237.995-1.92 1.074-2.414.14-.88-.046-1.8.112-2.7.183-1.032 1.016-3.15 2.368-1.745.79.822.248 2.209-.022 3.116a39.524 39.524 0 0 1-1.445 3.961c2.323-.713 3.346-4.665 6.366-4.445a1.478 1.478 0 0 1 1.024.426c-.261 2.24-4.172 3.051-5.64 4.572-1.424 1.477-1.7 3.571-2.128 5.477-.355 1.588.431 2.049 1.547 3.308l1.567 1.768a18.92 18.92 0 0 1 1.88 3.089 2.266 2.266 0 0 1-1.332-.369c-2-1.271-2.467-3.989-5-4.249-.01.012-.016.025-.026.037a1.474 1.474 0 0 0-1.74.854c-1.071 2.391 1.3 5.626-.343 7.885a1.993 1.993 0 0 1-1.5-1.808 14.768 14.768 0 0 1 .077-3.143c.036-.742.065-1.488.1-2.232a4.652 4.652 0 0 1-4.382-2.2 6.258 6.258 0 0 1-.52-1.318c-.463-.249-.9.333-1.25.557a5.251 5.251 0 0 1-2.361.708 2.01 2.01 0 0 0-.322.074 1.08 1.08 0 0 1 .435-1.425c.84-.594 2.217-.816 2.6-1.833a10.528 10.528 0 0 1-.273-2.4.742.742 0 0 0-.331-.974z" class="blood-10"/>
                    <path id="패스_803" d="M305.879 382.6l.011.005a7.031 7.031 0 0 0 2.58 2.086c.675.338 1.66.339 2.262.774a.742.742 0 0 1 .329.979v-.007c-1.871-.35-6.226-1.89-5.182-3.837z" class="blood-9"/>
                </g>
                <path id="패스_804" d="M319.623 388.843l.353-.909a.233.233 0 0 1 .279-.158.538.538 0 0 1 .458.523 1.183 1.183 0 0 1-.652 1.354.4.4 0 0 1-.577-.263 1.062 1.062 0 0 1 .139-.547z" class="blood-9"/>
                <path id="패스_805" d="M316.406 389.184l.965-.145a.235.235 0 0 1 .276.164.537.537 0 0 1-.228.657 1.183 1.183 0 0 1-1.5.107.4.4 0 0 1-.058-.632 1.057 1.057 0 0 1 .545-.151z" class="blood-9"/>
                <path id="패스_806" d="M314.263 391.22c.075.063.151.124.227.185a2.251 2.251 0 0 0 1.126.266.687.687 0 0 1 .56.127c.275.267.07.688-.2.873-.955.656-2.08-.3-2.151-1.271-.015-.239.284-.312.438-.18z" class="blood-9"/>
                <path id="패스_807" d="M318.776 384.2a.485.485 0 0 1 .694-.077.8.8 0 0 1 .223 1.1.633.633 0 0 1-.334.5.279.279 0 0 1-.406-.311c.055-.342-.1-.506-.189-.807a.486.486 0 0 1 .012-.405z" class="blood-9"/>
                <path id="패스_808" d="M311.928 388.052a.228.228 0 0 1 .436 0c.177.466.532.451.911.622a.526.526 0 0 1 .348.413.286.286 0 0 1-.124.3c-.467.336-1.355.2-1.434-.451a1.059 1.059 0 0 1-.137-.884z" class="blood-9"/>
                <path id="패스_809" d="M312.732 384.1a1.963 1.963 0 0 1 1.84-.887 1.794 1.794 0 0 1 .946-.593.21.21 0 0 1 .255.145c.09.478 1.385-.02 1.663.566.257.544-.325.682-.567.995.194.114.388.226.58.342a.3.3 0 0 1 .06.464 2.89 2.89 0 0 1-.481.393c.393.428.8.656.231 1.258a1.865 1.865 0 0 0-.423.556 1.989 1.989 0 0 1-.175.431.713.713 0 0 1-.707.282.94.94 0 0 1-.6-.605c-.083-.194-.067-1.005-.643-.913a1.041 1.041 0 0 1-1.324-.568c-.83.014-1.054-1.166-.655-1.866z" class="blood-11"/>
                <path id="패스_810" d="M314.757 375.028c.006-.006.014-.006.021-.011.13-.213.347-.32.587-.037.339.4.117 1.327-.074 1.737-.242.52-.7.334-.889-.105a1.4 1.4 0 0 1 .355-1.584z" class="blood-11"/>
                <path id="패스_811" d="M307.2 382.616a.388.388 0 0 1 .13-.141.178.178 0 0 1 .117-.11 1.339 1.339 0 0 1 .949.249 3.015 3.015 0 0 1 1 .806.373.373 0 0 1-.088.557c-.265.165-.72.015-.983-.086-.388-.148-1.431-.712-1.125-1.275z" class="blood-11"/>
                <path id="패스_812" d="M322.352 377.819c.045-.427-.041-.941.373-1.227a.459.459 0 0 1 .7.227 1.218 1.218 0 0 1 .032.725 2.952 2.952 0 0 1-.681 1.616.307.307 0 0 1-.478-.062c-.278-.447.002-.813.054-1.279z" class="blood-11"/>
            </g>
        </g>
    </g>
</svg>
