<svg xmlns="http://www.w3.org/2000/svg" width="96" height="96" viewBox="0 0 96 96">
    <defs>
        <style>
            .diabetes-10{fill:#ebb87c}.diabetes-12{fill:#cca093}
        </style>
    </defs>
    <g id="diabetes_04" transform="translate(-202)">
        <path id="사각형_598" fill="none" d="M0 0H96V96H0z" transform="translate(202)"/>
        <g id="그룹_1993" transform="translate(-161.373 -924.726)">
            <path id="패스_713" fill="#759cb3" d="M442.685 1003.414a7.732 7.732 0 0 1-4.569 1.272c-.1-.017-.2-.033-.293-.056l-2.255-.522a83.7 83.7 0 0 0 .868-21.133 140.051 140.051 0 0 0-5.247-27.868 5.857 5.857 0 0 1 2.392-1.733 10.941 10.941 0 0 1 4.418-.834s1.387 5.211 3.472 15.626c1.842 9.217 1.214 35.248 1.214 35.248z" transform="translate(-42.871 -4.579)"/>
            <path id="패스_714" fill="#82adc7" d="M438.116 1006.395c-.1-.017-.2-.033-.293-.056l-2.255-.522a83.7 83.7 0 0 0 .868-21.133 140.051 140.051 0 0 0-5.247-27.868 5.857 5.857 0 0 1 2.392-1.733s2.724 3.587 4.692 17.812c1.527 11.027.418 26.91-.157 33.5z" transform="translate(-42.871 -6.286)"/>
            <path id="패스_715" fill="#c86464" d="M466.75 967.41c-1.387 13.023-1.041 31.253-1.041 31.253a4.51 4.51 0 0 1-2.486 1.7 5.568 5.568 0 0 1-3.243-.209s-1.041-7.218 0-28.747 2.6-25.523 2.6-25.523a8.757 8.757 0 0 1 3.268-.073c.229.02.469.045.726.073 3.087.346 3.4 1.161 3.4 1.161a165.2 165.2 0 0 0-3.224 20.365z" transform="translate(-61.901)"/>
            <path id="패스_716" fill="#d96c6c" d="M463.427 960.566c-1 8.169-.522 29.325-.2 39.794a5.568 5.568 0 0 1-3.243-.209s-1.041-7.218 0-28.747 2.6-25.523 2.6-25.523a8.757 8.757 0 0 1 3.268-.073 120.577 120.577 0 0 0-2.425 14.758z" transform="translate(-61.901)"/>
            <path id="패스_717" fill="#deae75" d="M467 997.94a7.042 7.042 0 0 1-.692 1.853.026.026 0 0 1-.006.011 4.588 4.588 0 0 1-1.909 1.956l-2.082 1.041s0 1.39-3.3 2.085l-3.3.692s-2.78 2.085-5.211 2.085h-3.991a11.276 11.276 0 0 1-7.293 0c-4.343-1.563-4.516-2.953-4.516-2.953s-3.067 1.044-5.007.522l-1.937-.522a8.662 8.662 0 0 1-6.425 1.739l-3.821-.522a5.9 5.9 0 0 1-4.34 2.663l-2.78.115a8.707 8.707 0 0 1-7.466 2.78c-4.513-.695-5.035-1.736-5.035-1.736s-4.987 2.054-6.871-3.276a10.581 10.581 0 0 1-.421-1.585 5.975 5.975 0 0 1-2.777-3.821 3.431 3.431 0 0 1 1.39-3.472 4.6 4.6 0 0 1 1.387-4.689c2.266-1.906 3.48-1.906 3.48-1.906a13.215 13.215 0 0 1 5.557-6.079c3.821-1.909 6.425-.868 6.425-.868s.868-2.95 4.862-3.645 5.9 1.214 5.9 1.214a13.286 13.286 0 0 1 8.334-1.368c4.544.848 5.73 3.8 5.73 3.8a8.752 8.752 0 0 1 4.17 1.39 7.564 7.564 0 0 1 2.777 2.431s3.994 1.041 5.9 2.95 4.167 2.78 8.161 3.126 15.107-2.082 17.19 0S467 997.94 467 997.94z" transform="translate(-13.71 -23.065)"/>
            <path id="패스_718" fill="#cfa26d" d="M467 997.94a7.042 7.042 0 0 1-.692 1.853c.084-.218 1.345-3.578-1.22-4.929-2.651-1.4-13.4 2.093-20.095.952s-8.482-5.557-8.482-5.557-.031-.837-1.865-2.931a6.276 6.276 0 0 0-4.641-1.954s-.757-3.327-5.523-3.307a15.5 15.5 0 0 0-7.443 1.633s-.793-.558-5.719 0-5.908 2.651-5.908 2.651-4.237-.139-9.539 5.3-3.868 13.4-3.868 13.4a14.469 14.469 0 0 1-.983 1.421 10.581 10.581 0 0 1-.421-1.585 5.975 5.975 0 0 1-2.777-3.821 3.431 3.431 0 0 1 1.39-3.472 4.6 4.6 0 0 1 1.387-4.689c2.262-1.905 3.476-1.905 3.476-1.905a13.215 13.215 0 0 1 5.557-6.079c3.821-1.909 6.425-.868 6.425-.868s.868-2.95 4.862-3.645 5.9 1.214 5.9 1.214a13.286 13.286 0 0 1 8.334-1.368c4.544.848 5.73 3.8 5.73 3.8a8.752 8.752 0 0 1 4.17 1.39 7.564 7.564 0 0 1 2.777 2.431s3.994 1.041 5.9 2.95 4.167 2.78 8.161 3.126 15.107-2.082 17.19 0S467 997.94 467 997.94z" transform="translate(-13.71 -23.065)"/>
            <path id="패스_719" fill="#e3b278" d="M442.55 999.842c-2.6-.407-6.212-.5-11.861 3.476s-8.13 12.372-3.385 14.914 10.538-3.6 18.991-4.341 12.8 2.844 21.372 2.677 10.153-3.688 7.455-4.765-7.3-.795-13-3.215-9.016-7.093-19.572-8.746z" transform="translate(-38.578 -36.229)"/>
            <path id="패스_720" fill="#ba9286" d="M416.686 1024.191s-1.446 2.305-6.291 2.269a12.462 12.462 0 0 1-2.049-.173c-2.941-.505-3.72-1.959-3.72-1.959.369-.985.874-4.65-1.513-5.518-2.409-.879-3.3 5.73-16.667 5.73s-15.8-6.079-18.231-12.328.6-20.488 6.55-24.482a7.351 7.351 0 0 1 4.845-.017l.064.017a5.331 5.331 0 0 1 3.692 3.938s-9.433 11.359-2.866 20.41c3.327 4.588 8.948 2.587 13.756.826s9.9-6.547 16.843-3.123c7.247 3.57 5.587 14.41 5.587 14.41z" transform="translate(0 -27.959)"/>
            <path id="패스_721" d="M410.908 1023.87s.977-4.163 4.326-2.489-5.621 4.771-4.326 2.489z" class="diabetes-10" transform="translate(-29.159 -50.558)"/>
            <path id="패스_722" d="M430.932 1005.205s.608-4.233 4.091-2.859-5.181 5.246-4.091 2.859z" class="diabetes-10" transform="translate(-42.634 -37.853)"/>
            <path id="패스_723" d="M411.789 1040.421s2.764-2.606 4.522-1.211-7.286 3.818-4.522 1.211z" class="diabetes-10" transform="translate(-29.482 -62.526)"/>
            <path id="패스_724" d="M436.481 1046.993s4-2.651 4.93 0-7.582 2.233-4.93 0z" class="diabetes-10" transform="translate(-46.08 -67.239)"/>
            <path id="패스_725" d="M518.3 1030.643s2.578-1.709 3.178 0-4.888 1.44-3.178 0z" class="diabetes-10" transform="translate(-101.168 -56.536)"/>
            <path id="패스_726" d="M515.3 1045.914s2.819-1.272 3.137.512-5.051.634-3.137-.512z" class="diabetes-10" transform="translate(-99.1 -67.011)"/>
            <path id="패스_727" d="M537.247 1026.876s3.093.032 2.63 1.784-4.853-1.553-2.63-1.784z" class="diabetes-10" transform="translate(-113.7 -54.516)"/>
            <path id="패스_728" d="M569.261 1047.2s3.758-2.492 4.633 0-7.125 2.1-4.633 0z" class="diabetes-10" transform="translate(-135.302 -67.425)"/>
            <path id="패스_729" d="M539.567 1048.206s2.578-1.709 3.178 0-4.888 1.44-3.178 0z" class="diabetes-10" transform="translate(-115.455 -68.335)"/>
            <path id="패스_730" d="M491.065 1039.351s4.632-1.248 4.675 1.562-7.898-.285-4.675-1.562z" class="diabetes-10" transform="translate(-82.578 -62.712)"/>
            <path id="패스_731" d="M445.865 1024.432s-2.988-.849-3.261 1.459 8.33-1.598 3.261-1.459z" class="diabetes-10" transform="translate(-50.535 -52.772)"/>
            <path id="패스_732" d="M558.68 1034.755s-2.988-.849-3.261 1.459 8.33-1.599 3.261-1.459z" class="diabetes-10" transform="translate(-126.323 -59.707)"/>
            <path id="패스_733" d="M518.669 1010.3s-2.323-2.062-3.571-.1 8.202 2.177 3.571.1z" class="diabetes-10" transform="translate(-99.163 -42.745)"/>
            <path id="패스_734" d="M592.648 1033.831s-2.506-.756-2.767 1.185 7.039-1.234 2.767-1.185z" class="diabetes-10" transform="translate(-149.474 -59.091)"/>
            <path id="패스_735" d="M494.679 1020.822s-2.782-1.383-3.473.837 8.482-.045 3.473-.837z" class="diabetes-10" transform="translate(-83.164 -50.163)"/>
            <path id="패스_736" d="M416.2 1057.487s.139-2.083 2.233-.827 3.043 2.093 1.033 2.651-4.266-.596-3.266-1.824z" class="diabetes-10" transform="translate(-32.634 -74.254)"/>
            <path id="패스_737" d="M468.026 1033.593s-1.535 1.758 0 2.594 4.239-1.977 3.375-2.594-2.713-1.322-3.375 0z" class="diabetes-10" transform="translate(-67.159 -58.525)"/>
            <path id="패스_738" d="M464.1 1012.241s.754-3.778 3.092-1.825 2.127 3.628 0 3.628-3.678-.285-3.092-1.803z" class="diabetes-10" transform="translate(-64.897 -43.082)"/>
            <path id="패스_739" d="M491.985 998.352s.7-3.516 2.878-1.7 1.98 3.377 0 3.377-3.424-.263-2.878-1.677z" class="diabetes-10" transform="translate(-83.635 -33.863)"/>
            <path id="패스_740" d="M458.668 993.255s2.546-4.153 4.684-2.3-4.383 5.535-4.684 2.3z" class="diabetes-10" transform="translate(-61.331 -30.065)"/>
            <path id="패스_741" fill="#ad887d" d="M408.346 1026.287c-2.941-.505-3.72-1.959-3.72-1.959.369-.985.874-4.65-1.513-5.518-2.409-.879-3.3 5.73-16.667 5.73s-15.8-6.079-18.231-12.328.6-20.488 6.55-24.482a7.351 7.351 0 0 1 4.845-.017c-.48-.1-3.6-.433-6.514 7.019-3.162 8.1-4.2 16.647 2.325 22.517 6.2 5.581 16.562 5.582 22.236 1.859s4.094-4.929 8.186-4.65c3.664.249 3.413 8.993 2.503 11.829z" transform="translate(0 -27.959)"/>
            <path id="패스_742" d="M470.206 1057.985s2.214-2.162 6.709-.792 7.6 6.395 4.929 7.046-1.246-3.618-5.445-4.46-8.371-.234-6.193-1.794z" class="diabetes-12" transform="translate(-68.681 -74.577)"/>
            <path id="패스_743" d="M389 1001.06a20.258 20.258 0 0 0-4 13.189c.558 7.627 2.512 8.568 3.535 7.54s-1.488-3.713-.93-9.627 5.395-14.8 1.395-11.102z" class="diabetes-12" transform="translate(-11.807 -36.587)"/>
        </g>
    </g>
</svg>
