<svg xmlns="http://www.w3.org/2000/svg" width="96" height="96" viewBox="0 0 96 96">
    <defs>
        <radialGradient id="radial-gradient" cx=".5" cy="1.802" r="1.805" gradientTransform="matrix(.647 0 0 1 .177 0)" gradientUnits="objectBoundingBox">
            <stop offset=".48" stop-color="#cfcfcf"/>
            <stop offset=".505" stop-color="#d2d2d2"/>
            <stop offset=".525" stop-color="#dcdcdc"/>
            <stop offset=".543" stop-color="#ececec"/>
            <stop offset=".545" stop-color="#efefef"/>
            <stop offset=".935" stop-color="#efefef"/>
            <stop offset=".968" stop-color="#f2f2f2"/>
            <stop offset=".995" stop-color="#fcfcfc"/>
            <stop offset="1" stop-color="#fff"/>
        </radialGradient>
        <radialGradient id="radial-gradient-2" cx=".5" cy="1.805" r="1.809" gradientTransform="matrix(.646 0 0 1 .177 0)" gradientUnits="objectBoundingBox">
            <stop offset=".48" stop-color="#d3d3d3"/>
            <stop offset=".485" stop-color="#d3d3d3"/>
            <stop offset=".502" stop-color="#e2e2e2"/>
            <stop offset=".521" stop-color="#ececec"/>
            <stop offset=".545" stop-color="#f0f0f0"/>
            <stop offset=".933" stop-color="#f0f0f0"/>
            <stop offset=".935" stop-color="#f0f0f0"/>
            <stop offset=".969" stop-color="#f3f3f3"/>
            <stop offset=".993" stop-color="#fbfbfb"/>
            <stop offset="1" stop-color="#fff"/>
        </radialGradient>
        <radialGradient id="radial-gradient-3" cx=".5" cy="1.807" r="1.812" gradientTransform="matrix(.646 0 0 1 .177 0)" gradientUnits="objectBoundingBox">
            <stop offset=".48" stop-color="#d7d7d7"/>
            <stop offset=".485" stop-color="#d7d7d7"/>
            <stop offset=".5" stop-color="#e4e4e4"/>
            <stop offset=".52" stop-color="#eee"/>
            <stop offset=".545" stop-color="#f2f2f2"/>
            <stop offset=".933" stop-color="#f2f2f2"/>
            <stop offset=".935" stop-color="#f2f2f2"/>
            <stop offset=".972" stop-color="#f5f5f5"/>
            <stop offset=".993" stop-color="#fbfbfb"/>
            <stop offset="1" stop-color="#fff"/>
        </radialGradient>
        <radialGradient id="radial-gradient-4" cx=".5" cy="1.81" r="1.816" gradientTransform="matrix(.645 0 0 1 .177 0)" gradientUnits="objectBoundingBox">
            <stop offset=".48" stop-color="#dcdcdc"/>
            <stop offset=".485" stop-color="#dcdcdc"/>
            <stop offset=".497" stop-color="#e5e5e5"/>
            <stop offset=".519" stop-color="#efefef"/>
            <stop offset=".545" stop-color="#f3f3f3"/>
            <stop offset=".933" stop-color="#f3f3f3"/>
            <stop offset=".935" stop-color="#f3f3f3"/>
            <stop offset=".972" stop-color="#f6f6f6"/>
            <stop offset=".993" stop-color="#fcfcfc"/>
            <stop offset="1" stop-color="#fefefe"/>
        </radialGradient>
        <radialGradient id="radial-gradient-5" cx=".5" cy="1.813" r="1.819" gradientTransform="matrix(.645 0 0 1 .178 0)" gradientUnits="objectBoundingBox">
            <stop offset=".48" stop-color="#e0e0e0"/>
            <stop offset=".485" stop-color="#e0e0e0"/>
            <stop offset=".495" stop-color="#e6e6e6"/>
            <stop offset=".517" stop-color="#f0f0f0"/>
            <stop offset=".545" stop-color="#f4f4f4"/>
            <stop offset=".933" stop-color="#f4f4f4"/>
            <stop offset=".935" stop-color="#f4f4f4"/>
            <stop offset=".974" stop-color="#f7f7f7"/>
            <stop offset=".993" stop-color="#fcfcfc"/>
            <stop offset="1" stop-color="#fefefe"/>
        </radialGradient>
        <radialGradient id="radial-gradient-6" cx=".5" cy="1.816" r="1.823" gradientTransform="matrix(.644 0 0 1 .178 0)" gradientUnits="objectBoundingBox">
            <stop offset=".48" stop-color="#e4e4e4"/>
            <stop offset=".485" stop-color="#e4e4e4"/>
            <stop offset=".491" stop-color="#e7e7e7"/>
            <stop offset=".515" stop-color="#f1f1f1"/>
            <stop offset=".545" stop-color="#f5f5f5"/>
            <stop offset=".933" stop-color="#f5f5f5"/>
            <stop offset=".935" stop-color="#f5f5f5"/>
            <stop offset=".976" stop-color="#f8f8f8"/>
            <stop offset=".993" stop-color="#fcfcfc"/>
            <stop offset="1" stop-color="#fefefe"/>
        </radialGradient>
        <radialGradient id="radial-gradient-7" cx=".5" cy="1.818" r="1.826" gradientTransform="matrix(.644 0 0 1 .178 0)" gradientUnits="objectBoundingBox">
            <stop offset=".48" stop-color="#e8e8e8"/>
            <stop offset=".485" stop-color="#e8e8e8"/>
            <stop offset=".488" stop-color="#e9e9e9"/>
            <stop offset=".513" stop-color="#f3f3f3"/>
            <stop offset=".545" stop-color="#f7f7f7"/>
            <stop offset=".933" stop-color="#f7f7f7"/>
            <stop offset=".935" stop-color="#f7f7f7"/>
            <stop offset=".983" stop-color="#fafafa"/>
            <stop offset=".993" stop-color="#fcfcfc"/>
            <stop offset="1" stop-color="#fefefe"/>
        </radialGradient>
        <radialGradient id="radial-gradient-8" cx=".5" cy="1.821" r="1.83" gradientTransform="matrix(.643 0 0 1 .178 0)" gradientUnits="objectBoundingBox">
            <stop offset=".48" stop-color="#ececec"/>
            <stop offset=".485" stop-color="#ececec"/>
            <stop offset=".51" stop-color="#f4f4f4"/>
            <stop offset=".545" stop-color="#f8f8f8"/>
            <stop offset=".933" stop-color="#f8f8f8"/>
            <stop offset=".935" stop-color="#f8f8f8"/>
            <stop offset=".987" stop-color="#fbfbfb"/>
            <stop offset=".993" stop-color="#fcfcfc"/>
            <stop offset="1" stop-color="#fefefe"/>
        </radialGradient>
        <radialGradient id="radial-gradient-9" cx=".5" cy="1.824" r="1.833" gradientTransform="matrix(.643 0 0 1 .179 0)" gradientUnits="objectBoundingBox">
            <stop offset=".48" stop-color="#f0f0f0"/>
            <stop offset=".485" stop-color="#f0f0f0"/>
            <stop offset=".506" stop-color="#f5f5f5"/>
            <stop offset=".545" stop-color="#f9f9f9"/>
            <stop offset=".933" stop-color="#f9f9f9"/>
            <stop offset=".935" stop-color="#f9f9f9"/>
            <stop offset=".993" stop-color="#fcfcfc"/>
            <stop offset="1" stop-color="#fefefe"/>
        </radialGradient>
        <radialGradient id="radial-gradient-10" cx=".5" cy="1.826" r="1.837" gradientTransform="matrix(.642 0 0 1 .179 0)" gradientUnits="objectBoundingBox">
            <stop offset=".48" stop-color="#f5f5f5"/>
            <stop offset=".485" stop-color="#f5f5f5"/>
            <stop offset=".495" stop-color="#f6f6f6"/>
            <stop offset=".545" stop-color="#fafafa"/>
            <stop offset=".933" stop-color="#fafafa"/>
            <stop offset=".935" stop-color="#fafafa"/>
            <stop offset=".993" stop-color="#fdfdfd"/>
            <stop offset="1" stop-color="#fdfdfd"/>
        </radialGradient>
        <radialGradient id="radial-gradient-11" cx=".5" cy="1.829" r="1.84" gradientTransform="matrix(.642 0 0 1 .179 0)" gradientUnits="objectBoundingBox">
            <stop offset=".48" stop-color="#f9f9f9"/>
            <stop offset=".485" stop-color="#f9f9f9"/>
            <stop offset=".545" stop-color="#fcfcfc"/>
            <stop offset=".933" stop-color="#fcfcfc"/>
            <stop offset=".935" stop-color="#fcfcfc"/>
            <stop offset=".993" stop-color="#fdfdfd"/>
            <stop offset="1" stop-color="#fdfdfd"/>
        </radialGradient>
        <radialGradient id="radial-gradient-12" cx=".5" cy="1.832" r="1.844" gradientTransform="matrix(.641 0 0 1 .179 0)" gradientUnits="objectBoundingBox">
            <stop offset=".485" stop-color="#fdfdfd"/>
            <stop offset=".49" stop-color="#fdfdfd"/>
            <stop offset=".545" stop-color="#fdfdfd"/>
            <stop offset=".933" stop-color="#fdfdfd"/>
            <stop offset=".938" stop-color="#fdfdfd"/>
            <stop offset=".993" stop-color="#fdfdfd"/>
        </radialGradient>
        <radialGradient id="radial-gradient-13" cx=".5" cy="1.876" r="1.849" gradientTransform="matrix(.634 0 0 1 .183 0)" gradientUnits="objectBoundingBox">
            <stop offset=".525" stop-color="#9f9f9f"/>
            <stop offset=".698" stop-color="#979797"/>
            <stop offset=".95" stop-color="#848484"/>
            <stop offset=".998" stop-color="gray"/>
        </radialGradient>
        <radialGradient id="radial-gradient-14" cx=".5" cy="1.932" r="1.925" gradientTransform="matrix(.629 0 0 1 .185 0)" gradientUnits="objectBoundingBox">
            <stop offset=".525" stop-color="#a6a6a6"/>
            <stop offset=".56" stop-color="#a5a5a5"/>
            <stop offset=".741" stop-color="#9d9d9d"/>
            <stop offset=".89" stop-color="#949494"/>
            <stop offset=".998" stop-color="#8b8b8b"/>
        </radialGradient>
        <radialGradient id="radial-gradient-15" cx=".5" cy="1.989" r="2.004" gradientTransform="matrix(.625 0 0 1 .188 0)" gradientUnits="objectBoundingBox">
            <stop offset=".525" stop-color="#aeaeae"/>
            <stop offset=".56" stop-color="#adadad"/>
            <stop offset=".758" stop-color="#a5a5a5"/>
            <stop offset=".89" stop-color="#9e9e9e"/>
            <stop offset=".998" stop-color="#969696"/>
        </radialGradient>
        <radialGradient id="radial-gradient-16" cx=".5" cy="2.045" r="2.085" gradientTransform="matrix(.62 0 0 1 .19 0)" gradientUnits="objectBoundingBox">
            <stop offset=".525" stop-color="#b5b5b5"/>
            <stop offset=".56" stop-color="#b4b4b4"/>
            <stop offset=".79" stop-color="#acacac"/>
            <stop offset=".89" stop-color="#a8a8a8"/>
            <stop offset=".998" stop-color="#a0a0a0"/>
        </radialGradient>
        <radialGradient id="radial-gradient-17" cx=".5" cy="2.102" r="2.167" gradientTransform="matrix(.615 0 0 1 .192 0)" gradientUnits="objectBoundingBox">
            <stop offset=".525" stop-color="#bcbcbc"/>
            <stop offset=".56" stop-color="#bbb"/>
            <stop offset=".839" stop-color="#b3b3b3"/>
            <stop offset=".89" stop-color="#b2b2b2"/>
            <stop offset=".998" stop-color="#ababab"/>
        </radialGradient>
        <radialGradient id="radial-gradient-18" cx=".5" cy="2.158" r="2.251" gradientTransform="matrix(.61 0 0 1 .195 0)" gradientUnits="objectBoundingBox">
            <stop offset=".525" stop-color="#c3c3c3"/>
            <stop offset=".56" stop-color="#c3c3c3"/>
            <stop offset=".89" stop-color="#bcbcbc"/>
            <stop offset=".998" stop-color="#b6b6b6"/>
        </radialGradient>
        <radialGradient id="radial-gradient-19" cx=".5" cy="2.215" r="2.337" gradientTransform="matrix(.604 0 0 1 .198 0)" gradientUnits="objectBoundingBox">
            <stop offset=".525" stop-color="#cbcbcb"/>
            <stop offset=".56" stop-color="#cacaca"/>
            <stop offset=".89" stop-color="#c5c5c5"/>
            <stop offset=".998" stop-color="#c1c1c1"/>
        </radialGradient>
        <radialGradient id="radial-gradient-20" cx=".5" cy="2.271" r="2.425" gradientTransform="matrix(.599 0 0 1 .201 0)" gradientUnits="objectBoundingBox">
            <stop offset=".525" stop-color="#d2d2d2"/>
            <stop offset=".56" stop-color="#d2d2d2"/>
            <stop offset=".89" stop-color="#cfcfcf"/>
            <stop offset=".998" stop-color="#ccc"/>
        </radialGradient>
        <radialGradient id="radial-gradient-21" cx=".5" cy="2.328" r="2.514" gradientTransform="matrix(.592 0 0 1 .204 0)" gradientUnits="objectBoundingBox">
            <stop offset=".525" stop-color="#d9d9d9"/>
            <stop offset=".56" stop-color="#d9d9d9"/>
            <stop offset=".89" stop-color="#d9d9d9"/>
            <stop offset=".998" stop-color="#d7d7d7"/>
        </radialGradient>
        <radialGradient id="radial-gradient-22" cx=".5" cy="2.384" r="2.604" gradientTransform="matrix(.586 0 0 1 .207 0)" gradientUnits="objectBoundingBox">
            <stop offset=".525" stop-color="#e0e0e0"/>
            <stop offset=".56" stop-color="#e0e0e0"/>
            <stop offset=".89" stop-color="#e3e3e3"/>
            <stop offset=".998" stop-color="#e1e1e1"/>
        </radialGradient>
        <radialGradient id="radial-gradient-23" cx=".5" cy="2.44" r="2.696" gradientTransform="matrix(.579 0 0 1 .211 0)" gradientUnits="objectBoundingBox">
            <stop offset=".525" stop-color="#e8e8e8"/>
            <stop offset=".56" stop-color="#e8e8e8"/>
            <stop offset=".89" stop-color="#ededed"/>
            <stop offset=".998" stop-color="#ececec"/>
        </radialGradient>
        <radialGradient id="radial-gradient-24" cx=".5" cy="2.497" r="2.79" gradientTransform="matrix(.571 0 0 1 .214 0)" gradientUnits="objectBoundingBox">
            <stop offset=".56" stop-color="#efefef"/>
            <stop offset=".863" stop-color="#f6f6f6"/>
            <stop offset=".89" stop-color="#f7f7f7"/>
        </radialGradient>
        <radialGradient id="radial-gradient-25" cx=".5" cy="1.877" r="1.909" gradientTransform="matrix(.634 0 0 1 .183 0)" gradientUnits="objectBoundingBox">
            <stop offset=".512" stop-color="#fff"/>
            <stop offset=".525" stop-color="#fbfbfb"/>
            <stop offset=".536" stop-color="#f1f1f1"/>
            <stop offset=".543" stop-color="#e7e7e7"/>
            <stop offset=".935" stop-color="#e7e7e7"/>
            <stop offset=".944" stop-color="#dcdcdc"/>
            <stop offset=".958" stop-color="#d2d2d2"/>
            <stop offset=".975" stop-color="#cfcfcf"/>
        </radialGradient>
        <radialGradient id="radial-gradient-26" cx=".5" cy="1.873" r="1.903" gradientTransform="matrix(.634 0 0 1 .183 0)" gradientUnits="objectBoundingBox">
            <stop offset=".485" stop-color="#fff"/>
            <stop offset=".51" stop-color="#fff"/>
            <stop offset=".512" stop-color="#fff"/>
            <stop offset=".526" stop-color="#fbfbfb"/>
            <stop offset=".537" stop-color="#f1f1f1"/>
            <stop offset=".543" stop-color="#e9e9e9"/>
            <stop offset=".545" stop-color="#e9e9e9"/>
            <stop offset=".933" stop-color="#e9e9e9"/>
            <stop offset=".935" stop-color="#e9e9e9"/>
            <stop offset=".943" stop-color="#e0e0e0"/>
            <stop offset=".957" stop-color="#d6d6d6"/>
            <stop offset=".975" stop-color="#d3d3d3"/>
            <stop offset=".993" stop-color="#d3d3d3"/>
        </radialGradient>
        <radialGradient id="radial-gradient-27" cx=".5" cy="1.869" r="1.897" gradientTransform="matrix(.635 0 0 1 .182 0)" gradientUnits="objectBoundingBox">
            <stop offset=".485" stop-color="#fff"/>
            <stop offset=".51" stop-color="#fff"/>
            <stop offset=".512" stop-color="#fff"/>
            <stop offset=".527" stop-color="#fbfbfb"/>
            <stop offset=".538" stop-color="#f1f1f1"/>
            <stop offset=".543" stop-color="#ebebeb"/>
            <stop offset=".545" stop-color="#ebebeb"/>
            <stop offset=".933" stop-color="#ebebeb"/>
            <stop offset=".935" stop-color="#ebebeb"/>
            <stop offset=".941" stop-color="#e4e4e4"/>
            <stop offset=".956" stop-color="#dadada"/>
            <stop offset=".975" stop-color="#d7d7d7"/>
            <stop offset=".993" stop-color="#d7d7d7"/>
        </radialGradient>
        <radialGradient id="radial-gradient-28" cx=".5" cy="1.865" r="1.891" gradientTransform="matrix(.636 0 0 1 .182 0)" gradientUnits="objectBoundingBox">
            <stop offset=".485" stop-color="#fefefe"/>
            <stop offset=".51" stop-color="#fefefe"/>
            <stop offset=".512" stop-color="#fefefe"/>
            <stop offset=".527" stop-color="#fafafa"/>
            <stop offset=".539" stop-color="#f0f0f0"/>
            <stop offset=".543" stop-color="#ededed"/>
            <stop offset=".545" stop-color="#ededed"/>
            <stop offset=".933" stop-color="#ededed"/>
            <stop offset=".935" stop-color="#ededed"/>
            <stop offset=".939" stop-color="#e9e9e9"/>
            <stop offset=".955" stop-color="#dfdfdf"/>
            <stop offset=".975" stop-color="#dcdcdc"/>
            <stop offset=".993" stop-color="#dcdcdc"/>
        </radialGradient>
        <radialGradient id="radial-gradient-29" cx=".5" cy="1.861" r="1.885" gradientTransform="matrix(.637 0 0 1 .182 0)" gradientUnits="objectBoundingBox">
            <stop offset=".485" stop-color="#fefefe"/>
            <stop offset=".51" stop-color="#fefefe"/>
            <stop offset=".512" stop-color="#fefefe"/>
            <stop offset=".528" stop-color="#fafafa"/>
            <stop offset=".541" stop-color="#f0f0f0"/>
            <stop offset=".543" stop-color="#efefef"/>
            <stop offset=".545" stop-color="#efefef"/>
            <stop offset=".933" stop-color="#efefef"/>
            <stop offset=".935" stop-color="#efefef"/>
            <stop offset=".937" stop-color="#ededed"/>
            <stop offset=".954" stop-color="#e3e3e3"/>
            <stop offset=".975" stop-color="#e0e0e0"/>
            <stop offset=".993" stop-color="#e0e0e0"/>
        </radialGradient>
        <radialGradient id="radial-gradient-30" cx=".5" cy="1.856" r="1.879" gradientTransform="matrix(.637 0 0 1 .181 0)" gradientUnits="objectBoundingBox">
            <stop offset=".485" stop-color="#fefefe"/>
            <stop offset=".51" stop-color="#fefefe"/>
            <stop offset=".512" stop-color="#fefefe"/>
            <stop offset=".529" stop-color="#fafafa"/>
            <stop offset=".543" stop-color="#f1f1f1"/>
            <stop offset=".545" stop-color="#f1f1f1"/>
            <stop offset=".933" stop-color="#f1f1f1"/>
            <stop offset=".935" stop-color="#f1f1f1"/>
            <stop offset=".953" stop-color="#e7e7e7"/>
            <stop offset=".975" stop-color="#e4e4e4"/>
            <stop offset=".993" stop-color="#e4e4e4"/>
        </radialGradient>
        <radialGradient id="radial-gradient-31" cx=".5" cy="1.852" r="1.873" gradientTransform="matrix(.638 0 0 1 .181 0)" gradientUnits="objectBoundingBox">
            <stop offset=".485" stop-color="#fefefe"/>
            <stop offset=".51" stop-color="#fefefe"/>
            <stop offset=".512" stop-color="#fefefe"/>
            <stop offset=".53" stop-color="#fafafa"/>
            <stop offset=".543" stop-color="#f3f3f3"/>
            <stop offset=".545" stop-color="#f3f3f3"/>
            <stop offset=".933" stop-color="#f3f3f3"/>
            <stop offset=".935" stop-color="#f3f3f3"/>
            <stop offset=".951" stop-color="#ebebeb"/>
            <stop offset=".975" stop-color="#e8e8e8"/>
            <stop offset=".993" stop-color="#e8e8e8"/>
        </radialGradient>
        <radialGradient id="radial-gradient-32" cx=".5" cy="1.848" r="1.867" gradientTransform="matrix(.639 0 0 1 .181 0)" gradientUnits="objectBoundingBox">
            <stop offset=".485" stop-color="#fefefe"/>
            <stop offset=".51" stop-color="#fefefe"/>
            <stop offset=".512" stop-color="#fefefe"/>
            <stop offset=".532" stop-color="#fafafa"/>
            <stop offset=".543" stop-color="#f5f5f5"/>
            <stop offset=".545" stop-color="#f5f5f5"/>
            <stop offset=".933" stop-color="#f5f5f5"/>
            <stop offset=".935" stop-color="#f5f5f5"/>
            <stop offset=".949" stop-color="#efefef"/>
            <stop offset=".975" stop-color="#ececec"/>
            <stop offset=".993" stop-color="#ececec"/>
        </radialGradient>
        <radialGradient id="radial-gradient-33" cx=".5" cy="1.844" r="1.861" gradientTransform="matrix(.639 0 0 1 .18 0)" gradientUnits="objectBoundingBox">
            <stop offset=".485" stop-color="#fefefe"/>
            <stop offset=".51" stop-color="#fefefe"/>
            <stop offset=".512" stop-color="#fefefe"/>
            <stop offset=".534" stop-color="#fafafa"/>
            <stop offset=".543" stop-color="#f7f7f7"/>
            <stop offset=".545" stop-color="#f7f7f7"/>
            <stop offset=".933" stop-color="#f7f7f7"/>
            <stop offset=".935" stop-color="#f7f7f7"/>
            <stop offset=".946" stop-color="#f3f3f3"/>
            <stop offset=".975" stop-color="#f0f0f0"/>
            <stop offset=".993" stop-color="#f0f0f0"/>
        </radialGradient>
        <radialGradient id="radial-gradient-34" cx=".5" cy="1.84" r="1.856" gradientTransform="matrix(.64 0 0 1 .18 0)" gradientUnits="objectBoundingBox">
            <stop offset=".485" stop-color="#fdfdfd"/>
            <stop offset=".51" stop-color="#fdfdfd"/>
            <stop offset=".512" stop-color="#fdfdfd"/>
            <stop offset=".54" stop-color="#f9f9f9"/>
            <stop offset=".543" stop-color="#f9f9f9"/>
            <stop offset=".545" stop-color="#f9f9f9"/>
            <stop offset=".933" stop-color="#f9f9f9"/>
            <stop offset=".935" stop-color="#f9f9f9"/>
            <stop offset=".939" stop-color="#f8f8f8"/>
            <stop offset=".975" stop-color="#f5f5f5"/>
            <stop offset=".993" stop-color="#f5f5f5"/>
        </radialGradient>
        <radialGradient id="radial-gradient-35" cx=".5" cy="1.836" r="1.85" gradientTransform="matrix(.641 0 0 1 .18 0)" gradientUnits="objectBoundingBox">
            <stop offset=".485" stop-color="#fdfdfd"/>
            <stop offset=".51" stop-color="#fdfdfd"/>
            <stop offset=".512" stop-color="#fdfdfd"/>
            <stop offset=".543" stop-color="#fbfbfb"/>
            <stop offset=".545" stop-color="#fbfbfb"/>
            <stop offset=".933" stop-color="#fbfbfb"/>
            <stop offset=".935" stop-color="#fbfbfb"/>
            <stop offset=".975" stop-color="#f9f9f9"/>
            <stop offset=".993" stop-color="#f9f9f9"/>
        </radialGradient>
        <radialGradient id="radial-gradient-36" cx=".5" cy="1.832" r="1.844" gradientTransform="matrix(.641 0 0 1 .179 0)" gradientUnits="objectBoundingBox">
            <stop offset=".485" stop-color="#fdfdfd"/>
            <stop offset=".54" stop-color="#fdfdfd"/>
            <stop offset=".545" stop-color="#fdfdfd"/>
            <stop offset=".933" stop-color="#fdfdfd"/>
            <stop offset=".938" stop-color="#fdfdfd"/>
            <stop offset=".993" stop-color="#fdfdfd"/>
        </radialGradient>
        <radialGradient id="radial-gradient-37" cx=".498" cy="3.016" r="2.951" gradientTransform="matrix(.407 0 0 1 .297 0)" gradientUnits="objectBoundingBox">
            <stop offset=".75" stop-color="#fff"/>
            <stop offset="1" stop-color="#404040"/>
        </radialGradient>
        <style>
            .diet-16{fill:#202020}.diet-17{fill:#fff}
        </style>
    </defs>
    <g id="diet_01" transform="translate(-202)">
        <path id="사각형_601" fill="none" d="M0 0H96V96H0z" transform="translate(202)"/>
        <g id="그룹_1996" transform="translate(-9.029 -201.129)">
            <path id="패스_813" fill="#95de00" d="M295.819 234.44a89.669 89.669 0 0 0-70.052 0 4.289 4.289 0 0 0-2.141 5.784l15.015 32.2a4.574 4.574 0 0 0 5.851 2.186 45.292 45.292 0 0 1 32.6 0 4.574 4.574 0 0 0 5.851-2.186l15.015-32.2a4.29 4.29 0 0 0-2.139-5.784z" transform="translate(-1.827 -1.83)"/>
            <path id="패스_814" d="M296.134 238.792l-15.015 32.2a4.573 4.573 0 0 1-5.851 2.185 45.292 45.292 0 0 0-32.6 0 4.573 4.573 0 0 1-5.851-2.185l-15.015-32.2a4.29 4.29 0 0 1 2.141-5.785 89.674 89.674 0 0 1 70.052 0 4.29 4.29 0 0 1 2.139 5.785zm1.4-3.891a5.576 5.576 0 0 0-3.049-3.162 91.039 91.039 0 0 0-71.018 0 5.586 5.586 0 0 0-3.067 3.161 5.723 5.723 0 0 0 .158 4.45l15.011 32.191a5.861 5.861 0 0 0 5.307 3.348 5.983 5.983 0 0 0 2.176-.409 43.951 43.951 0 0 1 31.816 0 5.984 5.984 0 0 0 2.179.41 5.861 5.861 0 0 0 5.308-3.347l15.01-32.19a5.732 5.732 0 0 0 .164-4.453z" transform="translate(0 -.229)" style="isolation:isolate;mix-blend-mode:multiply" fill="#efefef"/>
            <g id="그룹_628" transform="translate(220.03 224.129)">
                <path id="패스_815" fill="url(#radial-gradient)" d="M296.134 238.394l-15.015 32.2a4.574 4.574 0 0 1-5.851 2.186 45.292 45.292 0 0 0-32.6 0 4.574 4.574 0 0 1-5.851-2.186l-15.015-32.2a4.289 4.289 0 0 1 2.141-5.784 89.669 89.669 0 0 1 70.052 0 4.29 4.29 0 0 1 2.139 5.784zm1.4-3.892a5.577 5.577 0 0 0-3.049-3.162 91.047 91.047 0 0 0-71.018 0 5.586 5.586 0 0 0-3.067 3.16 5.724 5.724 0 0 0 .158 4.45l15.011 32.191a5.861 5.861 0 0 0 5.307 3.348 5.974 5.974 0 0 0 2.176-.41 43.948 43.948 0 0 1 31.816 0 5.993 5.993 0 0 0 2.179.41 5.861 5.861 0 0 0 5.308-3.347l15.01-32.19a5.732 5.732 0 0 0 .164-4.452z" transform="translate(-220.03 -224.129)"/>
                <path id="패스_816" fill="url(#radial-gradient-2)" d="M296.2 238.461l-15.015 32.2a4.574 4.574 0 0 1-5.851 2.186 45.292 45.292 0 0 0-32.6 0 4.574 4.574 0 0 1-5.851-2.186l-15.015-32.2a4.289 4.289 0 0 1 2.141-5.784 89.669 89.669 0 0 1 70.052 0 4.29 4.29 0 0 1 2.139 5.784zm1.35-3.874a5.528 5.528 0 0 0-3.023-3.135 91 91 0 0 0-70.979 0 5.539 5.539 0 0 0-3.03 3.141 5.674 5.674 0 0 0 .157 4.411l15.011 32.191a5.8 5.8 0 0 0 5.241 3.316 5.868 5.868 0 0 0 2.179-.4 44 44 0 0 1 31.852 0 5.875 5.875 0 0 0 2.182.4 5.8 5.8 0 0 0 5.242-3.315L297.392 239a5.685 5.685 0 0 0 .158-4.413z" transform="translate(-220.096 -224.196)"/>
                <path id="패스_817" fill="url(#radial-gradient-3)" d="M296.266 238.527l-15.015 32.2a4.574 4.574 0 0 1-5.851 2.186 45.292 45.292 0 0 0-32.6 0 4.574 4.574 0 0 1-5.851-2.186l-15.015-32.2a4.289 4.289 0 0 1 2.141-5.784 89.669 89.669 0 0 1 70.052 0 4.29 4.29 0 0 1 2.139 5.784zm1.3-3.856a5.479 5.479 0 0 0-3-3.107 90.94 90.94 0 0 0-70.94 0 5.486 5.486 0 0 0-3 3.113 5.623 5.623 0 0 0 .155 4.372l15.011 32.19a5.835 5.835 0 0 0 7.358 2.889 44.049 44.049 0 0 1 31.888 0 5.836 5.836 0 0 0 7.361-2.887l15.01-32.19a5.634 5.634 0 0 0 .161-4.38z" transform="translate(-220.162 -224.262)"/>
                <path id="패스_818" fill="url(#radial-gradient-4)" d="M296.333 238.594l-15.015 32.2a4.574 4.574 0 0 1-5.851 2.186 45.292 45.292 0 0 0-32.6 0 4.574 4.574 0 0 1-5.851-2.186L222 238.594a4.289 4.289 0 0 1 2.141-5.784 89.669 89.669 0 0 1 70.052 0 4.29 4.29 0 0 1 2.14 5.784zm1.258-3.838a5.429 5.429 0 0 0-2.97-3.08 90.9 90.9 0 0 0-70.9 0 5.443 5.443 0 0 0-2.977 3.086 5.573 5.573 0 0 0 .155 4.333l15.011 32.191a5.8 5.8 0 0 0 7.3 2.863 44.1 44.1 0 0 1 31.924 0 5.8 5.8 0 0 0 7.3-2.862l15.01-32.19a5.583 5.583 0 0 0 .147-4.34z" transform="translate(-220.229 -224.329)"/>
                <path id="패스_819" fill="url(#radial-gradient-5)" d="M296.4 238.661l-15.015 32.2a4.574 4.574 0 0 1-5.851 2.186 45.293 45.293 0 0 0-32.6 0 4.574 4.574 0 0 1-5.851-2.186l-15.015-32.2a4.289 4.289 0 0 1 2.141-5.784 89.669 89.669 0 0 1 70.052 0 4.29 4.29 0 0 1 2.139 5.784zm1.212-3.819a5.379 5.379 0 0 0-2.943-3.053 90.853 90.853 0 0 0-70.864 0 5.4 5.4 0 0 0-2.95 3.059 5.525 5.525 0 0 0 .153 4.294l15.011 32.191a5.76 5.76 0 0 0 7.233 2.838 44.152 44.152 0 0 1 31.959 0 5.762 5.762 0 0 0 7.236-2.836l15.01-32.19a5.531 5.531 0 0 0 .155-4.303z" transform="translate(-220.296 -224.395)"/>
                <path id="패스_820" fill="url(#radial-gradient-6)" d="M296.467 238.727l-15.015 32.2a4.574 4.574 0 0 1-5.851 2.186 45.292 45.292 0 0 0-32.6 0 4.574 4.574 0 0 1-5.851-2.186l-15.015-32.2a4.289 4.289 0 0 1 2.141-5.784 89.669 89.669 0 0 1 70.052 0 4.29 4.29 0 0 1 2.139 5.784zm1.166-3.8a5.331 5.331 0 0 0-2.916-3.026 90.8 90.8 0 0 0-70.825 0 5.345 5.345 0 0 0-2.924 3.031 5.478 5.478 0 0 0 .152 4.255l15.011 32.191a5.571 5.571 0 0 0 4.979 3.187 5.515 5.515 0 0 0 2.191-.373 44.194 44.194 0 0 1 32 0 5.515 5.515 0 0 0 2.194.374 5.572 5.572 0 0 0 4.98-3.186l15.01-32.19a5.481 5.481 0 0 0 .147-4.264z" transform="translate(-220.363 -224.462)"/>
                <path id="패스_821" fill="url(#radial-gradient-7)" d="M296.533 238.794l-15.015 32.2a4.574 4.574 0 0 1-5.851 2.186 45.292 45.292 0 0 0-32.6 0 4.574 4.574 0 0 1-5.851-2.186l-15.015-32.2a4.289 4.289 0 0 1 2.141-5.784 89.669 89.669 0 0 1 70.052 0 4.29 4.29 0 0 1 2.139 5.784zm1.12-3.783a5.283 5.283 0 0 0-2.89-3 90.746 90.746 0 0 0-70.786 0 5.292 5.292 0 0 0-2.9 3 5.422 5.422 0 0 0 .15 4.216l15.011 32.191a5.514 5.514 0 0 0 4.913 3.154 5.419 5.419 0 0 0 2.194-.366 44.251 44.251 0 0 1 32.032 0 5.427 5.427 0 0 0 2.2.367 5.515 5.515 0 0 0 4.914-3.154l15.01-32.19a5.429 5.429 0 0 0 .152-4.219z" transform="translate(-220.429 -224.528)"/>
                <path id="패스_822" fill="url(#radial-gradient-8)" d="M296.6 238.86l-15.015 32.2a4.574 4.574 0 0 1-5.851 2.186 45.292 45.292 0 0 0-32.6 0 4.574 4.574 0 0 1-5.851-2.186l-15.015-32.2a4.289 4.289 0 0 1 2.141-5.784 89.669 89.669 0 0 1 70.052 0 4.29 4.29 0 0 1 2.139 5.784zm1.074-3.765a5.233 5.233 0 0 0-2.863-2.971 90.694 90.694 0 0 0-70.748 0 5.243 5.243 0 0 0-2.871 2.976 5.376 5.376 0 0 0 .149 4.178l15.011 32.19a5.456 5.456 0 0 0 4.848 3.122 5.355 5.355 0 0 0 2.2-.359 44.294 44.294 0 0 1 32.067 0 5.368 5.368 0 0 0 2.2.36 5.459 5.459 0 0 0 4.849-3.121l15.01-32.19a5.383 5.383 0 0 0 .147-4.18z" transform="translate(-220.495 -224.595)"/>
                <path id="패스_823" fill="url(#radial-gradient-9)" d="M296.666 238.927l-15.015 32.2a4.574 4.574 0 0 1-5.851 2.186 45.293 45.293 0 0 0-32.6 0 4.574 4.574 0 0 1-5.851-2.186l-15.015-32.2a4.289 4.289 0 0 1 2.141-5.784 89.669 89.669 0 0 1 70.052 0 4.29 4.29 0 0 1 2.139 5.784zm1.028-3.746a5.183 5.183 0 0 0-2.836-2.944 90.652 90.652 0 0 0-70.709 0 5.2 5.2 0 0 0-2.844 2.949 5.327 5.327 0 0 0 .148 4.139l15.011 32.19a5.4 5.4 0 0 0 4.782 3.089 5.265 5.265 0 0 0 2.2-.352 44.347 44.347 0 0 1 32.1 0 5.277 5.277 0 0 0 2.2.353 5.4 5.4 0 0 0 4.783-3.089l15.011-32.19a5.334 5.334 0 0 0 .154-4.145z" transform="translate(-220.562 -224.662)"/>
                <path id="패스_824" fill="url(#radial-gradient-10)" d="M296.732 238.994l-15.015 32.2a4.574 4.574 0 0 1-5.851 2.186 45.292 45.292 0 0 0-32.6 0 4.574 4.574 0 0 1-5.851-2.186l-15.015-32.2a4.289 4.289 0 0 1 2.141-5.784 89.669 89.669 0 0 1 70.052 0 4.29 4.29 0 0 1 2.139 5.784zm.982-3.728a5.139 5.139 0 0 0-2.81-2.917 90.6 90.6 0 0 0-70.67 0 5.148 5.148 0 0 0-2.817 2.921 5.277 5.277 0 0 0 .147 4.1l15.011 32.191a5.343 5.343 0 0 0 4.717 3.057 5.188 5.188 0 0 0 2.2-.344 44.39 44.39 0 0 1 32.139 0 5.194 5.194 0 0 0 2.205.346 5.343 5.343 0 0 0 4.717-3.057l15.01-32.19a5.283 5.283 0 0 0 .152-4.107z" transform="translate(-220.628 -224.728)"/>
                <path id="패스_825" fill="url(#radial-gradient-11)" d="M296.8 239.06l-15.015 32.2a4.574 4.574 0 0 1-5.851 2.186 45.292 45.292 0 0 0-32.6 0 4.574 4.574 0 0 1-5.851-2.186l-15.015-32.2a4.289 4.289 0 0 1 2.141-5.784 89.669 89.669 0 0 1 70.052 0 4.29 4.29 0 0 1 2.139 5.784zm.936-3.71a5.086 5.086 0 0 0-2.783-2.889 90.545 90.545 0 0 0-70.631 0 5.1 5.1 0 0 0-2.791 2.894 5.225 5.225 0 0 0 .146 4.06l15.009 32.185a5.285 5.285 0 0 0 4.651 3.025 5.122 5.122 0 0 0 2.206-.337 44.445 44.445 0 0 1 32.174 0 5.123 5.123 0 0 0 2.208.339 5.287 5.287 0 0 0 4.652-3.024l15.01-32.19a5.23 5.23 0 0 0 .148-4.063z" transform="translate(-220.695 -224.794)"/>
                <path id="패스_826" fill="url(#radial-gradient-12)" d="M296.865 239.127l-15.015 32.2a4.574 4.574 0 0 1-5.85 2.185 45.293 45.293 0 0 0-32.6 0 4.574 4.574 0 0 1-5.851-2.186l-15.015-32.2a4.289 4.289 0 0 1 2.141-5.784 89.669 89.669 0 0 1 70.052 0 4.29 4.29 0 0 1 2.138 5.785zm.89-3.692a5.038 5.038 0 0 0-2.755-2.862 90.5 90.5 0 0 0-70.593 0 5.051 5.051 0 0 0-2.764 2.867 5.176 5.176 0 0 0 .144 4.022l15.013 32.186a5.229 5.229 0 0 0 4.586 2.992 5.052 5.052 0 0 0 2.209-.33 44.493 44.493 0 0 1 32.21 0 5.057 5.057 0 0 0 2.211.331 5.229 5.229 0 0 0 4.586-2.992l15.01-32.19a5.18 5.18 0 0 0 .144-4.024z" transform="translate(-220.761 -224.861)"/>
            </g>
            <g id="그룹_629" transform="translate(223.471 229.578)">
                <path id="사각형_151" d="M0 0H11.883V0.604H0z" class="diet-16" transform="rotate(-75.59 35.803 -27.414)"/>
                <path id="사각형_152" d="M0 0H8.912V0.604H0z" class="diet-16" transform="rotate(-82.798 27.749 -20.667)"/>
                <path id="사각형_153" d="M0 0H0.604V8.912H0z" class="diet-16" transform="rotate(-7.2 17.719 -194.38)"/>
                <path id="사각형_154" d="M0 0H0.603V8.912H0z" class="diet-16" transform="rotate(-21.57 17.845 -6.94)"/>
                <path id="사각형_155" d="M0 0H8.911V0.603H0z" class="diet-16" transform="rotate(-68.399 42.08 -39.535)"/>
                <path id="사각형_156" d="M0 0H0.302V5.942H0z" class="diet-16" transform="rotate(-1.444 16.917 -1317.253)"/>
                <path id="사각형_157" d="M0 0H0.302V5.941H0z" class="diet-16" transform="matrix(.999 -.05 .05 .999 31.058 .092)"/>
                <path id="사각형_158" d="M0 0H0.302V5.941H0z" class="diet-16" transform="rotate(-4.323 17.519 -382.96)"/>
                <path id="사각형_159" d="M0 0H0.302V5.941H0z" class="diet-16" transform="rotate(-5.76 17.595 -265.96)"/>
                <path id="사각형_160" d="M0 0H0.302V5.941H0z" class="diet-16" transform="rotate(-8.643 17.669 -148.574)"/>
                <path id="사각형_161" d="M0 0H0.302V5.941H0z" class="diet-16" transform="rotate(-10.082 17.694 -115.041)"/>
                <path id="패스_827" d="M271.1 240.9l1.186 5.821.3-.06-1.186-5.822z" class="diet-16" transform="translate(-252.793 -239.172)"/>
                <path id="사각형_162" d="M0 0H0.302V5.941H0z" class="diet-16" transform="rotate(-12.964 17.721 -70.248)"/>
                <path id="사각형_163" d="M0 0H0.302V5.941H0z" class="diet-16" transform="rotate(-15.842 17.741 -41.706)"/>
                <path id="사각형_164" d="M0 0H0.302V5.941H0z" class="diet-16" transform="rotate(-17.25 17.74 -30.999)"/>
                <path id="사각형_165" d="M0 0H0.302V5.941H0z" class="diet-16" transform="rotate(-18.719 17.756 -21.898)"/>
                <path id="사각형_166" d="M0 0H0.302V5.941H0z" class="diet-16" transform="rotate(-20.165 17.755 -14.089)"/>
                <path id="사각형_167" d="M0 0H0.302V5.941H0z" class="diet-16" transform="rotate(-23.044 17.764 -1.386)"/>
                <path id="사각형_168" d="M0 0H0.302V5.941H0z" class="diet-16" transform="rotate(-24.473 17.778 3.855)"/>
                <path id="사각형_169" d="M0 0H5.942V0.302H0z" class="diet-16" transform="rotate(-65.525 44.223 -46.536)"/>
                <path id="사각형_170" d="M0 0H5.942V0.302H0z" class="diet-16" transform="rotate(-66.97 42.444 -44.125)"/>
                <path id="사각형_171" d="M0 0H5.94V0.302H0z" class="diet-16" transform="rotate(-69.836 39.042 -39.555)"/>
                <path id="사각형_172" d="M0 0H5.942V0.302H0z" class="diet-16" transform="rotate(-71.271 37.44 -37.394)"/>
                <path id="사각형_173" d="M0 0H5.942V0.302H0z" class="diet-16" transform="rotate(-72.728 35.889 -35.292)"/>
                <path id="사각형_174" d="M0 0H5.942V0.302H0z" class="diet-16" transform="rotate(-74.169 34.392 -33.272)"/>
                <path id="사각형_175" d="M0 0H5.94V0.302H0z" class="diet-16" transform="rotate(-77.06 31.529 -29.41)"/>
                <path id="사각형_176" d="M0 0H5.942V0.302H0z" class="diet-16" transform="rotate(-78.394 30.189 -27.648)"/>
                <path id="패스_828" d="M343.748 245.751l.3.052 1.04-5.85-.3-.053z" class="diet-16" transform="translate(-294.505 -238.634)"/>
                <path id="사각형_177" d="M0 0H5.942V0.302H0z" class="diet-16" transform="rotate(-81.36 27.59 -24.1)"/>
                <path id="사각형_178" d="M0 0H5.94V0.302H0z" class="diet-16" transform="rotate(-84.226 25.143 -20.805)"/>
                <path id="사각형_179" d="M0 0H5.942V0.302H0z" class="diet-16" transform="rotate(-85.58 23.973 -19.251)"/>
                <path id="사각형_180" d="M0 0H5.943V0.302H0z" class="diet-16" transform="rotate(-87.154 22.827 -17.664)"/>
                <path id="사각형_181" d="M0 0H5.942V0.302H0z" class="diet-16" transform="rotate(-88.576 21.715 -16.17)"/>
                <path id="사각형_182" d="M0 0H0.604V11.883H0z" class="diet-16" transform="rotate(-14.399 17.81 -53.98)"/>
            </g>
            <g id="그룹_630" transform="translate(241.52 246.293)">
                <path id="패스_829" d="M274.061 276.951c3.43 0 4.9 1.453 4.9 6.7 0 5.231-1.473 6.8-4.9 6.8h-3.43a.157.157 0 0 1-.135-.174v-13.151a.157.157 0 0 1 .135-.175zm-1.337 11.394h1.318c2.228 0 2.461-.659 2.461-4.67 0-4.166-.232-4.611-2.461-4.611h-1.318z" class="diet-17" transform="translate(-270.496 -276.622)"/>
                <path id="패스_830" d="M296.893 290.282c0 .1-.057.174-.135.174H294.8a.157.157 0 0 1-.135-.174v-13.156a.157.157 0 0 1 .135-.175h1.957c.078 0 .135.078.135.175z" class="diet-17" transform="translate(-284.373 -276.622)"/>
                <path id="패스_831" d="M305.152 290.456c-.078 0-.135-.077-.135-.174v-13.156c0-.1.057-.175.135-.175h6.685a.171.171 0 0 1 .155.175v1.744a.17.17 0 0 1-.155.174h-4.592v3.356h3.585a.17.17 0 0 1 .155.174v1.725a.17.17 0 0 1-.155.174h-3.585v3.895h4.592a.171.171 0 0 1 .155.175v1.744a.17.17 0 0 1-.155.174z" class="diet-17" transform="translate(-290.317 -276.622)"/>
                <path id="패스_832" d="M332.043 277.126v1.88a.157.157 0 0 1-.135.175h-3.062v11.1a.157.157 0 0 1-.135.174h-1.957c-.078 0-.135-.077-.135-.174v-11.1h-3.062a.157.157 0 0 1-.135-.175v-1.88a.157.157 0 0 1 .135-.175h8.352a.157.157 0 0 1 .134.175z" class="diet-17" transform="translate(-300.884 -276.622)"/>
                <path id="패스_833" d="M349.065 288.772c0 1.24-.232 1.453-1.26 1.453-1.007 0-1.24-.213-1.24-1.453 0-1.143.233-1.318 1.24-1.318 1.028.001 1.26.176 1.26 1.318zm-.329-3.042a.157.157 0 0 1-.135.174h-1.55c-.078 0-.135-.077-.135-.174l-.232-9.378c0-.1.058-.175.135-.175h2a.171.171 0 0 1 .155.175z" class="diet-17" transform="translate(-314.172 -276.178)"/>
            </g>
            <path id="패스_834" fill="#ff2000" d="M310.45 226.61a.754.754 0 0 0-.755.755v15.5a.754.754 0 1 0 1.509 0v-15.5a.754.754 0 0 0-.754-.755z" transform="translate(-51.483 -1.425)"/>
            <path id="사각형_183" fill="#585858" d="M0 0H0.604V11.883H0z" transform="translate(258.665 229.556)" style="isolation:isolate;mix-blend-mode:multiply"/>
            <g id="그룹_631" transform="translate(221.384 225.486)" style="isolation:isolate;mix-blend-mode:multiply">
                <path id="패스_835" fill="url(#radial-gradient-13)" d="M295.819 234.44a89.669 89.669 0 0 0-70.052 0 4.289 4.289 0 0 0-2.141 5.784l15.015 32.2a4.574 4.574 0 0 0 5.851 2.186 45.292 45.292 0 0 1 32.6 0 4.574 4.574 0 0 0 5.851-2.186l15.015-32.2a4.29 4.29 0 0 0-2.139-5.784z" transform="translate(-223.211 -227.316)"/>
                <path id="패스_836" fill="url(#radial-gradient-14)" d="M227.662 236.5a3.9 3.9 0 0 0-1.946 5.258l14.777 31.689a4.158 4.158 0 0 0 5.32 1.987 45.6 45.6 0 0 1 32.4 0 4.158 4.158 0 0 0 5.32-1.987l14.777-31.689a3.9 3.9 0 0 0-1.947-5.258 88.628 88.628 0 0 0-68.7 0z" transform="translate(-224.433 -228.611)"/>
                <path id="패스_837" fill="url(#radial-gradient-15)" d="M229.557 238.558a3.509 3.509 0 0 0-1.751 4.733l14.538 31.178a3.743 3.743 0 0 0 4.788 1.788 45.922 45.922 0 0 1 32.209 0 3.742 3.742 0 0 0 4.787-1.788l14.539-31.178a3.51 3.51 0 0 0-1.752-4.733 87.606 87.606 0 0 0-67.358 0z" transform="translate(-225.654 -229.906)"/>
                <path id="패스_838" fill="url(#radial-gradient-16)" d="M231.452 240.618a3.119 3.119 0 0 0-1.557 4.207l14.3 30.667a3.327 3.327 0 0 0 4.256 1.59 46.256 46.256 0 0 1 32.013 0 3.327 3.327 0 0 0 4.255-1.59l14.3-30.667a3.12 3.12 0 0 0-1.557-4.207 86.592 86.592 0 0 0-66.011 0z" transform="translate(-226.875 -231.2)"/>
                <path id="패스_839" fill="url(#radial-gradient-17)" d="M233.347 242.678a2.729 2.729 0 0 0-1.362 3.68l14.062 30.157a2.911 2.911 0 0 0 3.723 1.391 46.615 46.615 0 0 1 31.817 0 2.91 2.91 0 0 0 3.724-1.391l14.063-30.156a2.73 2.73 0 0 0-1.362-3.681 85.593 85.593 0 0 0-64.664 0z" transform="translate(-228.097 -232.495)"/>
                <path id="패스_840" fill="url(#radial-gradient-18)" d="M235.241 244.737a2.339 2.339 0 0 0-1.168 3.155l13.827 29.646a2.5 2.5 0 0 0 3.192 1.192 46.994 46.994 0 0 1 31.621 0 2.5 2.5 0 0 0 3.192-1.192l13.825-29.646a2.34 2.34 0 0 0-1.169-3.155 84.615 84.615 0 0 0-63.317 0z" transform="translate(-229.318 -233.79)"/>
                <path id="패스_841" fill="url(#radial-gradient-19)" d="M237.136 246.8a1.95 1.95 0 0 0-.973 2.63l13.585 29.135a2.079 2.079 0 0 0 2.66.993 47.4 47.4 0 0 1 31.425 0 2.079 2.079 0 0 0 2.66-.993l13.586-29.135a1.951 1.951 0 0 0-.973-2.63 83.651 83.651 0 0 0-61.97 0z" transform="translate(-230.539 -235.084)"/>
                <path id="패스_842" fill="url(#radial-gradient-20)" d="M239.031 248.855a1.56 1.56 0 0 0-.778 2.1l13.347 28.628a1.663 1.663 0 0 0 2.128.8 47.821 47.821 0 0 1 31.229 0 1.663 1.663 0 0 0 2.128-.8l13.348-28.624a1.56 1.56 0 0 0-.779-2.1 82.706 82.706 0 0 0-60.623 0z" transform="translate(-231.761 -236.379)"/>
                <path id="패스_843" fill="url(#radial-gradient-21)" d="M240.926 250.914a1.169 1.169 0 0 0-.584 1.577l13.109 28.114a1.247 1.247 0 0 0 1.6.6 48.279 48.279 0 0 1 31.033 0 1.247 1.247 0 0 0 1.6-.6l13.11-28.114a1.17 1.17 0 0 0-.584-1.577 81.779 81.779 0 0 0-59.276 0z" transform="translate(-232.982 -237.673)"/>
                <path id="패스_844" fill="url(#radial-gradient-22)" d="M242.821 252.973a.78.78 0 0 0-.389 1.051l12.872 27.6a.831.831 0 0 0 1.064.4 48.739 48.739 0 0 1 30.837 0 .832.832 0 0 0 1.064-.4l12.871-27.6a.779.779 0 0 0-.389-1.052 80.88 80.88 0 0 0-57.929 0z" transform="translate(-234.204 -238.968)"/>
                <path id="패스_845" fill="url(#radial-gradient-23)" d="M244.715 255.032a.39.39 0 0 0-.195.526l12.633 27.092a.416.416 0 0 0 .532.2 49.253 49.253 0 0 1 30.641 0 .415.415 0 0 0 .532-.2l12.634-27.092a.39.39 0 0 0-.195-.526 80.016 80.016 0 0 0-56.582 0z" transform="translate(-235.425 -240.262)"/>
                <path id="패스_846" fill="url(#radial-gradient-24)" d="M246.61 257.092l12.4 26.581a49.778 49.778 0 0 1 30.445 0l12.4-26.581a79.176 79.176 0 0 0-55.235 0z" transform="translate(-236.646 -241.557)"/>
            </g>
            <g id="그룹_632" transform="translate(220.572 224.672)">
                <path id="패스_847" fill="url(#radial-gradient-25)" d="M296.735 239.637l-15.01 32.191a3.056 3.056 0 0 1-1.7 1.57 3.262 3.262 0 0 1-2.338-.016 46.666 46.666 0 0 0-33.787 0 3.256 3.256 0 0 1-2.337.015 3.059 3.059 0 0 1-1.7-1.57l-15.011-32.191a2.975 2.975 0 0 1-.091-2.308 2.9 2.9 0 0 1 1.59-1.662 88.33 88.33 0 0 1 68.895 0 2.892 2.892 0 0 1 1.585 1.661 2.981 2.981 0 0 1-.096 2.31zm-.916-5.2a89.669 89.669 0 0 0-70.052 0 4.289 4.289 0 0 0-2.141 5.784l15.015 32.2a4.574 4.574 0 0 0 5.851 2.186 45.292 45.292 0 0 1 32.6 0 4.574 4.574 0 0 0 5.851-2.186l15.015-32.2a4.29 4.29 0 0 0-2.139-5.781z" transform="translate(-222.399 -226.502)"/>
                <path id="패스_848" fill="url(#radial-gradient-26)" d="M296.688 239.559l-15.01 32.191a3.083 3.083 0 0 1-1.768 1.6 3.287 3.287 0 0 1-2.335-.023 46.62 46.62 0 0 0-33.752 0 3.282 3.282 0 0 1-2.334.023 3.084 3.084 0 0 1-1.766-1.6l-15.011-32.191a3.026 3.026 0 0 1-.093-2.347 2.957 2.957 0 0 1 1.618-1.69 88.38 88.38 0 0 1 68.933 0 2.938 2.938 0 0 1 1.612 1.688 3.03 3.03 0 0 1-.094 2.349zm-71.037-5.288a4.263 4.263 0 0 0-2.472 2.922 4.442 4.442 0 0 0 .255 2.868c.008.032.427.941.441.971l14.606 31.322a4.539 4.539 0 0 0 4.568 2.539 4.908 4.908 0 0 0 1.3-.287l.777-.287a45.223 45.223 0 0 1 31.159 0l.778.287a4.9 4.9 0 0 0 1.3.287 4.538 4.538 0 0 0 4.567-2.539l14.591-31.29c.014-.032.449-.972.456-1.006a4.442 4.442 0 0 0 .254-2.865 4.261 4.261 0 0 0-2.471-2.922 89.747 89.747 0 0 0-70.1 0z" transform="translate(-222.307 -226.402)"/>
                <path id="패스_849" fill="url(#radial-gradient-27)" d="M296.639 239.48l-15.01 32.19a3.112 3.112 0 0 1-1.833 1.636 3.307 3.307 0 0 1-2.332-.031 46.569 46.569 0 0 0-33.716 0 3.3 3.3 0 0 1-2.331.03 3.112 3.112 0 0 1-1.831-1.636l-15.011-32.19a3.076 3.076 0 0 1-.094-2.386 3.005 3.005 0 0 1 1.644-1.717 88.432 88.432 0 0 1 68.972 0 2.992 2.992 0 0 1 1.639 1.716 3.081 3.081 0 0 1-.097 2.388zm-71.105-5.38a4.334 4.334 0 0 0-2.5 2.916 4.5 4.5 0 0 0 .208 2.879c.014.065.4.918.432.979l14.647 31.41a4.6 4.6 0 0 0 4.569 2.584 4.9 4.9 0 0 0 1.306-.268q.39-.137.781-.282a45.144 45.144 0 0 1 31.264 0q.391.145.781.282a4.9 4.9 0 0 0 1.306.268 4.6 4.6 0 0 0 4.569-2.584l14.631-31.384c.029-.063.433-.946.448-1.013a4.5 4.5 0 0 0 .207-2.873 4.332 4.332 0 0 0-2.5-2.916 89.821 89.821 0 0 0-70.15 0z" transform="translate(-222.213 -226.303)"/>
                <path id="패스_850" fill="url(#radial-gradient-28)" d="M296.589 239.4l-15.01 32.191a3.143 3.143 0 0 1-1.9 1.668 3.333 3.333 0 0 1-2.329-.038 46.52 46.52 0 0 0-33.68 0 3.329 3.329 0 0 1-2.328.037 3.145 3.145 0 0 1-1.9-1.668l-15.006-32.19a3.128 3.128 0 0 1-.1-2.425 3.054 3.054 0 0 1 1.671-1.745 88.481 88.481 0 0 1 69.011 0 3.039 3.039 0 0 1 1.665 1.743 3.129 3.129 0 0 1-.094 2.427zm-71.175-5.471a4.408 4.408 0 0 0-2.53 2.911 4.559 4.559 0 0 0 .161 2.889c.022.1.382.894.424.986l14.687 31.5a4.666 4.666 0 0 0 4.571 2.63 4.918 4.918 0 0 0 1.315-.248q.392-.132.785-.278a45.052 45.052 0 0 1 31.369 0q.392.146.786.278a4.916 4.916 0 0 0 1.315.248 4.667 4.667 0 0 0 4.571-2.63l14.675-31.47c.044-.095.416-.919.438-1.02a4.547 4.547 0 0 0 .16-2.881 4.4 4.4 0 0 0-2.528-2.91 89.9 89.9 0 0 0-70.2 0z" transform="translate(-222.118 -226.203)"/>
                <path id="패스_851" fill="url(#radial-gradient-29)" d="M296.537 239.322l-15.01 32.191a3.182 3.182 0 0 1-1.964 1.7 3.358 3.358 0 0 1-2.326-.045 46.469 46.469 0 0 0-33.644 0 3.355 3.355 0 0 1-2.325.044 3.18 3.18 0 0 1-1.962-1.7l-15.011-32.191a3.174 3.174 0 0 1-.1-2.464 3.1 3.1 0 0 1 1.7-1.772 88.527 88.527 0 0 1 69.049 0 3.086 3.086 0 0 1 1.692 1.77 3.181 3.181 0 0 1-.099 2.467zm-71.244-5.562a4.481 4.481 0 0 0-2.559 2.905 4.618 4.618 0 0 0 .115 2.9c.029.13.359.87.416.993l14.727 31.583a4.732 4.732 0 0 0 4.573 2.675 4.926 4.926 0 0 0 1.324-.228q.395-.126.789-.273a44.976 44.976 0 0 1 31.474 0q.393.148.79.273a4.929 4.929 0 0 0 1.325.228 4.732 4.732 0 0 0 4.573-2.675l14.716-31.561c.059-.126.4-.893.429-1.027a4.613 4.613 0 0 0 .113-2.889 4.479 4.479 0 0 0-2.557-2.9 89.973 89.973 0 0 0-70.249 0z" transform="translate(-222.022 -226.103)"/>
                <path id="패스_852" fill="url(#radial-gradient-30)" d="M296.483 239.242l-15.01 32.191a3.217 3.217 0 0 1-2.029 1.732 3.383 3.383 0 0 1-2.323-.052 46.426 46.426 0 0 0-33.609 0 3.379 3.379 0 0 1-2.322.051 3.218 3.218 0 0 1-2.028-1.732l-15.011-32.191a3.223 3.223 0 0 1-.1-2.5 3.148 3.148 0 0 1 1.724-1.8 88.576 88.576 0 0 1 69.088 0 3.137 3.137 0 0 1 1.718 1.8 3.23 3.23 0 0 1-.098 2.501zm-71.312-5.653a4.555 4.555 0 0 0-2.588 2.9 4.676 4.676 0 0 0 .068 2.911c.037.163.336.847.407 1l14.767 31.67a4.8 4.8 0 0 0 4.575 2.72 4.937 4.937 0 0 0 1.334-.209c.265-.08.53-.169.793-.269a44.9 44.9 0 0 1 31.579 0q.395.149.794.269a4.936 4.936 0 0 0 1.335.209 4.8 4.8 0 0 0 4.575-2.72l14.759-31.651a10.877 10.877 0 0 0 .419-1.034 4.678 4.678 0 0 0 .066-2.9 4.553 4.553 0 0 0-2.585-2.9 90.046 90.046 0 0 0-70.3 0z" transform="translate(-221.924 -226.003)"/>
                <path id="패스_853" fill="url(#radial-gradient-31)" d="M296.429 239.163l-15.01 32.191a3.256 3.256 0 0 1-2.1 1.764 3.407 3.407 0 0 1-2.321-.059 46.369 46.369 0 0 0-33.572 0 3.4 3.4 0 0 1-2.319.058 3.253 3.253 0 0 1-2.094-1.764l-15.011-32.191a3.275 3.275 0 0 1-.1-2.542 3.2 3.2 0 0 1 1.751-1.827 88.633 88.633 0 0 1 69.127 0 3.184 3.184 0 0 1 1.745 1.825 3.283 3.283 0 0 1-.096 2.545zm-71.382-5.744a4.635 4.635 0 0 0-2.618 2.894 4.755 4.755 0 0 0 .021 2.922 9.189 9.189 0 0 0 .4 1.008L237.658 272a4.867 4.867 0 0 0 4.576 2.766 4.95 4.95 0 0 0 1.344-.189q.4-.114.8-.264a44.831 44.831 0 0 1 31.685 0q.4.149.8.264a4.942 4.942 0 0 0 1.345.189 4.866 4.866 0 0 0 4.571-2.766l14.8-31.74a9.276 9.276 0 0 0 .411-1.041 4.757 4.757 0 0 0 .018-2.906 4.628 4.628 0 0 0-2.614-2.892 90.118 90.118 0 0 0-70.347 0z" transform="translate(-221.824 -225.903)"/>
                <path id="패스_854" fill="url(#radial-gradient-32)" d="M296.373 239.085l-15.01 32.191a3.293 3.293 0 0 1-2.16 1.8 3.43 3.43 0 0 1-2.318-.066 46.32 46.32 0 0 0-33.536 0 3.426 3.426 0 0 1-2.317.065 3.294 3.294 0 0 1-2.159-1.8l-15.011-32.191a3.324 3.324 0 0 1-.1-2.581 3.249 3.249 0 0 1 1.777-1.854 88.675 88.675 0 0 1 69.165 0 3.232 3.232 0 0 1 1.772 1.852 3.332 3.332 0 0 1-.103 2.584zm-71.45-5.835a4.713 4.713 0 0 0-2.647 2.888 4.825 4.825 0 0 0-.025 2.933 7.823 7.823 0 0 0 .39 1.015l14.849 31.844a5.2 5.2 0 0 0 5.932 2.642 8.163 8.163 0 0 0 .8-.259 44.762 44.762 0 0 1 31.79 0 8.285 8.285 0 0 0 .8.26 5.2 5.2 0 0 0 5.933-2.641l14.843-31.83a8.04 8.04 0 0 0 .4-1.048 4.825 4.825 0 0 0-.029-2.914 4.708 4.708 0 0 0-2.642-2.886 90.2 90.2 0 0 0-70.4 0z" transform="translate(-221.724 -225.804)"/>
                <path id="패스_855" fill="url(#radial-gradient-33)" d="M296.315 239.006l-15.01 32.19a3.337 3.337 0 0 1-2.226 1.829 3.454 3.454 0 0 1-2.315-.074 46.275 46.275 0 0 0-33.5 0 3.452 3.452 0 0 1-2.314.072 3.337 3.337 0 0 1-2.225-1.829l-15.011-32.19a3.374 3.374 0 0 1-.1-2.62 3.3 3.3 0 0 1 1.8-1.881 88.724 88.724 0 0 1 69.2 0 3.281 3.281 0 0 1 1.8 1.879 3.38 3.38 0 0 1-.099 2.624zM224.8 233.08a4.794 4.794 0 0 0-2.676 2.883 4.9 4.9 0 0 0-.072 2.944 6.927 6.927 0 0 0 .381 1.023l14.889 31.93a5.279 5.279 0 0 0 5.943 2.707 7.136 7.136 0 0 0 .8-.254 44.689 44.689 0 0 1 31.895 0 7.209 7.209 0 0 0 .806.255 5.281 5.281 0 0 0 5.945-2.707L297.6 239.94a7.008 7.008 0 0 0 .392-1.056 4.911 4.911 0 0 0-.076-2.922 4.789 4.789 0 0 0-2.671-2.88 90.273 90.273 0 0 0-70.445 0z" transform="translate(-221.621 -225.704)"/>
                <path id="패스_856" fill="url(#radial-gradient-34)" d="M296.256 238.927l-15.01 32.191a3.38 3.38 0 0 1-2.292 1.861 3.488 3.488 0 0 1-2.312-.081 46.22 46.22 0 0 0-33.465 0 3.487 3.487 0 0 1-2.311.079 3.38 3.38 0 0 1-2.291-1.861l-15.011-32.191a3.425 3.425 0 0 1-.1-2.659 3.344 3.344 0 0 1 1.831-1.909 88.769 88.769 0 0 1 69.242 0 3.327 3.327 0 0 1 1.825 1.906 3.428 3.428 0 0 1-.106 2.664zm-71.589-6.017a4.878 4.878 0 0 0-2.705 2.877 4.991 4.991 0 0 0-.118 2.955 6.256 6.256 0 0 0 .373 1.031l14.93 32.016a5.08 5.08 0 0 0 4.582 2.9 5 5 0 0 0 1.372-.129 6.282 6.282 0 0 0 .809-.25 44.62 44.62 0 0 1 32 0 6.339 6.339 0 0 0 .81.251 4.994 4.994 0 0 0 1.374.129 5.082 5.082 0 0 0 4.583-2.9l14.926-32.01a6.229 6.229 0 0 0 .382-1.062 4.99 4.99 0 0 0-.123-2.931 4.87 4.87 0 0 0-2.7-2.874 90.351 90.351 0 0 0-70.495 0z" transform="translate(-221.517 -225.604)"/>
                <path id="패스_857" fill="url(#radial-gradient-35)" d="M296.2 238.848l-15.01 32.191a3.425 3.425 0 0 1-2.357 1.894 3.511 3.511 0 0 1-2.309-.089 46.177 46.177 0 0 0-33.429 0 3.509 3.509 0 0 1-2.308.087 3.424 3.424 0 0 1-2.356-1.894l-15.011-32.191a3.474 3.474 0 0 1-.1-2.7 3.4 3.4 0 0 1 1.857-1.936 88.83 88.83 0 0 1 69.281 0 3.38 3.38 0 0 1 1.852 1.934 3.483 3.483 0 0 1-.11 2.704zm-71.658-6.109a4.965 4.965 0 0 0-2.734 2.872 5.069 5.069 0 0 0-.165 2.966 5.592 5.592 0 0 0 .364 1.038l14.971 32.1a5.154 5.154 0 0 0 4.583 2.947 5.044 5.044 0 0 0 1.383-.109 5.67 5.67 0 0 0 .813-.245 44.554 44.554 0 0 1 32.1 0 5.676 5.676 0 0 0 .813.246 5.039 5.039 0 0 0 1.384.11 5.156 5.156 0 0 0 4.584-2.947l14.968-32.1a5.613 5.613 0 0 0 .373-1.07 5.077 5.077 0 0 0-.17-2.938 4.955 4.955 0 0 0-2.728-2.868 90.428 90.428 0 0 0-70.544 0z" transform="translate(-221.411 -225.504)"/>
                <path id="패스_858" fill="url(#radial-gradient-36)" d="M296.133 238.769l-15.01 32.191a3.47 3.47 0 0 1-2.423 1.926 3.543 3.543 0 0 1-2.306-.1 46.122 46.122 0 0 0-33.393 0 3.54 3.54 0 0 1-2.3.094 3.47 3.47 0 0 1-2.422-1.926l-15.011-32.191a3.525 3.525 0 0 1-.1-2.736 3.445 3.445 0 0 1 1.884-1.964 88.87 88.87 0 0 1 69.319 0 3.425 3.425 0 0 1 1.878 1.961 3.53 3.53 0 0 1-.116 2.745zm1.623-3.334a5.038 5.038 0 0 0-2.756-2.862 90.5 90.5 0 0 0-70.593 0 5.051 5.051 0 0 0-2.764 2.867 5.176 5.176 0 0 0 .144 4.022l15.013 32.186a5.229 5.229 0 0 0 4.586 2.992 5.052 5.052 0 0 0 2.209-.33 44.493 44.493 0 0 1 32.21 0 5.057 5.057 0 0 0 2.211.331 5.229 5.229 0 0 0 4.586-2.992l15.01-32.19a5.18 5.18 0 0 0 .144-4.024z" transform="translate(-221.304 -225.404)"/>
            </g>
            <path id="패스_859" fill="url(#radial-gradient-37)" d="M298.866 242.1a2.293 2.293 0 0 0 .075-1.78 2.209 2.209 0 0 0-1.215-1.275 87.656 87.656 0 0 0-68.365 0 2.218 2.218 0 0 0-1.22 1.276 2.284 2.284 0 0 0 .072 1.782l8.828 18.932a174.949 174.949 0 0 1 60.844-16.835z" transform="translate(-4.573 -4.578)" style="mix-blend-mode:screen;isolation:isolate" opacity="0.5"/>
        </g>
    </g>
</svg>
