<svg xmlns="http://www.w3.org/2000/svg" width="20.245" height="15.547" viewBox="0 0 20.245 15.547">
    <path fill="#727272" d="M1131.7 259.6h-9.565c-.434 0-.569-.146-.569-.619v-14.223c0-.548.136-.7.625-.7h19.021c.473 0 .6.142.6.667v14.223a1.162 1.162 0 0 1-.057.353.394.394 0 0 1-.42.3q-4.817-.011-9.635-.001zm9.232-14.513h-18.47a3.756 3.756 0 0 1 0 .506.807.807 0 0 0 .342.788q4.37 3.823 8.723 7.67a.217.217 0 0 0 .351 0q2.735-2.419 5.478-4.825 1.714-1.509 3.426-3.024a.423.423 0 0 0 .147-.245c.016-.286.005-.571.005-.873zm-17.592 13.473h16.719l-5.946-5.237c-.078.067-.148.124-.216.184l-1.847 1.619c-.269.235-.433.233-.707-.005s-.552-.484-.828-.727l-1.225-1.073zm-.858-11.208v10.684l6.064-5.342zm18.441 0l-6.07 5.347 6.07 5.346z" transform="translate(-1121.567 -244.054)"/>
</svg>
