<svg xmlns="http://www.w3.org/2000/svg" width="96" height="96" viewBox="0 0 96 96">
    <defs>
        <style>
            .fat-4{fill:#e86666}.fat-9{fill:#de4a49}.fat-10{fill:#c44141}.fat-11{fill:#ff6766}.fat-12{fill:#b03a3a}.fat-13{fill:#e6fcf6}.fat-14{fill:#d1a7fc}.fat-15{fill:#dab8fc}.fat-16{fill:#fff;opacity:.3}.fat-17{fill:#ffd6b5}
        </style>
    </defs>
    <g id="fat_05" transform="translate(-202)">
        <path id="사각형_597" fill="none" d="M0 0H96V96H0z" transform="translate(202)"/>
        <g id="그룹_1992" transform="translate(158.934 -616.561)">
            <path id="패스_625" fill="#b14e4e" d="M125.887 650.934a36.008 36.008 0 0 0-16.536 7.436c-8.306 6.526-7.786 17.219-7.786 17.219l-2.985-.808-34.174-9.249c5.379-30 46.457-32.964 46.457-32.964s4.244-.494 10.083 6.451a22.243 22.243 0 0 1 3.205 5.025 17.4 17.4 0 0 1 1.736 6.89z" transform="translate(-2.897)"/>
            <path id="패스_626" fill="#a34848" d="M181.855 674a36.007 36.007 0 0 0-16.536 7.436c-8.306 6.526-7.786 17.219-7.786 17.219l-2.985-.808-6.248-11.517s-1.631-7.267 12.752-14.681c7.152-3.688 14.368-3.39 19.072-4.54a17.4 17.4 0 0 1 1.731 6.891z" transform="translate(-58.865 -23.065)"/>
            <path id="패스_627" d="M97.441 662.655s.93-2.11 6.913-5.9 16.61-6.313 15.242-8.207-2.314-2.209-10.732.842-17.326 9.665-19.6 15.671z" class="fat-4" transform="translate(-19.489 -9.715)"/>
            <path id="패스_628" fill="#d95f5f" d="M79.077 733.935c-12.206 0-22.5-13.79-17.887-26.691a25.7 25.7 0 0 1 1.42-3.264.065.065 0 0 0 .01-.016C67.708 694.263 76.6 693.9 76.6 693.9a23.175 23.175 0 0 1 11.612 1.616l.388.18c5.6 2.667 9.22 8.071 10.022 16 1.341 13.256-7.339 22.239-19.545 22.239z" transform="translate(0 -40.863)"/>
            <path id="패스_629" fill="#f27a7a" d="M84.255 737.16a14 14 0 0 1-2.55-.236h-.311l-.22-.109a16.422 16.422 0 0 1-9.765-6.732 17.3 17.3 0 0 1-3.172-8.638l-.527-.527.481-.969a16.325 16.325 0 0 1 .952-5.246c2.65-7.422 7.819-9.943 10.819-10.794l.275-.138h.254a10.387 10.387 0 0 1 1.733-.283h.009c.68-.06 1.338-.093 1.946-.1h.451a15.965 15.965 0 0 1 10.97 3.88c2.914 2.639 4.638 6.406 5.123 11.2a17.208 17.208 0 0 1-3.976 13.495 16.465 16.465 0 0 1-12.184 5.2c-.103-.003-.206-.003-.308-.003z" transform="translate(-5.102 -47.283)"/>
            <path id="패스_630" fill="#824141" d="M100.526 734.935a14.257 14.257 0 0 1-10.582 4.465h-.253a11.75 11.75 0 0 1-2.337-.235.014.014 0 0 1-.009 0 14.251 14.251 0 0 1-8.682-5.9 14.956 14.956 0 0 1-2.811-8.323.008.008 0 0 1 0-.009 14.089 14.089 0 0 1 .822-5.019c2.392-6.7 7.06-8.8 9.525-9.456h.009a8.33 8.33 0 0 1 1.606-.287h.041c.6-.054 1.2-.086 1.781-.091h.368a13.831 13.831 0 0 1 9.534 3.306c2.495 2.259 3.975 5.547 4.4 9.771a15.019 15.019 0 0 1-3.412 11.778z" transform="translate(-10.533 -51.751)"/>
            <path id="패스_631" fill="#b05f5f" d="M103.941 723.156c-.428-4.224-1.908-7.512-4.4-9.771A13.842 13.842 0 0 0 90 710.079h-.368a17.435 17.435 0 0 0-3.428.382h-.009c-2.465.655-7.133 2.758-9.525 9.456a14.067 14.067 0 0 0-.612 2.313q-.067.454-.113.923-.09.905-.1 1.783a.008.008 0 0 0 0 .009 14.956 14.956 0 0 0 2.811 8.323 14.251 14.251 0 0 0 8.682 5.9.014.014 0 0 0 .009 0 16.978 16.978 0 0 0 2.589.232v-.77a7.372 7.372 0 0 1-2.3-.6c-.688-.43-.946.086-1.719 0s-.774-.516-1.462-.6-.86 0-1.092-.516a2.339 2.339 0 0 0-1.487-1.118 1.519 1.519 0 0 1-1.032-1.375c-.086-.688-.945-.516-1.289-.86s-.688-1.375-1.118-1.805-.258-1.289-.86-1.805-.516-2.149-.645-2.579.129-1.375 0-1.719a2.751 2.751 0 0 1 0-2.063c.389-.86.043-1.289 0-1.805s.473-.6.473-1.805a4.213 4.213 0 0 1 1.117-2.751 11.028 11.028 0 0 0 1.032-1.719 5.907 5.907 0 0 1 1.719-1.2c.688-.43.773-1.118 1.2-1.547s1.29-.344 2.063-.86a3.258 3.258 0 0 1 2.149-.43c.774 0 .946-.773 1.977-.688a4.029 4.029 0 0 0 1.27 0 4.025 4.025 0 0 0 1.27 0c1.031-.086 1.2.688 1.977.688a3.257 3.257 0 0 1 2.149.43c.774.516 1.633.43 2.063.86s.516 1.118 1.2 1.547a5.9 5.9 0 0 1 1.719 1.2 11.056 11.056 0 0 0 1.032 1.719 4.213 4.213 0 0 1 1.117 2.751c0 1.2.514 1.289.473 1.805s-.389.946 0 1.805a2.751 2.751 0 0 1 0 2.063c-.131.344.125 1.29 0 1.719s-.043 2.063-.645 2.579-.43 1.375-.86 1.805-.774 1.462-1.118 1.805-1.2.172-1.289.86a1.519 1.519 0 0 1-1.02 1.372 2.34 2.34 0 0 0-1.487 1.118c-.232.516-.4.43-1.092.516s-.688.516-1.462.6-1.032-.43-1.719 0a7.371 7.371 0 0 1-2.3.6v.77a14.257 14.257 0 0 0 10.583-4.465 15.019 15.019 0 0 0 3.418-11.776z" transform="translate(-10.536 -51.751)"/>
            <g id="그룹_587" transform="translate(68.668 675.931)">
                <path id="패스_632" d="M90.685 763.084a1.971 1.971 0 0 0-2.127.975c-.842 1.33-.436 1.817-1.326 2.659s-1.325 1.063-1.289 2.26c.049 1.629 2.972 1.285 4.877 0s2.435-5.761-.135-5.894z" class="fat-9" transform="translate(-85.942 -763.041)"/>
                <path id="패스_633" d="M91.45 770.908c-1.3.854-1.774.734-1.932.615a.219.219 0 0 1-.071-.083c-.794-.443 1.149-1.6 1.769-2.7s.709-1.507 1.418-1.285a.411.411 0 0 1 .174.107c.492.498.235 2.303-1.358 3.346z" class="fat-10" transform="translate(-88.156 -765.946)"/>
                <path id="패스_634" d="M94.6 765.278s.246-.643 1.332-.487 1.041.6 1.24.354-.344-.776-1.4-.775-1.665 1.041-1.172.908z" class="fat-11" transform="translate(-91.606 -763.928)"/>
                <path id="패스_635" d="M92.808 767.559c-.036-.027-.307-.213-.595.137a14.472 14.472 0 0 1-1.236 1.767c-.536.515-1.437 1.068-1.53 1.49a.787.787 0 0 0 .071.571.219.219 0 0 1-.071-.083c-.794-.443 1.149-1.6 1.769-2.7s.709-1.507 1.418-1.285a.411.411 0 0 1 .174.103z" class="fat-12" transform="translate(-88.156 -765.946)"/>
                <path id="패스_636" d="M87.544 779.995a.656.656 0 0 0 .624.542c.572.067 1.038-.288 1.082 0s-.656.576-1.27.354-.834-1.128-.436-.896z" class="fat-11" transform="translate(-86.878 -774.334)"/>
            </g>
            <g id="그룹_588" transform="translate(81.26 671.768)">
                <path id="패스_637" d="M125.357 750.555a1.725 1.725 0 0 1 1.861.853c.737 1.164.382 1.59 1.16 2.327s1.159.931 1.128 1.978c-.043 1.426-2.6 1.125-4.269 0s-2.129-5.042.12-5.158z" class="fat-9" transform="translate(-123.826 -750.517)"/>
                <path id="패스_638" d="M129.463 757.4c1.14.747 1.553.643 1.691.538a.19.19 0 0 0 .062-.073c.7-.388-1.005-1.4-1.548-2.366s-.621-1.319-1.241-1.125a.358.358 0 0 0-.152.094c-.434.442-.207 2.021 1.188 2.932z" class="fat-10" transform="translate(-126.663 -753.06)"/>
                <path id="패스_639" d="M128.454 752.475s-.215-.562-1.165-.427-.911.524-1.086.31.3-.679 1.222-.679 1.457.912 1.029.796z" class="fat-11" transform="translate(-125.389 -751.293)"/>
                <path id="패스_640" d="M128.676 754.471c.032-.024.268-.187.52.119a12.67 12.67 0 0 0 1.082 1.547c.469.451 1.257.935 1.339 1.3a.689.689 0 0 1-.062.5.19.19 0 0 0 .062-.073c.7-.388-1.005-1.4-1.548-2.366s-.621-1.319-1.241-1.125a.358.358 0 0 0-.152.098z" class="fat-12" transform="translate(-127.064 -753.06)"/>
                <path id="패스_641" d="M136.165 765.355a.574.574 0 0 1-.546.475c-.5.058-.908-.252-.947 0s.575.5 1.112.31.73-.988.381-.785z" class="fat-11" transform="translate(-131.065 -760.401)"/>
            </g>
            <g id="그룹_589" transform="translate(66.004 668.084)">
                <path id="패스_642" d="M84.846 741.872a1.749 1.749 0 0 0-1.434-1.5c-1.359-.321-1.65.161-2.614-.342s-1.275-.8-2.269-.427c-1.352.513-.217 2.865 1.412 4.091s5.537.372 4.905-1.822z" class="fat-9" transform="translate(-77.929 -739.432)"/>
                <path id="패스_643" d="M82.871 743.82c-1.093-.846-1.13-1.275-1.075-1.443a.193.193 0 0 1 .049-.083c.142-.794 1.671.5 2.78.7s1.469.159 1.488.817a.367.367 0 0 1-.04.177c-.273.562-1.866.867-3.202-.168z" class="fat-10" transform="translate(-80.5 -741.173)"/>
                <path id="패스_644" d="M93.834 743.138s.61.02.794.975-.2 1.047.062 1.144.551-.513.246-1.4-1.356-1.091-1.102-.719z" class="fat-11" transform="translate(-88.521 -741.79)"/>
                <path id="패스_645" d="M86.1 743.99c.013-.039.09-.319-.287-.459a12.839 12.839 0 0 1-1.84-.525c-.587-.3-1.312-.9-1.693-.852a.7.7 0 0 0-.458.225.193.193 0 0 1 .049-.083c.142-.794 1.671.5 2.78.7s1.469.159 1.488.817a.367.367 0 0 1-.039.177z" class="fat-12" transform="translate(-80.531 -741.173)"/>
                <path id="패스_646" d="M79.753 741.07a.581.581 0 0 0-.274.68c.11.5.542.787.313.908s-.673-.384-.665-.963.704-1.027.626-.625z" class="fat-11" transform="translate(-78.729 -740.423)"/>
            </g>
            <g id="그룹_590" transform="translate(77.226 678.212)">
                <path id="패스_647" d="M112.973 770.14a2.047 2.047 0 0 0-1.22 1.814c-.215 1.553.033 3.825 2.012 4.287s4.287-.459 3.858-3.379a3.406 3.406 0 0 0-4.65-2.722z" class="fat-9" transform="translate(-111.689 -769.904)"/>
                <path id="패스_648" d="M117.738 777.308c-1.167-.022-1.451-.652-1.636-1.7-.019-.1-.036-.212-.053-.325-.19-1.238.4-1.333.4-1.333.976-.976 2.594.428 2.808 1.261a1.674 1.674 0 0 1 .043.253 1.588 1.588 0 0 1-1.562 1.844z" class="fat-10" transform="translate(-114.574 -772.385)"/>
                <path id="패스_649" d="M117.923 781.017c-1.167-.022-1.451-.652-1.636-1.7a2.866 2.866 0 0 0 .85 1.267 1.633 1.633 0 0 0 1.69-.143 2.192 2.192 0 0 0 .662-1.27 1.588 1.588 0 0 1-1.566 1.846z" class="fat-12" transform="translate(-114.759 -776.094)"/>
                <path id="패스_650" d="M114.987 784.071a2.109 2.109 0 0 0 1.8.809c1.2-.072 1.463-.619 1.651-.214s-1 1.071-2.192.738-1.993-1.128-1.259-1.333z" class="fat-11" transform="translate(-113.704 -779.362)"/>
                <path id="패스_651" d="M118.535 771.3a2.635 2.635 0 0 1 1.285.19c.738.286.881.573.595.572s-.439-.253-1.172-.389-1.089-.259-.708-.373z" class="fat-11" transform="translate(-116.156 -770.823)"/>
            </g>
            <g id="그룹_591" transform="translate(60.373 690.019)">
                <path id="패스_652" d="M64.2 805.425a2.293 2.293 0 0 0-2.119 1.234c-.977 1.462-1.838 3.877-.067 5.311s4.551 1.634 5.547-1.523a3.82 3.82 0 0 0-3.361-5.022z" class="fat-9" transform="translate(-60.986 -805.424)"/>
                <path id="패스_653" d="M67.422 814.209c-1.167-.593-1.145-1.368-.821-2.511.032-.114.067-.232.105-.354.413-1.342 1.06-1.147 1.06-1.147 1.462-.507 2.409 1.7 2.217 2.647a1.872 1.872 0 0 1-.08.277 1.781 1.781 0 0 1-2.481 1.088z" class="fat-10" transform="translate(-64.607 -808.558)"/>
                <path id="패스_654" d="M67.422 817.381c-1.167-.593-1.145-1.368-.821-2.511a3.217 3.217 0 0 0 .238 1.695 1.832 1.832 0 0 0 1.776.682 2.46 2.46 0 0 0 1.289-.958 1.781 1.781 0 0 1-2.482 1.092z" class="fat-12" transform="translate(-64.607 -811.73)"/>
                <path id="패스_655" d="M63.164 818.981a2.366 2.366 0 0 0 1.424 1.7c1.241.513 1.78.091 1.771.591s-1.536.59-2.574-.328-1.462-2.115-.621-1.963z" class="fat-11" transform="translate(-62.142 -814.466)"/>
                <path id="패스_656" d="M73.2 807.737a2.956 2.956 0 0 1 1.2.821c.6.649.608 1.01.32.869s-.319-.47-.992-.966-.969-.791-.528-.724z" class="fat-11" transform="translate(-69.002 -806.962)"/>
            </g>
            <g id="그룹_592" transform="translate(76.474 672.157)">
                <path id="패스_657" d="M110.6 752.332a3.633 3.633 0 0 0-1.149 2.985c.209 1.827 2.776 2.621 4.6.71s-.008-5.897-3.451-3.695z" class="fat-13" transform="translate(-109.426 -751.687)"/>
                <path id="패스_658" d="M112.224 754.227c-.52.242-.947 1.729-.905 2.108a1.768 1.768 0 0 0 1.915 1.638c1.325-.057 2.193-1.338 1.636-1.863s-1.5.663-2.123.225 1.134-1.129.766-1.829-.937-.443-1.289-.279z" class="fat-14" transform="translate(-110.688 -753.259)"/>
                <path id="패스_659" d="M112.438 754.983a.4.4 0 0 1 .539-.191.35.35 0 0 1 .244.487s.256 0 .241.174-.276.226-.276.226 0 .331-.236.366a.31.31 0 0 1-.321-.1s.1.444-.191.518-.348.028-.348.028.331.081.331.255v.174a.814.814 0 0 1 .557.087c.226.157.226.313.226.313a.513.513 0 0 1 .437-.122l.224.07s.191-.191.348-.174l.157.018s-.035-.383.435-.366.087.487.087.487.279.087.052.348a.446.446 0 0 1-.47.174.684.684 0 0 1-.383.487c-.354.192-.527 0-.527 0a.368.368 0 0 1-.4.085c-.209-.1-.244-.225-.244-.225a.889.889 0 0 1-.7-.4l-.261-.4s-.244-.209-.226-.348.087-.174.087-.174-.1-.313.017-.452l.122-.139s.018-.418.139-.5l.122-.087a.364.364 0 0 1 .218-.619z" class="fat-15" transform="translate(-110.972 -753.736)"/>
                <path id="패스_660" d="M119.735 754.086s.557.1.835 1.1-.077 2.2-.653 2.436-.513-.418-.234-1.2.3-1.41-.035-1.723-.248-.807.087-.613z" class="fat-16" transform="translate(-116.11 -753.259)"/>
                <path id="패스_661" d="M110.747 759.081a.372.372 0 0 1 .574.25c.139.5-.056.956.311 1.406s.59.885 0 .78-.833-.586-.955-1.241-.132-1.058.07-1.195z" class="fat-16" transform="translate(-110.203 -756.582)"/>
            </g>
            <g id="그룹_593" transform="translate(72.228 665.543)">
                <path id="패스_662" d="M96.759 734.329a2.627 2.627 0 0 0 1.785 1.47c1.3.274 2.432-1.305 1.538-2.993s-4.046-1.344-3.323 1.523z" class="fat-13" transform="translate(-96.652 -731.788)"/>
                <path id="패스_663" d="M97.856 736.026c.047.412.97 1.045 1.239 1.1a1.278 1.278 0 0 0 1.561-.939c.264-.922-.417-1.81-.9-1.548s.113 1.178-.33 1.508-.516-1.036-1.08-.943-.523.543-.49.822z" class="fat-14" transform="translate(-97.444 -733.662)"/>
                <path id="패스_664" d="M98.237 736.521a.292.292 0 0 1-.008-.414.253.253 0 0 1 .39-.055s.059-.176.175-.126.092.241.092.241.226.077.2.245a.224.224 0 0 1-.145.2s.328.03.311.25-.06.245-.06.245.131-.208.25-.169l.119.04a.591.591 0 0 1 .187-.362.314.314 0 0 1 .267-.083.37.37 0 0 1 .016-.328l.1-.138s-.088-.175-.04-.279l.048-.1s-.271-.063-.151-.382.354.052.354.052.123-.171.251.044a.323.323 0 0 1 .012.362.494.494 0 0 1 .247.374c.051.287-.12.361-.12.361a.266.266 0 0 1-.032.291.313.313 0 0 1-.21.116.642.642 0 0 1-.433.386l-.334.088s-.2.119-.291.075-.1-.1-.1-.1-.239 0-.306-.115l-.068-.115s-.283-.107-.314-.211l-.032-.1a.264.264 0 0 1-.375-.293z" class="fat-15" transform="translate(-97.651 -734.046)"/>
                <path id="패스_665" d="M98.9 733.841s.2-.358.943-.323 1.49.556 1.522 1.005-.4.256-.877-.114-.9-.525-1.19-.37-.608-.014-.398-.198z" class="fat-16" transform="translate(-98.107 -732.941)"/>
                <path id="패스_666" d="M100.357 741.315a.269.269 0 0 1 .3-.337c.374.018.643.257 1.035.108s.742-.2.535.178-.592.438-1.07.372-.757-.151-.8-.321z" class="fat-16" transform="translate(-99.122 -737.92)"/>
            </g>
            <g id="그룹_594" transform="translate(83.863 667.164)">
                <path id="패스_667" d="M133.681 736.664a2.627 2.627 0 0 0-1.874 1.356c-.594 1.19.648 2.683 2.507 2.244s2.323-3.575-.633-3.6z" class="fat-13" transform="translate(-131.657 -736.664)"/>
                <path id="패스_668" d="M134.93 737.678c-.411-.058-1.256.674-1.38.92a1.277 1.277 0 0 0 .514 1.747c.825.489 1.857.055 1.726-.484s-1.168-.189-1.375-.7 1.132-.237 1.186-.806-.393-.637-.671-.677z" class="fat-14" transform="translate(-132.812 -737.339)"/>
                <path id="패스_669" d="M135.107 738.023a.292.292 0 0 1 .4.1.254.254 0 0 1-.045.392s.155.1.077.2-.257.028-.257.028-.132.2-.287.128a.225.225 0 0 1-.153-.19s-.112.31-.32.238-.222-.121-.222-.121.169.179.1.285l-.069.105a.589.589 0 0 1 .3.272.313.313 0 0 1 .013.279.37.37 0 0 1 .313.1l.108.131s.191-.041.28.032l.088.072s.13-.246.408-.05-.14.33-.14.33.134.162-.106.232a.323.323 0 0 1-.353-.08.494.494 0 0 1-.424.144c-.291-.024-.319-.208-.319-.208a.266.266 0 0 1-.273-.1.314.314 0 0 1-.059-.232.643.643 0 0 1-.264-.517v-.345s-.065-.223 0-.3.122-.071.122-.071.06-.231.189-.267l.129-.036s.175-.246.284-.251l.108-.005a.264.264 0 0 1 .372-.295z" class="fat-15" transform="translate(-133.141 -737.543)"/>
                <path id="패스_670" d="M138.989 739.709s.3.283.073.994-.914 1.3-1.357 1.219-.146-.455.332-.82.735-.737.658-1.058.169-.585.294-.335z" class="fat-16" transform="translate(-135.55 -738.631)"/>
                <path id="패스_671" d="M133.082 739.3a.269.269 0 0 1 .249.378c-.112.357-.411.557-.366.975s.008.769-.308.473-.274-.684-.089-1.129.338-.697.514-.697z" class="fat-16" transform="translate(-132.17 -738.423)"/>
            </g>
            <g id="그룹_595" transform="translate(63.274 672.864)">
                <path id="패스_672" d="M73.971 753.848a4.325 4.325 0 0 0-3.608 1.218c-1.515 1.581-.29 4.536 2.848 4.753s5.398-4.489.76-5.971z" class="fat-13" transform="translate(-69.716 -753.812)"/>
                <path id="패스_673" d="M75.892 755.531c-.617-.292-2.3.448-2.619.774a2.1 2.1 0 0 0-.045 3c1.059 1.171 2.894.991 2.951.081s-1.745-.867-1.822-1.774 1.9.179 2.259-.69-.306-1.193-.724-1.391z" class="fat-14" transform="translate(-71.654 -754.915)"/>
                <path id="패스_674" d="M76.128 755.9a.481.481 0 0 1 .586.349.417.417 0 0 1-.261.594s.194.234.024.353-.417-.08-.417-.08-.3.25-.514.062a.37.37 0 0 1-.149-.373s-.327.433-.62.218-.29-.3-.29-.3.177.364.018.5l-.159.133a.971.971 0 0 1 .344.576.515.515 0 0 1-.115.445.61.61 0 0 1 .444.308l.107.258s.321.03.424.186l.1.157s.324-.323.666.12-.38.45-.38.45.132.321-.279.313a.531.531 0 0 1-.517-.3.815.815 0 0 1-.738.02c-.445-.179-.4-.483-.4-.483a.438.438 0 0 1-.379-.3.516.516 0 0 1 .02-.394 1.059 1.059 0 0 1-.163-.942l.168-.543s.006-.382.147-.472a.256.256 0 0 1 .226-.053s.208-.334.428-.328l.22.006s.4-.3.568-.256l.173.045a.434.434 0 0 1 .718-.269z" class="fat-15" transform="translate(-72.199 -755.133)"/>
                <path id="패스_675" d="M80.874 760.652s.328.589-.369 1.6-2.073 1.6-2.729 1.254-.007-.787.922-1.128 1.516-.8 1.552-1.342.55-.836.624-.384z" class="fat-16" transform="translate(-74.919 -758.23)"/>
                <path id="패스_676" d="M72.515 756.41a.443.443 0 0 1 .208.716c-.351.507-.919.675-1.052 1.354s-.362 1.213-.715.594-.1-1.209.411-1.819.87-.927 1.148-.845z" class="fat-16" transform="translate(-70.435 -755.538)"/>
            </g>
            <g id="그룹_596" transform="translate(60.162 677.584)">
                <path id="패스_677" d="M63.564 768.014a2.294 2.294 0 0 0-2.119 1.234c-.977 1.462-1.838 3.877-.066 5.311s4.551 1.634 5.547-1.523a3.821 3.821 0 0 0-3.362-5.022z" class="fat-9" transform="translate(-60.353 -768.013)"/>
                <path id="패스_678" d="M66.789 776.8c-1.167-.593-1.145-1.368-.822-2.511.032-.114.067-.232.1-.354.413-1.342 1.06-1.147 1.06-1.147 1.462-.508 2.409 1.7 2.218 2.647a1.871 1.871 0 0 1-.081.277 1.78 1.78 0 0 1-2.475 1.088z" class="fat-10" transform="translate(-63.974 -771.147)"/>
                <path id="패스_679" d="M66.789 779.97c-1.167-.593-1.145-1.368-.822-2.511a3.214 3.214 0 0 0 .238 1.695 1.832 1.832 0 0 0 1.775.682 2.459 2.459 0 0 0 1.289-.958 1.78 1.78 0 0 1-2.48 1.092z" class="fat-12" transform="translate(-63.974 -774.319)"/>
                <path id="패스_680" d="M62.531 781.57a2.366 2.366 0 0 0 1.424 1.7c1.241.513 1.779.091 1.771.591s-1.536.59-2.574-.328-1.462-2.115-.621-1.963z" class="fat-11" transform="translate(-61.508 -777.055)"/>
                <path id="패스_681" d="M72.569 770.326a2.956 2.956 0 0 1 1.2.821c.6.649.609 1.009.321.869s-.319-.47-.992-.966-.972-.79-.529-.724z" class="fat-11" transform="translate(-68.369 -769.551)"/>
            </g>
            <g id="그룹_597" transform="translate(75.225 667.53)">
                <path id="패스_682" d="M106.726 737.961a1.685 1.685 0 0 0-1.005 1.494c-.177 1.279.027 3.151 1.657 3.531s3.532-.378 3.178-2.783a2.806 2.806 0 0 0-3.83-2.242z" class="fat-9" transform="translate(-105.669 -737.767)"/>
                <path id="패스_683" d="M110.652 743.866c-.961-.018-1.195-.537-1.347-1.4-.016-.085-.03-.175-.044-.267-.157-1.019.333-1.1.333-1.1.8-.8 2.137.353 2.313 1.039a1.343 1.343 0 0 1 .035.208 1.308 1.308 0 0 1-1.29 1.52z" class="fat-10" transform="translate(-108.045 -739.81)"/>
                <path id="패스_684" d="M110.8 746.921c-.961-.018-1.195-.537-1.347-1.4a2.36 2.36 0 0 0 .7 1.044 1.345 1.345 0 0 0 1.392-.118 1.805 1.805 0 0 0 .545-1.046 1.308 1.308 0 0 1-1.29 1.52z" class="fat-12" transform="translate(-108.197 -742.865)"/>
                <path id="패스_685" d="M108.386 749.436a1.738 1.738 0 0 0 1.485.666c.985-.059 1.205-.51 1.36-.176s-.826.882-1.806.608-1.644-.934-1.039-1.098z" class="fat-11" transform="translate(-107.328 -745.557)"/>
                <path id="패스_686" d="M111.308 738.913a2.171 2.171 0 0 1 1.059.157c.608.235.725.472.49.471s-.362-.209-.965-.32-.898-.21-.584-.308z" class="fat-11" transform="translate(-109.348 -738.523)"/>
            </g>
            <path id="패스_687" d="M128.433 770.63s-.556.05-.5.359-.778.391-.612.711.834.1 1.112.265.111.917.612.765.167-.869.5-1.039.945-1 .556-1.06-.778.5-.89 0-.119-.667-.449-.723-.329.722-.329.722z" class="fat-17" transform="translate(-44.884 -91.692)"/>
            <path id="패스_688" d="M96.9 754.653s0-.446-.245-.426-.249-.65-.516-.543-.144.655-.3.863-.738.015-.656.424.677.2.786.481.722.832.8.527-.335-.659.071-.707.54-.041.61-.3-.55-.319-.55-.319z" class="fat-17" transform="translate(-23.435 -80.855)"/>
            <path id="패스_689" d="M96.758 789.043s.006-.572-.314-.547-.319-.834-.663-.7-.185.841-.384 1.107-.947.019-.843.545.87.26 1.009.617.927 1.067 1.024.676-.43-.846.091-.907.693-.053.783-.384-.703-.407-.703-.407z" class="fat-17" transform="translate(-23.017 -103.628)"/>
            <path id="패스_690" d="M125.113 809.31s.006-.572-.314-.547-.319-.834-.663-.7-.185.841-.384 1.107-.947.019-.843.545.87.26 1.009.617.927 1.068 1.024.676-.43-.845.091-.907.693-.053.783-.384-.703-.407-.703-.407z" class="fat-17" transform="translate(-41.947 -117.159)"/>
            <path id="패스_691" d="M120.473 735.967s-.442-.184-.524.073-.748-.014-.749.3.595.407.739.645-.282.742.16.825.474-.594.8-.59 1.119-.386.846-.583-.791.069-.676-.355.176-.554-.052-.728-.544.413-.544.413z" class="fat-17" transform="translate(-39.478 -68.735)"/>
            <g id="그룹_598" transform="translate(66.722 685.144)">
                <path id="패스_692" d="M84.344 790.793a4.324 4.324 0 0 0-3.608 1.218c-1.515 1.581-.29 4.536 2.847 4.753s5.399-4.489.761-5.971z" class="fat-13" transform="translate(-80.088 -790.757)"/>
                <path id="패스_693" d="M86.265 792.476c-.618-.292-2.3.448-2.62.774a2.1 2.1 0 0 0-.044 3c1.059 1.171 2.894.991 2.951.081s-1.746-.867-1.822-1.773 1.9.179 2.258-.69-.305-1.194-.723-1.392z" class="fat-14" transform="translate(-82.027 -791.86)"/>
                <path id="패스_694" d="M86.5 792.842a.481.481 0 0 1 .586.349.417.417 0 0 1-.261.594s.194.234.024.353-.417-.08-.417-.08-.3.249-.514.062a.369.369 0 0 1-.149-.374s-.327.433-.62.219-.29-.3-.29-.3.177.364.018.5l-.16.132a.971.971 0 0 1 .344.576.516.516 0 0 1-.115.445.611.611 0 0 1 .444.308l.106.258s.321.03.424.187l.1.157s.324-.323.666.121-.38.45-.38.45.132.321-.279.312a.531.531 0 0 1-.517-.3.815.815 0 0 1-.738.02c-.445-.178-.4-.483-.4-.483a.438.438 0 0 1-.379-.3.517.517 0 0 1 .021-.394 1.059 1.059 0 0 1-.163-.942l.168-.543s.006-.382.147-.472a.255.255 0 0 1 .226-.053s.207-.334.428-.328l.22.006s.4-.3.568-.256l.172.046a.434.434 0 0 1 .72-.27z" class="fat-15" transform="translate(-82.571 -792.078)"/>
                <path id="패스_695" d="M91.246 797.6s.328.59-.369 1.6-2.073 1.6-2.729 1.255-.007-.787.922-1.128 1.516-.8 1.552-1.342.549-.841.624-.385z" class="fat-16" transform="translate(-85.291 -795.175)"/>
                <path id="패스_696" d="M82.888 793.355a.443.443 0 0 1 .208.716c-.351.507-.919.675-1.052 1.354s-.362 1.213-.715.594-.1-1.209.411-1.819.87-.926 1.148-.845z" class="fat-16" transform="translate(-80.808 -792.483)"/>
            </g>
            <g id="그룹_599" transform="translate(69.957 686.978)">
                <path id="패스_697" d="M91.062 802.8a2.179 2.179 0 0 0 2.569-.3c1.338-1.112 1.077-1.762 2.3-2.345s1.755-.668 2.125-1.938c.5-1.73-2.688-2.364-5.129-1.661s-4.527 5.232-1.865 6.244z" class="fat-9" transform="translate(-89.822 -796.276)"/>
                <path id="패스_698" d="M97.868 801.343c1.661-.454 2.116-.169 2.241.011a.239.239 0 0 1 .046.112c.684.736-1.751 1.287-2.781 2.241s-1.259 1.343-1.929.869a.456.456 0 0 1-.146-.172v-.005c-.35-.692.537-2.499 2.569-3.056z" class="fat-10" transform="translate(-93.427 -799.496)"/>
                <path id="패스_699" d="M94.725 812s-.477.592-1.566.059-.891-.984-1.184-.8.1.934 1.2 1.291 2.11-.52 1.55-.55z" class="fat-11" transform="translate(-91.196 -806.255)"/>
                <path id="패스_700" d="M95.454 804.915c.029.041.25.329.672.059a16 16 0 0 1 1.9-1.438c.739-.359 1.875-.634 2.116-1.046a.869.869 0 0 0 .12-.624.239.239 0 0 1 .046.112c.684.736-1.751 1.287-2.781 2.241s-1.259 1.343-1.929.869a.456.456 0 0 1-.144-.173z" class="fat-12" transform="translate(-93.582 -800.008)"/>
                <path id="패스_701" d="M108.969 799.488a.725.725 0 0 0-.472-.783c-.579-.265-1.189-.05-1.138-.368s.887-.382 1.457.06.493 1.471.153 1.091z" class="fat-11" transform="translate(-101.528 -797.482)"/>
            </g>
            <g id="그룹_600" transform="translate(81.705 686.59)">
                <path id="패스_702" d="M128.376 795.109a2.3 2.3 0 0 0-2.119 1.234c-.977 1.462-1.838 3.877-.066 5.311s4.551 1.634 5.547-1.523a3.821 3.821 0 0 0-3.362-5.022z" class="fat-9" transform="translate(-125.165 -795.108)"/>
                <path id="패스_703" d="M131.6 803.894c-1.167-.593-1.145-1.368-.821-2.511.031-.114.067-.232.1-.354.413-1.342 1.06-1.147 1.06-1.147 1.462-.508 2.409 1.7 2.218 2.647a1.87 1.87 0 0 1-.081.277 1.781 1.781 0 0 1-2.476 1.088z" class="fat-10" transform="translate(-128.786 -798.243)"/>
                <path id="패스_704" d="M131.6 807.066c-1.167-.593-1.145-1.368-.821-2.511a3.214 3.214 0 0 0 .238 1.695 1.832 1.832 0 0 0 1.775.682 2.459 2.459 0 0 0 1.289-.958 1.781 1.781 0 0 1-2.481 1.092z" class="fat-12" transform="translate(-128.786 -801.415)"/>
                <path id="패스_705" d="M127.342 808.666a2.367 2.367 0 0 0 1.425 1.7c1.241.513 1.779.091 1.771.591s-1.536.591-2.574-.328-1.464-2.115-.622-1.963z" class="fat-11" transform="translate(-126.32 -804.151)"/>
                <path id="패스_706" d="M137.381 797.421a2.958 2.958 0 0 1 1.2.821c.6.649.608 1.009.321.869s-.319-.47-.992-.966-.972-.79-.529-.724z" class="fat-11" transform="translate(-133.181 -796.646)"/>
            </g>
            <g id="그룹_601" transform="translate(78.183 683.502)">
                <path id="패스_707" d="M114.7 789.619a4 4 0 0 0 2.653 2.323c1.97.478 3.766-1.877 2.482-4.489s-6.108-2.236-5.135 2.166z" class="fat-13" transform="translate(-114.568 -785.818)"/>
                <path id="패스_708" d="M116.342 792.3c.054.63 1.43 1.637 1.838 1.737a1.948 1.948 0 0 0 2.422-1.359c.445-1.392-.552-2.777-1.307-2.4s.117 1.8-.573 2.283-.738-1.6-1.6-1.487-.817.796-.78 1.226z" class="fat-14" transform="translate(-115.741 -788.751)"/>
                <path id="패스_709" d="M116.907 793.057a.445.445 0 0 1 .007-.631.387.387 0 0 1 .6-.067s.1-.264.272-.183.129.371.129.371.341.128.289.383a.342.342 0 0 1-.23.292s.5.061.463.395-.1.371-.1.371.209-.311.389-.245l.18.066a.9.9 0 0 1 .3-.543.478.478 0 0 1 .41-.115.565.565 0 0 1 .04-.5l.157-.205s-.126-.271-.048-.426l.077-.156s-.41-.109-.213-.589.537.1.537.1.2-.255.38.078a.492.492 0 0 1 0 .552.754.754 0 0 1 .359.581c.064.439-.2.545-.2.545a.406.406 0 0 1-.062.442.478.478 0 0 1-.325.167.981.981 0 0 1-.679.568l-.513.118s-.309.173-.446.1-.147-.156-.147-.156-.364-.011-.462-.19l-.1-.179s-.425-.177-.469-.336l-.044-.159s-.558.182-.551-.449z" class="fat-15" transform="translate(-116.045 -789.334)"/>
                <path id="패스_710" d="M118.1 788.9s.32-.537 1.452-.448 2.246.916 2.273 1.6-.627.372-1.332-.214-1.347-.842-1.8-.619-.916-.046-.593-.319z" class="fat-16" transform="translate(-116.856 -787.571)"/>
                <path id="패스_711" d="M120 800.315a.41.41 0 0 1 .477-.5c.569.045.968.422 1.573.212s1.14-.274.808.3-.923.64-1.647.517-1.149-.268-1.211-.529z" class="fat-16" transform="translate(-118.189 -795.161)"/>
            </g>
            <path id="패스_712" d="M93.342 695.512c-2.336-.915-9.494-1.622-15.264.18-5.943 1.859-10.078 7.9-10.331 8.273 5.088-9.7 13.983-10.069 13.983-10.069a23.175 23.175 0 0 1 11.612 1.616z" class="fat-4" transform="translate(-5.127 -40.863)"/>
        </g>
    </g>
</svg>
