<svg xmlns="http://www.w3.org/2000/svg" width="36.601" height="45" viewBox="0 0 36.601 45">
    <g>
        <path fill="#dadcde" d="M4.647 0A4.655 4.655 0 0 0 0 4.649v35.7A4.655 4.655 0 0 0 4.647 45h27.3a4.655 4.655 0 0 0 4.653-4.649V10.994a3.847 3.847 0 0 0-.3-1.7 4.7 4.7 0 0 0-.92-1.33v-.006L28.6 1.319l-.011-.011a5.358 5.358 0 0 0-1.438-.919A5.248 5.248 0 0 0 25.1 0H4.647z"/>
        <path fill="#fff" d="M12.028 8.909h20.485a4.36 4.36 0 0 1 1.417.265 3.885 3.885 0 0 1 .988.624l6.757 6.628a3.731 3.731 0 0 1 .6.872 3.31 3.31 0 0 1 .169 1.01V47.73a3.1 3.1 0 0 1-3.12 3.122h-27.3a3.1 3.1 0 0 1-3.12-3.122v-35.7a3.1 3.1 0 0 1 3.12-3.122z" transform="translate(-7.381 -7.382)"/>
        <path fill="#ff2116" d="M51.534 72.34c-1.262-1.262.1-3 3.81-4.839l2.332-1.159.908-1.988c.5-1.093 1.246-2.877 1.657-3.964l.749-1.976-.516-1.463c-.635-1.8-.861-4.5-.458-5.473.545-1.316 2.331-1.181 3.038.23.552 1.1.5 3.1-.159 5.615l-.536 2.063.473.8a27.808 27.808 0 0 0 1.688 2.329l1.256 1.562 1.563-.2c4.961-.649 6.661.452 6.661 2.03 0 1.992-3.9 2.157-7.172-.142a9.946 9.946 0 0 1-1.242-1.031s-2.051.417-3.06.69c-1.042.281-1.562.457-3.089.972 0 0-.536.778-.885 1.343a14.471 14.471 0 0 1-3.9 4.482c-1.207.711-2.478.759-3.118.119zm1.981-.708a14.939 14.939 0 0 0 3.14-3.714l.4-.638-1.833.921c-2.831 1.423-4.125 2.765-3.452 3.576.378.456.831.418 1.743-.145zm18.385-5.16a1.065 1.065 0 0 0-.191-1.861 5.153 5.153 0 0 0-2.689-.347c-.975.067-2.542.263-2.808.323 0 0 .861.595 1.243.814a16.531 16.531 0 0 0 2.645 1.106c.891.272 1.406.244 1.8-.035zM64.508 63.4a18.112 18.112 0 0 1-1.587-2.048 11.409 11.409 0 0 1-.889-1.325s-.433 1.393-.788 2.23L60.136 65l-.321.621s1.708-.56 2.577-.787c.92-.24 2.788-.608 2.788-.608zm-2.382-9.554a4.014 4.014 0 0 0-.136-2.246c-.8-.876-1.768-.146-1.6 1.937a14.192 14.192 0 0 0 .462 2.636l.423 1.342.3-1.011a26.5 26.5 0 0 0 .558-2.655z" transform="translate(-43.691 -37.75)"/>
    </g>
</svg>
