<svg xmlns="http://www.w3.org/2000/svg" width="96" height="96" viewBox="0 0 96 96">
    <defs>
        <style>
            .kidney-2,.kidney-9{fill:#210404}.kidney-2{opacity:.15}.kidney-4{fill:#dec4b4}.kidney-10,.kidney-14{fill:#fff}.kidney-9{opacity:.25}.kidney-7{fill:#618fd3}.kidney-8{fill:#90311f}.kidney-10{opacity:.13}.kidney-11{fill:#d21d22}.kidney-13{opacity:.09}
        </style>
    </defs>
    <g id="kidney_07" transform="translate(-202)">
        <g id="그룹_438" transform="translate(168 -424.324)">
            <g id="그룹_413" transform="translate(89.273 438.324)">
                <g id="그룹_410">
                    <g id="그룹_409">
                        <g id="그룹_408">
                            <path id="패스_535" fill="#522923" d="M185.389 464.989c.511 3.128 2.289 8.192-.6 10.037-3.1 1.977-4.645 9.691-2.719 12.82 2.48 4.029 6.107 6.232 9.835 6.232 8.618 0 19.241-12.784 19.241-28.18s-10.623-27.574-19.241-27.574c-5.1 0-11.867 3.819-12.475 11.127-.263 3.159.473 9.217 4.423 9.554 2.716.231.902 2.095 1.536 5.984z" transform="translate(-179.381 -438.324)"/>
                        </g>
                    </g>
                </g>
                <g id="그룹_412" transform="translate(.506 .525)">
                    <g id="그룹_411">
                        <path id="패스_536" d="M186.371 466.01c-.04 2.222 2.592 5.971 1.674 8.126a1.315 1.315 0 0 0 .619 1.669c.741.388 1.474.81 1.382.918a11.6 11.6 0 0 1-2.819-.377 2.32 2.32 0 0 0-2.287.872c-2.186 2.855-3.012 8.816-1.338 11.536 2.48 4.029 5.514 5.708 9.242 5.708 8.618 0 18.675-12.172 18.675-27.568s-10.057-27.024-18.675-27.024c-5.1 0-11.313 3.448-11.921 10.755-.231 2.774.29 6.568 2.969 8.66a2.235 2.235 0 0 0 1.881.4c1.442-.334 4.063-.9 4.2-.678.156.264-3.038 2.322-2.955 2.666.29 1.227-.623 2.978-.647 4.337z" class="kidney-2" transform="translate(-180.873 -439.87)"/>
                        <path id="패스_537" fill="#9d5d4a" d="M194.648 495.4c-3.316 0-6.467-2.029-8.644-5.566-1.249-2.03-.585-6.806.966-9.425a2.1 2.1 0 0 1 2.251-.98l.09.019a14.331 14.331 0 0 0 2.362.4 1.51 1.51 0 0 0 1.2-.517l.44-.515-.126-.691a2.282 2.282 0 0 0-1.569-2.22 1.012 1.012 0 0 1-.541-.994c.125-1.42-.886-2.642-1.161-4.154a16.988 16.988 0 0 1-.384-3.023c0-.216.009-.439.016-.667a20.872 20.872 0 0 0-.069-3.064c.363-.249.866-.571 1.215-.795 1.875-1.2 3.006-1.923 2.241-3.214a1.506 1.506 0 0 0-1.345-.725 12.708 12.708 0 0 0-2.974.716l-.508.153a2 2 0 0 1-1.918-.412c-2.07-1.9-2.8-5.305-2.623-7.439.558-6.716 6.943-9.845 11.082-9.845 3.841 0 8.228 2.787 11.735 7.455a31.3 31.3 0 0 1 6.109 18.721c-.002 14.426-9.814 26.782-17.845 26.782z" transform="translate(-182.635 -441.571)"/>
                    </g>
                </g>
                <path id="패스_538" d="M213.471 476.2c-.615-1.971-1.7-2.386-2.5-2.386A4.73 4.73 0 0 0 208 475.3a9.992 9.992 0 0 0-1.5 1.868l-.593.316a1.5 1.5 0 0 1-.7.188 1.616 1.616 0 0 1-1.461-1.189 1.5 1.5 0 0 1 .608-1.758l2.529-1.791a8.184 8.184 0 0 0 1.745.209c1.826 0 2.973-.853 3.22-2.409l.014-.06-.01-.065a19.154 19.154 0 0 0-.359-2 6.28 6.28 0 0 0-1.007-2.283 2.522 2.522 0 0 0-1.989-1.239c-1.035 0-2 .857-2.949 2.637a11.055 11.055 0 0 0-.825 2.324l-.481.606a.988.988 0 0 1-.794.4 1.148 1.148 0 0 1-.937-.5.977.977 0 0 1-.057-.968l1.146-2.675a5.427 5.427 0 0 0 3.109-1.962 2.615 2.615 0 0 0 .187-2.334l-.019-.06-.037-.051a19.771 19.771 0 0 0-1.272-1.589 6.325 6.325 0 0 0-1.971-1.528 3.412 3.412 0 0 0-1.417-.359 1.83 1.83 0 0 0-1.351.545c-.624.624-.918 1.733-.9 3.4a10.575 10.575 0 0 0 .355 2.386l-.109.844c-.016.13-.037.26-.069.4a.807.807 0 0 1-.827.678.831.831 0 0 1-.875-.81c-.033-.562-.044-1.133-.032-1.743l.016-.8c.648-1.15 1.439-2.947 1.024-4.319a2.361 2.361 0 0 0-1.552-1.57l-.065-.023h-.065c-.019 0-.387-.028-.983-.028-.391 0-.787.009-1.179.033a7.012 7.012 0 0 0-2.637.634 2.993 2.993 0 0 0-1.924 2.115c-.149 1.007.452 2.129 1.794 3.341a10.012 10.012 0 0 0 2.011 1.3l.389.555c1.065 1.518.7 4 .211 5.816a1.977 1.977 0 0 1-1.351 1.385c-.11.033-.214.062-.319.092l.652 10.3c.042 0 .062.992.1.992.631 0 .562.426.735 1.037.32 1.119 1.26 4.926-.1 6.95l-.375.559a10.419 10.419 0 0 0-1.974 1.28c-1.328 1.2-1.929 2.325-1.78 3.331a3.007 3.007 0 0 0 1.924 2.12 7.1 7.1 0 0 0 2.637.629c.391.023.787.033 1.179.033.6 0 .965-.023.983-.023h.065l.065-.028a2.362 2.362 0 0 0 1.552-1.57c.571-1.885-1.133-4.572-1.6-5.254l.4-.164c-.108-.723-.185-1.391-.234-2.044a1.159 1.159 0 0 1 .289-.9 1.294 1.294 0 0 1 .938-.395 1.131 1.131 0 0 1 1.114.82 7.233 7.233 0 0 1 .32 1.344l.11.856a10.671 10.671 0 0 0-.352 2.392c-.014 1.65.28 2.758.9 3.383a1.834 1.834 0 0 0 1.351.55 3.424 3.424 0 0 0 1.417-.364 6.25 6.25 0 0 0 1.971-1.528 18.817 18.817 0 0 0 1.272-1.589l.037-.051.019-.06a2.614 2.614 0 0 0-.186-2.334 5.476 5.476 0 0 0-3.171-1.99l-.3-.433c-.515-.754-1.53-2.283-2.527-4.057a.577.577 0 0 1 0-.593.584.584 0 0 1 .78-.249 8.373 8.373 0 0 1 2.334 1.55l.495.509a11.387 11.387 0 0 0 .762 2.022c.941 1.766 1.906 2.623 2.94 2.623a2.523 2.523 0 0 0 1.989-1.239 6.283 6.283 0 0 0 1.007-2.283 19.135 19.135 0 0 0 .359-2l.01-.065-.014-.06c-.247-1.552-1.393-2.409-3.22-2.409a8.169 8.169 0 0 0-1.733.209l-2.256-1.649a1.566 1.566 0 0 1 .891-2.831 1.8 1.8 0 0 1 .214.013c.375.046.715.1 1 .142l.851.137a7.106 7.106 0 0 0 3.677 1.523 2.39 2.39 0 0 0 2.231-1.417l.028-.065.014-.065a19.918 19.918 0 0 0 .224-2.134 7.129 7.129 0 0 0-.285-2.52zm-8.4-6.022a4.459 4.459 0 0 0 .3-.776c-.107.419-.522 2.474 1.4 3.038l-.377-.1c-.326-.088-.565-.173-.689-.218a.783.783 0 0 1-.533-.46 1.65 1.65 0 0 1-.115-.706zm-7.121 24.567a2.65 2.65 0 0 0-3.574-.923 3.064 3.064 0 0 0 .553-.38l.7-.2a2.465 2.465 0 0 1 .657-.1 1.055 1.055 0 0 1 .974.507.969.969 0 0 0 .1.144l.392-.163c.111.689.203 1.111.203 1.111zm0-30.991l-.454.724c-.1.167-.179.272-.2.3l-.022.027-.018.03a1.065 1.065 0 0 1-.968.5 2.169 2.169 0 0 1-.593-.089l-.751-.216a3.393 3.393 0 0 0-.515-.352 2.629 2.629 0 0 0 3.523-.946zm3.184 29.354l.361-.678c.39-.731.8-.731.93-.731a1.134 1.134 0 0 1 .245.029c.069.008.266.039.545.1l.5.114c-1.878-.405-2.521 1.412-2.67 1.938a4.383 4.383 0 0 0 .092-.78zm1.026-26.349a.907.907 0 0 1-.2.021c-.134 0-.542 0-.925-.729l-.366-.7a4.513 4.513 0 0 0-.089-.763c.149.527.792 2.344 2.67 1.938v.01l-.333.076c-.341.078-.6.118-.7.135zm3.019 19.587a.826.826 0 0 1 .569-.469c.028-.011.28-.1.668-.211l.357-.1c-1.98.578-1.486 2.735-1.4 3.071a2.243 2.243 0 0 0-.2-.467l-.093-.789a2.016 2.016 0 0 1 .102-1.04zm2.571-5.882l-.648-.536c-.139-.115-.231-.193-.252-.213l-.025-.026-.03-.021a1.013 1.013 0 0 1-.4-.762 2.132 2.132 0 0 1 .163-.841l.242-.649a3.388 3.388 0 0 0 .477-.562 2.638 2.638 0 0 0 .536 3.625z" class="kidney-2" transform="translate(-187.04 -451.313)"/>
            </g>
            <g id="그룹_414" transform="translate(84.728 451.731)">
                <path id="패스_539" d="M187.849 496.916l1.938 1.416c-.373.1-.634.2-.708.224a1.256 1.256 0 0 0-.829.713 2.456 2.456 0 0 0-.131 1.286 8.975 8.975 0 0 0-2.465-1.645 1.069 1.069 0 0 0-1.389 1.491c.988 1.757 2 3.294 2.549 4.091-.3-.07-.517-.1-.592-.112a1.383 1.383 0 0 0-.3-.033 1.554 1.554 0 0 0-1.342.979 7.775 7.775 0 0 0-.34-1.43 1.67 1.67 0 0 0-3.247.657c.06.806.153 1.519.238 2.078a.831.831 0 0 1-.051-.07 1.533 1.533 0 0 0-1.393-.769 2.942 2.942 0 0 0-.783.121c1.272-1.9.764-5.223.158-7.338a1.885 1.885 0 0 0-2.11-1.351 7.438 7.438 0 0 0-3.448 1.319c-2.339 2.1-2.106 8.876-2.106 8.876l1.486 22.3a2.08 2.08 0 0 1-2.078 2.222h-1.98a1.123 1.123 0 0 1-1.123-1.058c-.5-8.317-1.146-18.852-1.728-27.9-.872-13.6 5.186-15.488 8.312-15.572a15.286 15.286 0 0 0 3.29-.685 2.454 2.454 0 0 0 1.668-1.71c.484-1.789.918-4.5-.28-6.206a2.633 2.633 0 0 0 .722.107 1.513 1.513 0 0 0 1.37-.732c.019-.023.107-.145.233-.345-.01.466-.01 1.077.033 1.78a1.327 1.327 0 0 0 2.623.2c.033-.145.056-.289.075-.433a1.542 1.542 0 0 0 1.337.979 1.383 1.383 0 0 0 .3-.033c.089-.014.368-.056.755-.145l-1 2.339a1.517 1.517 0 0 0 2.581 1.542 2.094 2.094 0 0 0 .158.909 1.245 1.245 0 0 0 .829.713c.075.028.331.121.694.219l-2.2 1.561c-2.083 1.468-.117 4.7 2.045 3.55a2.586 2.586 0 0 0-.191 1.03 1.479 1.479 0 0 0 .592 1.114c.019.019.121.107.284.242-.289-.046-.634-.1-1.016-.144a2.03 2.03 0 0 0-1.44 3.653z" class="kidney-4" transform="translate(-165.987 -477.84)"/>
                <path id="패스_540" fill="#fff" d="M169.181 534.418c-.474-7.836-1.143-18.779-1.739-28.08-.379-5.915.525-10.115 2.686-12.481a6.489 6.489 0 0 1 4.72-2.1 14.993 14.993 0 0 0 3.523-.722 3.358 3.358 0 0 0 2.293-2.3 11.65 11.65 0 0 0 .447-4.837 2.249 2.249 0 0 0 2.085 1.323 2.19 2.19 0 0 0 2.12-1.5 2.708 2.708 0 0 0 .484.206l-.707 1.65a2.386 2.386 0 0 0 .176 2.291 2.547 2.547 0 0 0 2.1 1.131 2.352 2.352 0 0 0 1.331-.411 2.7 2.7 0 0 0 .326.439l-1.561 1.1a2.889 2.889 0 0 0-1.132 3.323 3.026 3.026 0 0 0 2.8 2.166 2.757 2.757 0 0 0 .677-.085c.011.075.025.15.042.224h-.017a3.168 3.168 0 0 0-.38-.023 2.917 2.917 0 0 0-2.846 2.235 3.015 3.015 0 0 0 1.188 3.172l1.255.914a2.8 2.8 0 0 0-.471.7 11.437 11.437 0 0 0-2.084-1.259 1.987 1.987 0 0 0-.869-.2 2.021 2.021 0 0 0-1.885 1.351 2.063 2.063 0 0 0 .182 1.7c.307.544.615 1.065.91 1.549a2.515 2.515 0 0 0-1.713-.644 2.678 2.678 0 0 0-1.962.841l-.007.008a16.857 16.857 0 0 0-.658-4.35 2.819 2.819 0 0 0-3.154-2.015 8.107 8.107 0 0 0-3.926 1.545c-2.584 2.326-2.436 8.864-2.41 9.6l1.488 22.331a1.144 1.144 0 0 1-1.142 1.22zm16.614-26.6q-.088-.366-.213-.746c.149.232.29.449.42.646-.07.03-.139.064-.202.1z" opacity="0.35" transform="translate(-166.893 -481.721)"/>
            </g>
            <g id="그룹_416" transform="translate(61.778 465.94)">
                <g id="그룹_415">
                    <path id="패스_541" d="M104.026 529.917a2.6 2.6 0 0 1 3.959 1.688c.651 3.379 1.44 10 1.3 21.941-.015 1.271-.065 2.422-.146 3.464a1.979 1.979 0 0 0 1.977 2.13h.646a2.3 2.3 0 0 0 2.3-2.312c-.083-11.04-.1-26.393-.831-29.763-1.168-5.373-6.981-6.458-6.981-6.458a8.65 8.65 0 0 0-6.541-.467c-3.738 1.168 1.4 11.914 1.4 11.914a33.228 33.228 0 0 1 2.917-2.137z" class="kidney-4" transform="translate(-98.345 -519.719)"/>
                    <path id="패스_542" fill="#fff" d="M105.983 527.332a3.965 3.965 0 0 1 3.64-.34 4.137 4.137 0 0 1 2.461 3.11c.675 3.579 1.433 10.284 1.294 22.062a47.646 47.646 0 0 1-.364 5.641 1.182 1.182 0 0 0 1.176 1.334 1.186 1.186 0 0 0 1.186-1.2c-.016-1.741-.029-3.78-.045-6.175-.068-10.219-.151-22.937-.774-25.8-.951-4.375-5.676-5.343-5.871-5.38l-.237-.048-.2-.114a6.951 6.951 0 0 0-3.123-.7 7.726 7.726 0 0 0-2.305.357c-.071.022-.145.045-.227.234-.6 1.383.523 5.163 1.763 8.147.479-.36 1.043-.753 1.626-1.128z" opacity="0.25" transform="translate(-101.041 -519.719)"/>
                </g>
            </g>
            <g id="그룹_425" transform="translate(54.605 445.46)">
                <g id="그룹_417" transform="translate(0 10.627)">
                    <path id="패스_543" d="M99.053 494.989a1.51 1.51 0 0 0-1.345.387l-.174.122-.539.379c-3.242 2.289-6.557 4.647-10.434 5.408a25.171 25.171 0 0 1-7.476.018c-.261-.026-.518-.057-.779-.083-1.3-.139-1.593-1.362-.1-1.327a28.9 28.9 0 0 0 4.673-.044 35.606 35.606 0 0 0 5.074-.9 17.9 17.9 0 0 0 8.746-5.644 16.892 16.892 0 0 0 1.849-2.628c.165 1.436.335 2.876.505 4.312z" class="kidney-7" transform="translate(-77.204 -490.677)"/>
                    <path id="패스_544" d="M102.169 510.99c-.082.626-.161 1.253-.248 1.88a68.386 68.386 0 0 0 .122-11.17c0-.039-.008-.082-.013-.122-3.242 2.289-6.557 4.647-10.434 5.409a25.16 25.16 0 0 1-7.476.013c.131-.187.4-.274.844-.226a18.151 18.151 0 0 0 8.942-1.153 27.8 27.8 0 0 0 8.006-5.2c.152-.135.3-.274.457-.414.083.4.148.788.2 1.188a37.741 37.741 0 0 1-.4 9.795z" class="kidney-2" transform="translate(-81.774 -496.845)"/>
                </g>
                <g id="그룹_418" transform="translate(39.067)">
                    <path id="패스_545" d="M204.695 474.915s-.042.368-.06.992c-.126.2-.214.322-.233.345a1.513 1.513 0 0 1-1.37.731 2.633 2.633 0 0 1-.722-.107 3.257 3.257 0 0 0-1.137-1.016 2.629 2.629 0 0 0 3.522-.945z" class="kidney-4" transform="translate(-198.178 -469.636)"/>
                    <path id="패스_546" d="M194.027 459.977c-1.428.671-2.912 2.076-.031 4.681 0 0 3.214 2.7 4.2 1.043 0 0 3.7-5.084.4-6.32a19.09 19.09 0 0 0-2.1.007 6.63 6.63 0 0 0-2.469.589z" class="kidney-8" transform="translate(-192.348 -459.356)"/>
                    <path id="패스_547" d="M198.109 466.681a6.283 6.283 0 0 1-2.905-1.473c-1.057-.955-1.569-1.821-1.469-2.49s.816-1.139 1.4-1.413a6.158 6.158 0 0 1 2.293-.545c.373-.02.752-.031 1.127-.031.416 0 .719.013.848.02a1.454 1.454 0 0 1 .926.943c.425 1.416-1.013 3.831-1.6 4.642a.641.641 0 0 1-.614.347z" class="kidney-2" transform="translate(-193.256 -460.263)"/>
                    <path id="패스_548" d="M199.576 464.65a.722.722 0 0 1-.92.271 8.163 8.163 0 0 1-1.6-1.034c-.964-.872-1.174-1.456-1.147-1.639.017-.11.22-.4.874-.707a5.226 5.226 0 0 1 1.947-.458c.356-.019.718-.03 1.076-.03.261 0 .475.005.625.011a.451.451 0 0 1 .256.288c.213.712-.435 2.21-1.111 3.298z" class="kidney-2" transform="translate(-194.699 -460.477)"/>
                </g>
                <g id="그룹_419" transform="translate(53.557 15.827)">
                    <path id="패스_549" d="M236.941 517.211c-.06-.014-.429-.1-1-.191-.163-.135-.266-.224-.284-.242a1.479 1.479 0 0 1-.592-1.114 2.586 2.586 0 0 1 .191-1.03.838.838 0 0 0 .126-.07 3.29 3.29 0 0 0 1.025-.979 2.638 2.638 0 0 0 .534 3.626z" class="kidney-4" transform="translate(-235.056 -511.013)"/>
                    <path id="패스_550" d="M243.066 508.063c-.479-1.53-1.7-3.38-4.705-.7 0 0-3.033 2.905-1.488 4.06 0 0 4.658 4.222 6.24 1.078a19.047 19.047 0 0 0 .218-2.077 6.7 6.7 0 0 0-.265-2.361z" class="kidney-8" transform="translate(-235.967 -506.003)"/>
                    <path id="패스_551" d="M237.814 511.34a6.28 6.28 0 0 1 1.777-2.73c1.063-.948 1.978-1.364 2.634-1.193s1.044.933 1.254 1.542a6.16 6.16 0 0 1 .3 2.338c-.02.373-.05.751-.091 1.123-.018.169-.036.319-.053.446a1.435 1.435 0 0 1-.431.888 1.329 1.329 0 0 1-.664.326c-1.453.271-3.7-1.418-4.443-2.092a.64.64 0 0 1-.279-.648z" class="kidney-2" transform="translate(-236.874 -506.912)"/>
                    <path id="패스_552" d="M243.833 512.569a6.43 6.43 0 0 1-3-1.471.723.723 0 0 1-.172-.945 8.091 8.091 0 0 1 1.2-1.48c1.01-.9 1.545-.971 1.684-.971a.288.288 0 0 1 .07.007c.107.029.373.262.608.944a5.237 5.237 0 0 1 .246 1.985c-.019.356-.048.717-.086 1.072-.017.161-.035.3-.051.424a.544.544 0 0 1-.133.32.4.4 0 0 1-.209.1.872.872 0 0 1-.157.015z" class="kidney-2" transform="translate(-238.692 -507.126)"/>
                </g>
                <g id="그룹_420" transform="translate(48.008 1.042)">
                    <path id="패스_553" d="M221.969 479.38l-.233.54c-.386.089-.666.13-.755.145a1.38 1.38 0 0 1-.3.033 1.542 1.542 0 0 1-1.337-.978 4.922 4.922 0 0 0-.042-1.677c.146.526.789 2.343 2.667 1.937z" class="kidney-4" transform="translate(-219.096 -472.348)"/>
                    <path id="패스_554" d="M221.709 462.745c-1.267-.6-3.035-.739-3.007 3.145 0 0 .161 4.2 1.8 3.8 0 0 5.416-.719 4.27-3.982a18.372 18.372 0 0 0-1.237-1.542 5.779 5.779 0 0 0-1.826-1.421z" class="kidney-8" transform="translate(-218.701 -462.427)"/>
                    <path id="패스_555" d="M220.657 469.914a7.027 7.027 0 0 1-.764-3.136c-.01-1.424.242-2.387.728-2.767a1.708 1.708 0 0 1 1.723.074 5.356 5.356 0 0 1 1.694 1.319c.232.261.461.533.681.809.244.306.414.538.485.638a1.653 1.653 0 0 1-.059 1.319c-.654 1.271-3.04 1.847-3.9 1.961a.515.515 0 0 1-.582-.217z" class="kidney-2" transform="translate(-219.488 -463.336)"/>
                    <path id="패스_556" d="M223.2 468.432a.722.722 0 0 1-.878-.525 9.584 9.584 0 0 1-.25-1.773c-.011-1.651.367-1.994.371-2a.234.234 0 0 1 .086-.011 1.749 1.749 0 0 1 .665.194 4.451 4.451 0 0 1 1.4 1.1c.22.248.439.507.648.77.155.195.278.358.363.472a.652.652 0 0 1-.037.479 4.077 4.077 0 0 1-2.368 1.294z" class="kidney-2" transform="translate(-220.929 -463.549)"/>
                </g>
                <g id="그룹_421" transform="translate(52.227 7.107)">
                    <path id="패스_557" d="M233.317 494.666l-.5.349c-.363-.1-.62-.191-.694-.219a1.245 1.245 0 0 1-.829-.713 2.1 2.1 0 0 1-.158-.909 1.022 1.022 0 0 0 .065-.084 4.809 4.809 0 0 0 .708-1.458c-.102.415-.517 2.468 1.408 3.034z" class="kidney-4" transform="translate(-231.136 -487.785)"/>
                    <path id="패스_558" d="M237.54 481.348c-.829-1.129-2.315-2.1-4.143 1.329 0 0-1.861 3.764-.231 4.193 0 0 5.1 1.952 5.653-1.462a18.379 18.379 0 0 0-.352-1.945 5.78 5.78 0 0 0-.927-2.115z" class="kidney-8" transform="translate(-232.035 -480.302)"/>
                    <path id="패스_559" d="M233.752 486.854a7.019 7.019 0 0 1 .824-3.12c.67-1.257 1.351-1.983 1.96-2.085s1.141.426 1.479.887a5.367 5.367 0 0 1 .859 1.968c.079.34.151.688.212 1.035.069.386.107.671.122.792a1.652 1.652 0 0 1-.681 1.132c-1.181.8-3.553.172-4.367-.139a.515.515 0 0 1-.408-.469z" class="kidney-2" transform="translate(-232.849 -481.184)"/>
                    <path id="패스_560" d="M238.379 486.745a6.963 6.963 0 0 1-1.6-.217.735.735 0 0 1-.535-.907 9.622 9.622 0 0 1 .621-1.653 6.58 6.58 0 0 1 .7-1.088.725.725 0 0 1 1.139.015l.011.014a4.436 4.436 0 0 1 .7 1.628c.077.325.145.657.2.988.043.245.074.447.094.587a.643.643 0 0 1-.261.4 2.028 2.028 0 0 1-1.069.233z" class="kidney-2" transform="translate(-234.496 -481.828)"/>
                </g>
                <g id="그룹_422" transform="translate(39.067 34.223)">
                    <path id="패스_561" d="M204.595 562.291a2.65 2.65 0 0 0-3.574-.922 3.036 3.036 0 0 0 1.128-1.025 2.941 2.941 0 0 1 .783-.121 1.533 1.533 0 0 1 1.393.769.811.811 0 0 0 .051.07c.116.763.219 1.229.219 1.229z" class="kidney-4" transform="translate(-198.078 -560.222)"/>
                    <path id="패스_562" d="M194.027 567.856c-1.428-.672-2.912-2.077-.031-4.682 0 0 3.214-2.7 4.2-1.043 0 0 3.7 5.084.4 6.32a19.073 19.073 0 0 1-2.1-.007 6.638 6.638 0 0 1-2.469-.588z" class="kidney-8" transform="translate(-192.348 -561.128)"/>
                    <path id="패스_563" d="M198.109 562.966a6.283 6.283 0 0 0-2.905 1.473c-1.057.955-1.569 1.821-1.469 2.49s.816 1.139 1.4 1.413a6.153 6.153 0 0 0 2.293.545c.373.02.752.031 1.127.031.416 0 .719-.013.848-.02a1.455 1.455 0 0 0 .926-.943c.425-1.415-1.013-3.831-1.6-4.642a.641.641 0 0 0-.614-.347z" class="kidney-2" transform="translate(-193.256 -562.035)"/>
                    <path id="패스_564" d="M199.805 567.673c-.358 0-.72-.01-1.076-.029a5.222 5.222 0 0 1-1.947-.458c-.653-.307-.857-.6-.873-.706-.027-.184.183-.767 1.173-1.662a8.031 8.031 0 0 1 1.575-1.012.722.722 0 0 1 .919.271c.676 1.088 1.325 2.586 1.111 3.3a.451.451 0 0 1-.256.288c-.151.002-.365.008-.626.008z" class="kidney-2" transform="translate(-194.699 -562.544)"/>
                </g>
                <g id="그룹_423" transform="translate(48.474 32.778)">
                    <path id="패스_565" d="M223.343 556.683c-1.878-.405-2.521 1.412-2.669 1.938a4.906 4.906 0 0 0 .037-1.673 1.554 1.554 0 0 1 1.342-.979 1.382 1.382 0 0 1 .3.033c.075.01.289.042.592.112.249.359.398.569.398.569z" class="kidney-4" transform="translate(-220.47 -555.965)"/>
                    <path id="패스_566" d="M223.082 564.305c-1.267.6-3.035.739-3.007-3.145 0 0 .16-4.2 1.8-3.8 0 0 5.416.719 4.27 3.982a18.4 18.4 0 0 1-1.237 1.542 5.783 5.783 0 0 1-1.826 1.421z" class="kidney-8" transform="translate(-220.075 -556.872)"/>
                    <path id="패스_567" d="M222.03 558.959a7.023 7.023 0 0 0-.765 3.136c-.01 1.424.242 2.387.728 2.767a1.708 1.708 0 0 0 1.723-.074 5.365 5.365 0 0 0 1.694-1.319c.232-.261.461-.533.681-.808.244-.306.414-.538.485-.638a1.653 1.653 0 0 0-.059-1.32c-.654-1.271-3.04-1.847-3.9-1.961a.514.514 0 0 0-.582.217z" class="kidney-2" transform="translate(-220.861 -557.786)"/>
                    <path id="패스_568" d="M223.906 563.836a.24.24 0 0 1-.087-.011s-.382-.346-.37-2.026a9.468 9.468 0 0 1 .243-1.723.729.729 0 0 1 .883-.546 4.081 4.081 0 0 1 2.366 1.3.641.641 0 0 1 .037.478c-.085.114-.208.277-.363.472-.209.263-.428.522-.649.771a4.438 4.438 0 0 1-1.394 1.1 1.754 1.754 0 0 1-.665.193z" class="kidney-2" transform="translate(-222.304 -558.305)"/>
                </g>
                <g id="그룹_424" transform="translate(52.228 26.763)">
                    <path id="패스_569" d="M231.921 541.661a2.842 2.842 0 0 0-.755-1.2 2.456 2.456 0 0 1 .131-1.286 1.256 1.256 0 0 1 .829-.713c.075-.028.336-.121.708-.224l.484.354c-1.98.577-1.486 2.734-1.397 3.069z" class="kidney-4" transform="translate(-231.139 -538.237)"/>
                    <path id="패스_570" d="M237.54 544.642c-.829 1.129-2.315 2.1-4.143-1.329 0 0-1.861-3.764-.231-4.193 0 0 5.1-1.952 5.653 1.462a18.376 18.376 0 0 1-.352 1.946 5.781 5.781 0 0 1-.927 2.114z" class="kidney-8" transform="translate(-232.036 -538.453)"/>
                    <path id="패스_571" d="M233.752 540.9a7.021 7.021 0 0 0 .824 3.12c.67 1.257 1.351 1.983 1.96 2.085s1.141-.426 1.479-.887a5.37 5.37 0 0 0 .859-1.968c.079-.34.151-.688.212-1.035.069-.385.107-.67.122-.792a1.651 1.651 0 0 0-.681-1.131c-1.181-.8-3.553-.172-4.367.139a.515.515 0 0 0-.408.469z" class="kidney-2" transform="translate(-232.85 -539.336)"/>
                    <path id="패스_572" d="M238.707 544.072a.726.726 0 0 1-1.141.012 6.781 6.781 0 0 1-.714-1.111 9.456 9.456 0 0 1-.608-1.627.735.735 0 0 1 .535-.906 6.972 6.972 0 0 1 1.6-.217 2.028 2.028 0 0 1 1.079.23.651.651 0 0 1 .26.4c-.02.141-.051.342-.094.588-.059.33-.127.662-.2.986a4.443 4.443 0 0 1-.7 1.628z" class="kidney-2" transform="translate(-234.495 -539.55)"/>
                </g>
            </g>
            <g id="그룹_427" transform="translate(66.133 443.244)">
                <g id="그룹_426">
                    <path id="패스_573" d="M183.654 501.427a1.547 1.547 0 0 1-.219.207 2.879 2.879 0 0 1-.37.28 3.1 3.1 0 0 1-.525.259 4.787 4.787 0 0 1-1.408.346 11.527 11.527 0 0 1-1.653.045 7.867 7.867 0 0 1-1.6-.26c-.248-.065-.5-.128-.753-.172a1.77 1.77 0 0 0-.431-.048c.083-.049.169-.085.245-.132.425-.236.8-.474 1.126-.695s.6-.427.824-.6.4-.322.518-.414c.011-.01.018-.022.03-.032a.237.237 0 0 1-.033.019c-.135.083-.3.222-.543.373s-.528.338-.863.531-.721.409-1.15.606c-.3.14-.627.286-.965.411a2.8 2.8 0 0 0-.536.139 1.55 1.55 0 0 0-.308.138c-.043.029-.07.046-.085.053-.365.115-.746.232-1.139.32-.214.052-.432.092-.659.137.129-.119.253-.257.408-.409a8.271 8.271 0 0 0 1.042-1.333 5.127 5.127 0 0 0 .436-.863c.049-.128.087-.268.125-.4a.26.26 0 0 0 .087-.176.2.2 0 0 1 0-.065.2.2 0 0 0-.011-.093 2.206 2.206 0 0 0 .058-.236 10.491 10.491 0 0 0 .083-1.891 14.779 14.779 0 0 1 .027-1.611 1.992 1.992 0 0 1 .35-1.075.675.675 0 0 1 .231-.183.7.7 0 0 0-.251.161 2.126 2.126 0 0 0-.426 1.084c-.068.484-.1 1.04-.122 1.635a12.327 12.327 0 0 1-.1 1.324c-.085-.261-.177-.563-.285-.886a7.679 7.679 0 0 0-.406-.984c-.294-.659-.582-1.309-.754-1.826a4.6 4.6 0 0 1-.179-.624 1.446 1.446 0 0 1-.043-.231 1.277 1.277 0 0 0 .02.233 4.687 4.687 0 0 0 .143.641c.141.531.38 1.212.631 1.888a9.7 9.7 0 0 1 .325 1c.081.323.154.631.2.887a5.411 5.411 0 0 1 .1.633c0 .077.007.107.013.153a.284.284 0 0 0-.008.06v.026a.055.055 0 0 0 .01.038 4.992 4.992 0 0 1-.781 1.395c-.032.036-.059.073-.091.109l-.005.018c-.046.06-.093.113-.143.17-.111.124-.223.242-.333.356s-.195.194-.29.283c-.339.32-.642.569-.856.74-.072.05-.13.1-.183.136a.772.772 0 0 1-.089.078.063.063 0 0 0-.023 0 1.1 1.1 0 0 1-.126.012 15.331 15.331 0 0 1-1.687.085c-.29 0-.627-.028-.911-.049a5.355 5.355 0 0 1-.865-.119c-.47-.078-.926-.191-1.4-.266a1.442 1.442 0 0 0-.156-.032c-.07-.015-.14-.032-.211-.045a8.052 8.052 0 0 0-1.095-.086l-.274.007a4.349 4.349 0 0 0-.48.053.5.5 0 0 0-.1.025.108.108 0 0 0-.032.008c-.093.023-.18.053-.269.081q-.3.006-.6.005c.025-.05.05-.1.075-.146.583-1.149 1.137-2.223 1.755-3.211a25.717 25.717 0 0 1 1.863-2.667 22.569 22.569 0 0 1 1.823-2.074 8.193 8.193 0 0 1 1.645-1.293 4.868 4.868 0 0 1 1.234-.491c.152-.03.267-.049.349-.06a.182.182 0 0 0 .038-.01.209.209 0 0 1-.038 0 2.462 2.462 0 0 0-.346.029 4.567 4.567 0 0 0-1.3.387 8.2 8.2 0 0 0-1.8 1.186 22.509 22.509 0 0 0-2.017 1.944c-.164.169-.3.33-.456.51-.04.041-.083.086-.122.134h-.013v.01c0 .01-.01 0 0 .008s0 0-.011.01v.006c-.068.079-.14.155-.21.239-.009.005-.009.005-.007.012-.311.347-.617.729-.922 1.128-.05.068-.107.137-.16.209-.086.1-.151.2-.233.306-.712.955-1.375 2.029-2.048 3.12-.135.219-.274.439-.412.659-.219-.017-.44-.039-.665-.068a35.555 35.555 0 0 1-5.074-.9 17.893 17.893 0 0 1-8.746-5.643 16.932 16.932 0 0 1-1.849-2.628l-.509 4.312a1.51 1.51 0 0 1 1.345.387l.174.122c.178.126.357.252.539.378 3.242 2.289 6.557 4.647 10.434 5.409a24.022 24.022 0 0 0 7.04.062l.029.011c.246.107.607.254 1.019.474a11.04 11.04 0 0 1 1.362.837 5.392 5.392 0 0 1 1.287 1.241 17.485 17.485 0 0 1 .94 1.638 4.609 4.609 0 0 0 1.021 1.372 2.371 2.371 0 0 0 1.05.568 1.307 1.307 0 0 0 .335.045.375.375 0 0 0 .107 0c-.011 0-.052 0-.1-.011a2.391 2.391 0 0 1-.32-.09 2.345 2.345 0 0 1-.925-.662 4.59 4.59 0 0 1-.8-1.42c-.077-.191-.153-.393-.231-.6 0 0 0-.013-.007-.015a9.272 9.272 0 0 0-.524-1.215 6.483 6.483 0 0 0-1.162-1.444c-.063-.058-.115-.116-.173-.166-.094-.088-.187-.169-.28-.24-.275-.23-.545-.435-.81-.623.038-.019.072-.041.106-.062.154.017.311.04.478.056.222.027.439.053.674.077.307.029.625.059.965.059a.013.013 0 0 0 .017 0c.027.01.039.007.07.019.076.018.187.04.321.07.269.077.659.2 1.119.376a12.1 12.1 0 0 1 1.516.712 7.134 7.134 0 0 1 .8.5c.253.186.5.4.75.619.494.447.971.932 1.463 1.345a6.581 6.581 0 0 0 1.455.946 3.961 3.961 0 0 0 1.179.32 2.681 2.681 0 0 0 .443 0 2.856 2.856 0 0 1-.438-.046 3.32 3.32 0 0 1-1.123-.405 5.856 5.856 0 0 1-1.336-1.028c-.09-.1-.188-.186-.281-.294.052 0 .1.007.15.012a1.44 1.44 0 0 0 .519-.084 2.649 2.649 0 0 0 .519-.2 6.415 6.415 0 0 1 1.1-.4c.387-.1.776-.171 1.148-.244a3.687 3.687 0 0 1 1-.066 1.316 1.316 0 0 1 .648.24l.139.141a1.114 1.114 0 0 0-.132-.153 1.269 1.269 0 0 0-.645-.282 3.806 3.806 0 0 0-1.026.008c-.371.053-.767.1-1.165.191a6.244 6.244 0 0 0-1.144.339 2.288 2.288 0 0 1-.942.225 1.154 1.154 0 0 1-.554-.152c-.221-.249-.443-.487-.685-.738-.068-.077-.136-.155-.2-.223a.035.035 0 0 0-.02-.012l-.081-.091a.136.136 0 0 1-.034-.025 4.078 4.078 0 0 0-.387-.362c-.265-.221-.544-.417-.805-.6a13.881 13.881 0 0 0-1.4-.794.291.291 0 0 0 .093-.011c.017 0 .034-.012.051-.013l.012.007c.042-.008.072-.012.1-.02.122-.015.246-.034.369-.059.089-.013.18-.03.274-.044l.028-.011a.308.308 0 0 0 .152-.029 16.608 16.608 0 0 0 1.613-.42c.382-.127.755-.264 1.107-.4a.259.259 0 0 0 .126-.039.584.584 0 0 0 .063-.044c.112-.043.224-.1.329-.137a.771.771 0 0 0 .13-.064 4.168 4.168 0 0 1 .747-.14 2.553 2.553 0 0 1 .64.014c.234.035.481.082.745.14a7.558 7.558 0 0 0 1.655.172 10.676 10.676 0 0 0 1.676-.113 5.6 5.6 0 0 0 1.427-.416 4.48 4.48 0 0 0 .524-.3 2.2 2.2 0 0 0 .358-.3 1.08 1.08 0 0 0 .211-.211.184.184 0 0 0 .027-.038c-.019.027-.026.041-.039.054z" class="kidney-9" transform="translate(-133.987 -479.264)"/>
                    <path id="패스_574" d="M183.654 500.054a1.566 1.566 0 0 1-.219.207 2.885 2.885 0 0 1-.37.28 3.126 3.126 0 0 1-.525.259 4.786 4.786 0 0 1-1.408.346 11.58 11.58 0 0 1-1.653.045 7.892 7.892 0 0 1-1.6-.26c-.248-.065-.5-.128-.753-.172a1.788 1.788 0 0 0-.431-.048c.083-.049.169-.085.245-.132.425-.237.8-.474 1.126-.695s.6-.428.824-.6.4-.322.518-.414c.011-.01.018-.022.03-.032a.282.282 0 0 1-.033.019c-.135.083-.3.222-.543.373s-.528.338-.863.531-.721.409-1.15.605c-.3.141-.627.286-.965.412a2.8 2.8 0 0 0-.536.139 1.554 1.554 0 0 0-.308.138c-.043.029-.07.045-.085.053-.365.115-.746.232-1.139.32-.214.053-.432.092-.659.137.129-.119.253-.257.408-.409a8.274 8.274 0 0 0 1.042-1.333 5.129 5.129 0 0 0 .436-.862c.049-.128.087-.268.125-.4a.26.26 0 0 0 .087-.176.2.2 0 0 1 0-.064.2.2 0 0 0-.011-.093 2.191 2.191 0 0 0 .058-.237 10.489 10.489 0 0 0 .083-1.891 14.78 14.78 0 0 1 .027-1.611 1.992 1.992 0 0 1 .35-1.075.675.675 0 0 1 .231-.183.7.7 0 0 0-.251.161 2.126 2.126 0 0 0-.426 1.084c-.068.484-.1 1.04-.122 1.635a12.334 12.334 0 0 1-.1 1.324c-.085-.261-.177-.564-.285-.886a7.679 7.679 0 0 0-.406-.984c-.294-.659-.582-1.309-.754-1.826a4.6 4.6 0 0 1-.179-.624 1.436 1.436 0 0 1-.043-.23 1.276 1.276 0 0 0 .02.233 4.675 4.675 0 0 0 .143.64c.141.532.38 1.212.631 1.889a9.7 9.7 0 0 1 .325 1c.081.323.154.631.2.887a5.423 5.423 0 0 1 .1.633c0 .078.007.107.013.153a.288.288 0 0 0-.008.06v.025a.056.056 0 0 0 .01.038 4.992 4.992 0 0 1-.781 1.395c-.032.035-.059.073-.091.109l-.005.019c-.046.059-.093.113-.143.17-.111.124-.223.242-.333.356s-.195.193-.29.283c-.339.32-.642.569-.856.74-.072.05-.13.1-.183.136a.769.769 0 0 1-.089.078.065.065 0 0 0-.023 0 1.093 1.093 0 0 1-.126.013 15.308 15.308 0 0 1-1.687.085c-.29 0-.627-.027-.911-.048a5.323 5.323 0 0 1-.865-.119c-.47-.078-.926-.19-1.4-.266a1.456 1.456 0 0 0-.156-.032c-.07-.016-.14-.032-.211-.045a8 8 0 0 0-1.095-.086l-.274.006a4.441 4.441 0 0 0-.48.054.507.507 0 0 0-.1.025.116.116 0 0 0-.032.008c-.093.023-.18.053-.269.081q-.3.007-.6.006c.025-.05.05-.1.075-.146.583-1.149 1.137-2.223 1.755-3.211a25.757 25.757 0 0 1 1.863-2.667 22.525 22.525 0 0 1 1.823-2.074 8.18 8.18 0 0 1 1.645-1.293 4.867 4.867 0 0 1 1.234-.491c.152-.03.267-.049.349-.06a.166.166 0 0 0 .038-.01.2.2 0 0 1-.038 0 2.4 2.4 0 0 0-.346.029 4.564 4.564 0 0 0-1.3.386 8.21 8.21 0 0 0-1.8 1.187 22.462 22.462 0 0 0-2.017 1.944c-.164.169-.3.33-.456.51-.04.041-.083.086-.122.134h-.013v.01c0 .01-.01 0 0 .008s0 0-.011.01v.006c-.068.079-.14.156-.21.238-.009.006-.009.006-.007.012-.311.346-.617.729-.922 1.128-.05.068-.107.137-.16.208-.086.1-.151.2-.233.306-.712.954-1.375 2.029-2.048 3.12-.135.218-.274.439-.412.659-.219-.017-.44-.039-.665-.068a35.559 35.559 0 0 1-5.074-.9 17.9 17.9 0 0 1-8.746-5.643 16.932 16.932 0 0 1-1.849-2.628l-.509 4.312a1.509 1.509 0 0 1 1.345.387l.174.122.539.379c3.242 2.289 6.557 4.647 10.434 5.409a24.024 24.024 0 0 0 7.04.062l.029.011c.246.106.607.254 1.019.474a11 11 0 0 1 1.362.837 5.4 5.4 0 0 1 1.287 1.241 17.538 17.538 0 0 1 .94 1.638 4.607 4.607 0 0 0 1.021 1.372 2.364 2.364 0 0 0 1.05.568 1.312 1.312 0 0 0 .335.046.36.36 0 0 0 .107 0c-.011 0-.052 0-.1-.011a2.15 2.15 0 0 1-1.244-.752 4.591 4.591 0 0 1-.8-1.42c-.077-.191-.153-.393-.231-.6 0 0 0-.013-.007-.015a9.237 9.237 0 0 0-.524-1.215 6.482 6.482 0 0 0-1.162-1.444c-.063-.058-.115-.116-.173-.166-.094-.088-.187-.169-.28-.24-.275-.23-.545-.435-.81-.623a1.221 1.221 0 0 0 .106-.062c.154.017.311.04.478.056.222.027.439.053.674.077.307.029.625.059.965.059a.013.013 0 0 0 .017 0c.027.01.039.007.07.019.076.018.187.04.321.07.269.077.659.2 1.119.376a12.144 12.144 0 0 1 1.516.712 7.076 7.076 0 0 1 .8.5c.253.186.5.4.75.618.494.447.971.932 1.463 1.345a6.579 6.579 0 0 0 1.455.946 3.972 3.972 0 0 0 1.179.32 2.675 2.675 0 0 0 .443 0 2.842 2.842 0 0 1-.438-.046 3.333 3.333 0 0 1-1.123-.405 5.866 5.866 0 0 1-1.336-1.028c-.09-.1-.188-.186-.281-.295.052 0 .1.007.15.012a1.447 1.447 0 0 0 .519-.084 2.645 2.645 0 0 0 .519-.2 6.415 6.415 0 0 1 1.1-.4c.387-.1.776-.171 1.148-.244a3.688 3.688 0 0 1 1-.066 1.317 1.317 0 0 1 .648.24l.139.141a1.137 1.137 0 0 0-.132-.153 1.266 1.266 0 0 0-.645-.282 3.792 3.792 0 0 0-1.026.008c-.371.052-.767.1-1.165.191a6.238 6.238 0 0 0-1.144.339 2.29 2.29 0 0 1-.942.225 1.15 1.15 0 0 1-.554-.152c-.221-.249-.443-.487-.685-.737-.068-.078-.136-.155-.2-.223a.035.035 0 0 0-.02-.012l-.081-.091a.136.136 0 0 1-.034-.025 4.075 4.075 0 0 0-.387-.362c-.265-.221-.544-.417-.805-.6a13.949 13.949 0 0 0-1.4-.794.28.28 0 0 0 .093-.01c.017 0 .034-.013.051-.014l.012.007c.042-.007.072-.012.1-.02.122-.015.246-.034.369-.059.089-.013.18-.03.274-.044l.028-.011a.312.312 0 0 0 .152-.03 16.538 16.538 0 0 0 1.613-.42c.382-.127.755-.265 1.107-.4a.26.26 0 0 0 .126-.04.522.522 0 0 0 .063-.044c.112-.042.224-.1.329-.136a.768.768 0 0 0 .13-.064 4.1 4.1 0 0 1 .747-.14 2.551 2.551 0 0 1 .64.014c.234.034.481.082.745.14a7.536 7.536 0 0 0 1.655.172 10.637 10.637 0 0 0 1.676-.113 5.627 5.627 0 0 0 1.427-.416 4.48 4.48 0 0 0 .524-.3 2.2 2.2 0 0 0 .358-.3 1.085 1.085 0 0 0 .211-.211.184.184 0 0 0 .027-.038c-.02.025-.027.037-.04.051z" class="kidney-7" transform="translate(-133.987 -478.356)"/>
                    <path id="패스_575" d="M134.956 479.26c.109 6.688.392 13.367.748 20.046q.268 5.006.579 10.012a32.727 32.727 0 0 0 .165 4.5c.291 1.331 1.536 1.245 2.746 1.005.444-.087 1.445-.126 2.176-.318a1.43 1.43 0 0 0 .761-.4c.322-.431.022-1.728.013-2.219-.048-2.371-.087-4.743-.152-7.114-.122-4.651-.313-9.3-.674-13.941-.174-2.241-.383-4.482-.553-6.722a68.385 68.385 0 0 1-.122-11.17c0-.039.008-.082.013-.122.031-.387.074-.77.118-1.153.052-.474.117-.949.183-1.419.431-3.068 1.066-6.1 1.458-9.181.209-1.645.77-3.416.492-5.082-.3-1.749-2.594-1.836-3.912-1.4a2.3 2.3 0 0 0-1.3 1l-.013.026a9.43 9.43 0 0 0-.139 2.467c-.109 1.066-.265 2.128-.431 3.181-.322 2.023-.709 4.038-.97 6.07a83.423 83.423 0 0 0-1.186 11.934z" class="kidney-7" transform="translate(-126.887 -453.838)"/>
                    <path id="패스_576" d="M134.956 481.7c.109 6.688.392 13.367.748 20.046q.268 5.006.579 10.012a32.726 32.726 0 0 0 .165 4.5c.291 1.331 1.536 1.245 2.746 1.005.444-.087 1.445-.126 2.176-.318-1.632-2.167-2.137-5.1-2.541-7.849-1.714-11.618-3.333-23.379-2.219-35.066.322-3.376.87-6.722 1.27-10.086.152-1.288 1.04-4.616-.2-5.891a9.43 9.43 0 0 0-.139 2.467c-.109 1.066-.265 2.128-.431 3.181-.322 2.024-.709 4.038-.97 6.07a83.423 83.423 0 0 0-1.184 11.929z" class="kidney-2" transform="translate(-126.887 -456.28)"/>
                    <path id="패스_577" d="M150.216 515.11c.083.627.161 1.253.248 1.88a68.386 68.386 0 0 1-.122-11.17c0-.039.008-.082.013-.122 3.242 2.289 6.557 4.647 10.434 5.409a25.159 25.159 0 0 0 7.476.017c-.131-.187-.4-.274-.844-.226a18.144 18.144 0 0 1-8.942-1.153 27.793 27.793 0 0 1-8.006-5.2c-.152-.135-.3-.274-.457-.414-.083.4-.148.788-.2 1.188a37.756 37.756 0 0 0 .4 9.791z" class="kidney-2" transform="translate(-136.585 -486.724)"/>
                    <path id="패스_578" d="M146 548.2a11.247 11.247 0 0 1-.119 3.516 97.229 97.229 0 0 1-3.261-21.054c-.033-.743-.154-6.034 1.54-5.147.923.483.66 6.082.737 7.159q.555 7.76 1.103 15.526z" class="kidney-10" transform="translate(-131.945 -500.784)"/>
                    <path id="패스_579" d="M118.288 513.109v3.138h-2.32a1.067 1.067 0 0 1-.149.362c-.743 1.11-.891 2.289-1.845 3.825-.272.438-2.391 2.741-1.953 3.013a.935.935 0 0 0 1.287-.3c.9-1.444 1.847-2.823 2.7-3.943a4.953 4.953 0 0 1 2.513-1.744l-1.145-.515 2.424-1.045v1.355a4.754 4.754 0 0 1 2.4.568 19.107 19.107 0 0 1 3.2 2.754v-1.532h2.693v-1.449c-.586-.582-5.175-4.996-9.805-4.487z" class="kidney-9" transform="translate(-111.697 -492.629)"/>
                    <path id="패스_580" d="M114.722 513.562a23.077 23.077 0 0 0-2.319-.586 1.592 1.592 0 0 1-1.136-.813c-.518-1.008 1.481-.3 2.076-.213.978.142 1.411-.362 2.8.1l.043.015c5.112-1.945 10.735 3.463 11.381 4.109v5.766c-.61-.61-4.331-4.7-5.889-5.54a4.881 4.881 0 0 0-6.19 1.382c-.852 1.12-1.8 2.5-2.7 3.943a.935.935 0 0 1-1.287.3c-.438-.272 1.681-2.575 1.953-3.013.953-1.536 1.1-2.714 1.845-3.825a1.076 1.076 0 0 0-.577-1.625z" class="kidney-11" transform="translate(-111.181 -491.678)"/>
                    <path id="패스_581" d="M193.7 482.49a.892.892 0 0 1-.131.107 1.6 1.6 0 0 1-.564.256 3.953 3.953 0 0 1-.927.093c-.168 0-.34-.023-.531-.033a4.812 4.812 0 0 0-.573 0 14.82 14.82 0 0 0-1.724.191 11.584 11.584 0 0 0 1.207-1.141c.443-.5.783-.923 1.02-1.226.182-.228.3-.382.34-.442-.056.051-.191.2-.4.41-.27.28-.657.676-1.16 1.123a10.092 10.092 0 0 1-1.649 1.211c-.107.084-.251.163-.3.2a7.081 7.081 0 0 1-1.2.666 14.455 14.455 0 0 1-3.3.741 7.882 7.882 0 0 0-3.145 1.03 2.132 2.132 0 0 1 .545-.876c.168-.3.321-.61.466-.909l.331-.7.182-.321.2-.336a6.6 6.6 0 0 1 .494-.7.185.185 0 0 0 .14-.168c.089-.1.168-.214.261-.312a10.155 10.155 0 0 1 2.143-1.775 9.225 9.225 0 0 1 1.021-.564c.317-.158.61-.28.848-.373s.433-.154.564-.2a.908.908 0 0 0 .186-.06c-.019 0-.089.023-.2.047-.131.028-.336.075-.592.149s-.559.168-.908.3a11.327 11.327 0 0 0-1.114.471 11.833 11.833 0 0 0-2.292 1.482v-.051a3.131 3.131 0 0 1 .336-1.775 4.341 4.341 0 0 1 .689-.783 5.285 5.285 0 0 0 .639-.68 1.361 1.361 0 0 0 .275-.578c.009-.07.009-.13.014-.172v-.033a.117.117 0 0 1-.01.033.927.927 0 0 1-.028.168 1.327 1.327 0 0 1-.317.545 5.234 5.234 0 0 1-.689.629 4.184 4.184 0 0 0-.787.764 3.377 3.377 0 0 0-.536 1.868v.443a9.7 9.7 0 0 0-.9.95l-.247.322a3.746 3.746 0 0 0-.238.34l-.254.392-.165-.417-.234-.593a3.169 3.169 0 0 1-.188-.649 4.577 4.577 0 0 1-.053-.736l-.022-.785a3.67 3.67 0 0 0-.088-.8 3.33 3.33 0 0 0-.261-.734 4.059 4.059 0 0 0-.381-.612l-.368-.52-.76-1.074.7 1.115.339.54a3.886 3.886 0 0 1 .337.613 3.157 3.157 0 0 1 .209.709 3.442 3.442 0 0 1 .041.762l-.022.785a4.859 4.859 0 0 0 .015.782 3.5 3.5 0 0 0 .166.725l.2.6.089.267a1.022 1.022 0 0 1-.126.893c-.128.191-.26.376-.4.551l-.016.026a6.257 6.257 0 0 1-.8 1.34 1.748 1.748 0 0 1-1.462.641 3.348 3.348 0 0 0-1.32.214c-5.112-1.948-10.735 3.462-11.383 4.109v5.764c.61-.61 4.333-4.7 5.889-5.54a4.883 4.883 0 0 1 6.192 1.384c.056.07.107.14.163.214a10.013 10.013 0 0 0 1.37 1.556 11.906 11.906 0 0 0 1.388 1.757l.214.121a.571.571 0 0 1 .065.023 2.193 2.193 0 0 1 1.514 1.5.784.784 0 0 1 .033.1 1.545 1.545 0 0 1 .061.8 1.75 1.75 0 0 1-.284.643 5.567 5.567 0 0 1-1.7 1.677c-.014.014-.019.023-.037.028a.2.2 0 0 1-.046.033.123.123 0 0 0-.019.014 5.368 5.368 0 0 1-.76.5c-.089.051-.191.107-.284.154a4.064 4.064 0 0 1-1.174.359 3.136 3.136 0 0 1-.871 0c-.051-.009-.1-.019-.14-.023-.075-.019-.131-.033-.158-.037.028.009.079.023.154.047.037 0 .084.019.14.028a2.784 2.784 0 0 0 .885.051 4.206 4.206 0 0 0 1.23-.307 5.223 5.223 0 0 0 .736-.378 2.044 2.044 0 0 1-.2.252 14.647 14.647 0 0 0-1.141 1.361 2.585 2.585 0 0 0-.373.834 5.955 5.955 0 0 0-.13.755c-.037.326-.051.578-.061.68.023-.1.042-.349.1-.68.042-.219.1-.471.182-.736a2.5 2.5 0 0 1 .405-.8 15.71 15.71 0 0 1 1.2-1.314 3.925 3.925 0 0 0 .373-.466.873.873 0 0 0 .107-.172c.014-.009.037-.014.042-.028a5.9 5.9 0 0 0 1.058-.89 5.71 5.71 0 0 0 .676-.89c.009.07.014.144.023.219a13.933 13.933 0 0 1 0 1.654 16.435 16.435 0 0 1-1.058 4.99c-.14.377-.247.629-.284.732.051-.093.187-.34.363-.708.2-.415.443-1 .7-1.691.023.009.037.018.065.028a1.611 1.611 0 0 0 .168.116 2.942 2.942 0 0 1 .191.233 1.908 1.908 0 0 1 .182.321 2.7 2.7 0 0 1 .144.387 5.012 5.012 0 0 1 .177.9 7.948 7.948 0 0 1-.023 1.747 5.59 5.59 0 0 1-.121.741 6.353 6.353 0 0 0 .2-.736 8.452 8.452 0 0 0 .186-1.766 6.239 6.239 0 0 0-.084-.955c-.042-.149-.07-.293-.121-.433a1.9 1.9 0 0 0-.172-.382 1.994 1.994 0 0 0-.219-.307 1.894 1.894 0 0 0-.27-.214c-.075-.037-.126-.065-.168-.084a16.373 16.373 0 0 0 .666-2.772 7.182 7.182 0 0 0 2.134 1.66 8.033 8.033 0 0 1 1.123.732 3.3 3.3 0 0 1 .764.806 1.588 1.588 0 0 1 .27.7c.019.1.009.163.019.219v.037a.126.126 0 0 0 0-.042c0-.056.009-.121 0-.214a1.81 1.81 0 0 0-.224-.732 5.184 5.184 0 0 0-1.808-1.682 7.372 7.372 0 0 1-1.841-1.561 2.147 2.147 0 0 1-.335-.629l-.014-.06c.033-.349.065-.708.075-1.072a7.041 7.041 0 0 0-.182-1.784 4.258 4.258 0 0 0-.527-1.244 3.965 3.965 0 0 0 .745.023 4.11 4.11 0 0 0 1.3-.261.1.1 0 0 1 .023 0 .674.674 0 0 1 .093.01c.07.009.126.019.21.028a6.577 6.577 0 0 1 .8.228 6.653 6.653 0 0 1 1.058.494 2.389 2.389 0 0 1 .265.168l.112.089a1.525 1.525 0 0 1 .121.112 1.9 1.9 0 0 1 .363.471 1.448 1.448 0 0 1 .154 1.114 1.614 1.614 0 0 1-.633.89 2.155 2.155 0 0 1-.806.368 2.4 2.4 0 0 1-.317.033 1.15 1.15 0 0 0 .317 0 2.3 2.3 0 0 0 .909-.293 1.959 1.959 0 0 0 .485-.382 1.651 1.651 0 0 0 .373-.55 1.75 1.75 0 0 0 .116-.471 6.3 6.3 0 0 0 .787.652 4.062 4.062 0 0 0 1.044.54 2.288 2.288 0 0 0 .382.1c.075.009.121.019.14.019-.014 0-.061-.019-.131-.037a1.973 1.973 0 0 1-.359-.135 3.589 3.589 0 0 1-.9-.638 5.565 5.565 0 0 1-.7-.783c-.168-.233-.266-.4-.266-.4s-.009-.009-.019-.014-.023-.023-.028-.028c-.023-.056-.023-.107-.047-.158a2.391 2.391 0 0 0-.359-.634 1.108 1.108 0 0 0-.116-.135l-.135-.131a3.038 3.038 0 0 0-.275-.224 6.975 6.975 0 0 0-1.114-.671c-.163-.075-.326-.135-.466-.2.1-.07.2-.14.3-.214.27-.21.512-.424.755-.634a4.784 4.784 0 0 1 .736-.14 12.2 12.2 0 0 1 1.318-.065c.489-.009 1.006 0 1.542-.028a7.119 7.119 0 0 0 2.819-.685 2.837 2.837 0 0 0 .732-.54 1.959 1.959 0 0 0 .163-.186l.009-.019c0 .009-.009.009-.019.019a1.438 1.438 0 0 1-.172.177 2.8 2.8 0 0 1-.75.489 7.138 7.138 0 0 1-2.772.526c-.522 0-1.044-.023-1.537-.042a11.987 11.987 0 0 0-1.365.009.862.862 0 0 0-.149.014c.578-.494 1.146-.988 1.687-1.454a13.21 13.21 0 0 1 1.808-1.356 5.406 5.406 0 0 1 1.528-.634 3.362 3.362 0 0 1 .466-.084 1 1 0 0 0 .126-.019h-.126c-.112 0-.27.014-.475.042a5.707 5.707 0 0 0-1.631.536 10.428 10.428 0 0 0-1.048.587 7.052 7.052 0 0 1-1.067.918c-.429.373-.857.75-1.286 1.127a10.426 10.426 0 0 1-2.018 1.491 4.1 4.1 0 0 1-2.549.475 3.267 3.267 0 0 1-1.062-.415 18.114 18.114 0 0 1-1.77-1.78c-.95-1.538-1.1-2.712-1.845-3.825a1.077 1.077 0 0 1 .582-1.631c.555-.168 1.039-.783 1.524-1.183.075-.047.163-.1.27-.163l.307-.168c.014 0 .028-.009.037-.009a1.656 1.656 0 0 0 .843-.438l.3-.144c.307-.154.652-.308 1.016-.457.182-.075.368-.145.545-.2.1-.033.191-.056.289-.089a4.153 4.153 0 0 1 1.249.41c.214.112.429.233.652.331a2.192 2.192 0 0 0 .643.2 1.4 1.4 0 0 0 .457-.019 1.113 1.113 0 0 0 .13-.042l-.135.023a1.266 1.266 0 0 1-.443-.028 1.764 1.764 0 0 1-.573-.237c-.191-.116-.387-.256-.6-.392a4.311 4.311 0 0 0-.8-.41c.792-.214 1.677-.405 2.549-.652a13.954 13.954 0 0 0 1.412-.489 9.219 9.219 0 0 0 .829-.429 1.96 1.96 0 0 1 .186-.075 4.509 4.509 0 0 1 .6-.177 13.994 13.994 0 0 1 1.948-.359c.177-.009.363-.028.536-.028s.368 0 .54-.019a3.441 3.441 0 0 0 .936-.172 1.627 1.627 0 0 0 .554-.312.874.874 0 0 0 .117-.121v-.009c0-.009.004-.003-.004.001z" class="kidney-9" transform="translate(-146.695 -468.328)"/>
                    <path id="패스_582" d="M193.7 481.117a.851.851 0 0 1-.131.107 1.6 1.6 0 0 1-.564.257 3.956 3.956 0 0 1-.927.093c-.168 0-.34-.023-.531-.033a4.687 4.687 0 0 0-.573 0 14.74 14.74 0 0 0-1.724.191 11.62 11.62 0 0 0 1.207-1.141c.443-.5.783-.923 1.02-1.225.182-.228.3-.382.34-.443-.056.051-.191.2-.4.41-.27.28-.657.676-1.16 1.123a10.071 10.071 0 0 1-1.649 1.212c-.107.084-.251.163-.3.2a7.106 7.106 0 0 1-1.2.666 14.437 14.437 0 0 1-3.3.741 7.887 7.887 0 0 0-3.145 1.03 2.131 2.131 0 0 1 .545-.876c.168-.3.321-.61.466-.909l.331-.7.182-.322.2-.335a6.559 6.559 0 0 1 .494-.7.185.185 0 0 0 .14-.168c.089-.1.168-.214.261-.312a10.163 10.163 0 0 1 2.143-1.775 9.208 9.208 0 0 1 1.021-.564c.317-.158.61-.28.848-.373s.433-.154.564-.2a.93.93 0 0 0 .186-.061c-.019 0-.089.023-.2.047-.131.028-.336.074-.592.149s-.559.168-.908.3a11.238 11.238 0 0 0-1.114.471 11.816 11.816 0 0 0-2.292 1.482v-.059a3.131 3.131 0 0 1 .336-1.775 4.34 4.34 0 0 1 .689-.783 5.287 5.287 0 0 0 .639-.68 1.361 1.361 0 0 0 .275-.578c.009-.07.009-.131.014-.172v-.033a.117.117 0 0 1-.01.033.931.931 0 0 1-.028.168 1.329 1.329 0 0 1-.317.545 5.232 5.232 0 0 1-.689.629 4.185 4.185 0 0 0-.787.764 3.377 3.377 0 0 0-.536 1.868v.442a9.706 9.706 0 0 0-.9.951l-.247.321a3.758 3.758 0 0 0-.238.34l-.254.392-.165-.417-.234-.593a3.17 3.17 0 0 1-.188-.649 4.577 4.577 0 0 1-.053-.736l-.022-.785a3.67 3.67 0 0 0-.088-.8 3.329 3.329 0 0 0-.261-.734 4.056 4.056 0 0 0-.381-.612l-.368-.52-.76-1.074.7 1.115.339.54a3.9 3.9 0 0 1 .337.613 3.167 3.167 0 0 1 .209.709 3.445 3.445 0 0 1 .041.762l-.022.785a4.86 4.86 0 0 0 .015.782 3.512 3.512 0 0 0 .166.725l.2.6.089.267a1.021 1.021 0 0 1-.125.892c-.129.191-.261.376-.4.552l-.016.025a6.247 6.247 0 0 1-.807 1.342 1.743 1.743 0 0 1-1.458.638 3.136 3.136 0 0 0-1.086.139l-.51-.022c-5.037-1.659-10.473 3.57-11.109 4.207v5.764c.61-.61 4.333-4.7 5.889-5.54a4.883 4.883 0 0 1 6.192 1.384c.056.07.107.14.163.214a10.029 10.029 0 0 0 1.37 1.556 11.877 11.877 0 0 0 1.388 1.756l.214.121a.553.553 0 0 1 .065.023 2.194 2.194 0 0 1 1.514 1.5.807.807 0 0 1 .033.1 1.545 1.545 0 0 1 .061.8 1.751 1.751 0 0 1-.284.643 5.567 5.567 0 0 1-1.7 1.677c-.014.014-.019.023-.037.028a.187.187 0 0 1-.046.033s-.009 0-.019.014a5.363 5.363 0 0 1-.76.5c-.089.051-.191.107-.284.154a4.062 4.062 0 0 1-1.174.359 3.125 3.125 0 0 1-.871 0c-.051-.009-.1-.019-.14-.023-.075-.019-.131-.033-.158-.037l.154.046c.037 0 .084.019.14.028a2.783 2.783 0 0 0 .885.051 4.209 4.209 0 0 0 1.23-.308 5.218 5.218 0 0 0 .736-.377 2.046 2.046 0 0 1-.2.252 14.591 14.591 0 0 0-1.141 1.361 2.578 2.578 0 0 0-.373.834 5.953 5.953 0 0 0-.13.755c-.037.326-.051.578-.061.68.023-.1.042-.349.1-.68.042-.219.1-.471.182-.736a2.5 2.5 0 0 1 .405-.8 15.734 15.734 0 0 1 1.2-1.314 3.947 3.947 0 0 0 .373-.466.886.886 0 0 0 .107-.172c.014-.01.037-.014.042-.028a5.9 5.9 0 0 0 1.058-.89 5.678 5.678 0 0 0 .676-.89c.009.07.014.145.023.219a13.933 13.933 0 0 1 0 1.654 16.441 16.441 0 0 1-1.058 4.99c-.14.377-.247.629-.284.732.051-.093.187-.34.363-.708.2-.415.443-1 .7-1.691.023.009.037.019.065.028a1.619 1.619 0 0 0 .168.116 2.86 2.86 0 0 1 .191.233 1.878 1.878 0 0 1 .182.321 2.693 2.693 0 0 1 .144.387 5.011 5.011 0 0 1 .177.9 7.948 7.948 0 0 1-.023 1.747 5.578 5.578 0 0 1-.121.741 6.313 6.313 0 0 0 .2-.736 8.452 8.452 0 0 0 .186-1.766 6.238 6.238 0 0 0-.084-.955c-.042-.149-.07-.294-.121-.433a1.9 1.9 0 0 0-.172-.382 2 2 0 0 0-.219-.308 1.918 1.918 0 0 0-.27-.214c-.075-.037-.126-.066-.168-.084a16.369 16.369 0 0 0 .666-2.772 7.177 7.177 0 0 0 2.134 1.66 8.035 8.035 0 0 1 1.123.732 3.3 3.3 0 0 1 .764.806 1.586 1.586 0 0 1 .27.7c.019.1.009.163.019.219v.037a.125.125 0 0 0 0-.042c0-.056.009-.121 0-.214a1.807 1.807 0 0 0-.224-.732 5.187 5.187 0 0 0-1.808-1.682 7.371 7.371 0 0 1-1.841-1.561 2.15 2.15 0 0 1-.335-.629l-.014-.061c.033-.349.065-.708.075-1.071a7.043 7.043 0 0 0-.182-1.785 4.261 4.261 0 0 0-.527-1.244 3.96 3.96 0 0 0 .745.023 4.108 4.108 0 0 0 1.3-.261.089.089 0 0 1 .023 0 .674.674 0 0 1 .093.01c.07.009.126.019.21.028a6.573 6.573 0 0 1 .8.228 6.656 6.656 0 0 1 1.058.494 2.3 2.3 0 0 1 .265.168l.112.089a1.589 1.589 0 0 1 .121.112 1.9 1.9 0 0 1 .363.471 1.449 1.449 0 0 1 .154 1.114 1.614 1.614 0 0 1-.633.89 2.144 2.144 0 0 1-.806.368 2.363 2.363 0 0 1-.317.033 1.162 1.162 0 0 0 .317 0 2.3 2.3 0 0 0 .909-.294 1.942 1.942 0 0 0 .485-.382 1.646 1.646 0 0 0 .373-.55 1.752 1.752 0 0 0 .116-.471 6.27 6.27 0 0 0 .787.652 4.053 4.053 0 0 0 1.044.54 2.3 2.3 0 0 0 .382.1c.075.009.121.019.14.019-.014 0-.061-.019-.131-.037a2 2 0 0 1-.359-.135 3.581 3.581 0 0 1-.9-.639 5.568 5.568 0 0 1-.7-.783c-.168-.233-.266-.4-.266-.4s-.009-.01-.019-.014-.023-.023-.028-.028c-.023-.056-.023-.107-.047-.158a2.394 2.394 0 0 0-.359-.633 1.114 1.114 0 0 0-.116-.135l-.135-.131a3.032 3.032 0 0 0-.275-.224 7.006 7.006 0 0 0-1.114-.671c-.163-.074-.326-.135-.466-.2.1-.07.2-.14.3-.214.27-.21.512-.424.755-.634a4.737 4.737 0 0 1 .736-.14 12.21 12.21 0 0 1 1.318-.065c.489-.009 1.006 0 1.542-.028a7.125 7.125 0 0 0 2.819-.685 2.837 2.837 0 0 0 .732-.54 2 2 0 0 0 .163-.186l.009-.019c0 .009-.009.009-.019.019a1.413 1.413 0 0 1-.172.177 2.8 2.8 0 0 1-.75.489 7.132 7.132 0 0 1-2.772.527c-.522 0-1.044-.023-1.537-.042a11.98 11.98 0 0 0-1.365.009.862.862 0 0 0-.149.014c.578-.494 1.146-.988 1.687-1.453a13.217 13.217 0 0 1 1.808-1.356 5.415 5.415 0 0 1 1.528-.633 3.351 3.351 0 0 1 .466-.084 1 1 0 0 0 .126-.019h-.126c-.112 0-.27.014-.475.042a5.691 5.691 0 0 0-1.631.536 10.409 10.409 0 0 0-1.048.587 7.076 7.076 0 0 1-1.067.918c-.429.373-.857.75-1.286 1.127a10.44 10.44 0 0 1-2.018 1.491 4.1 4.1 0 0 1-2.549.475 3.259 3.259 0 0 1-1.062-.415 18.148 18.148 0 0 1-1.77-1.78c-.95-1.537-1.1-2.712-1.845-3.825a1.078 1.078 0 0 1 .582-1.631c.555-.168 1.039-.783 1.524-1.183.075-.047.163-.1.27-.163l.307-.168c.014 0 .028-.009.037-.009a1.658 1.658 0 0 0 .843-.438l.3-.145c.307-.154.652-.307 1.016-.457.182-.074.368-.144.545-.2.1-.033.191-.056.289-.089a4.152 4.152 0 0 1 1.249.41c.214.112.429.233.652.331a2.181 2.181 0 0 0 .643.2 1.38 1.38 0 0 0 .457-.019 1.118 1.118 0 0 0 .13-.042c-.028 0-.074.014-.135.023a1.256 1.256 0 0 1-.443-.028 1.77 1.77 0 0 1-.573-.237c-.191-.117-.387-.257-.6-.392a4.285 4.285 0 0 0-.8-.41c.792-.214 1.677-.405 2.549-.652a14.045 14.045 0 0 0 1.412-.489 9.2 9.2 0 0 0 .829-.429 1.873 1.873 0 0 1 .186-.075 4.51 4.51 0 0 1 .6-.177 14 14 0 0 1 1.948-.359c.177-.01.363-.028.536-.028s.368 0 .54-.019a3.413 3.413 0 0 0 .936-.172 1.622 1.622 0 0 0 .554-.312.876.876 0 0 0 .117-.121v-.009c0-.009.008.008 0 .013z" class="kidney-11" transform="translate(-146.695 -467.42)"/>
                    <path id="패스_583" d="M205.277 476.065c-.368-.582-.629-1-.685-1.095l.745 1.058c.116.158.238.335.368.517a4.341 4.341 0 0 1 .382.615 2.256 2.256 0 0 1 .116.265v.336c0 .135-.009.266-.014.4a2.152 2.152 0 0 0-.028-.233 3.221 3.221 0 0 0-.21-.708 4.091 4.091 0 0 0-.336-.615c-.115-.191-.231-.372-.338-.54z" class="kidney-11" transform="translate(-172.899 -467.457)"/>
                    <path id="패스_584" d="M209.272 487.656a3.253 3.253 0 0 0 .168.727c.07.214.14.415.2.6l.088.27a1.011 1.011 0 0 1-.056.764l-.033-.1c-.061-.187-.131-.387-.2-.6a3.25 3.25 0 0 1-.168-.727 4.924 4.924 0 0 1-.014-.783v-.228c.01.021.01.049.015.077z" class="kidney-11" transform="translate(-175.975 -475.786)"/>
                    <path id="패스_585" d="M218.017 479.378a3.851 3.851 0 0 1 .023-.792 1.1 1.1 0 0 1 .1-.158 4.184 4.184 0 0 1 .788-.764 5.235 5.235 0 0 0 .689-.629 1.329 1.329 0 0 0 .317-.545.93.93 0 0 0 .028-.168.117.117 0 0 0 .01-.033v.033c0 .042 0 .1-.014.172a1.361 1.361 0 0 1-.275.578 5.287 5.287 0 0 1-.639.68 4.341 4.341 0 0 0-.689.783 2.4 2.4 0 0 0-.3.862.228.228 0 0 1-.037.033z" class="kidney-11" transform="translate(-181.762 -468.328)"/>
                    <path id="패스_586" d="M212.122 487.026a4.344 4.344 0 0 0-.8.424 2.134 2.134 0 0 1 .545-.876c.168-.3.321-.61.466-.909l.331-.7.182-.321.2-.336a6.632 6.632 0 0 1 .494-.7.186.186 0 0 0 .135-.14 11.631 11.631 0 0 1 2.218-1.421 11.251 11.251 0 0 1 1.114-.471c.349-.131.652-.228.908-.3s.461-.121.592-.149c.107-.023.177-.042.2-.047a.924.924 0 0 1-.186.061c-.131.051-.322.107-.564.2s-.531.214-.848.373a9.2 9.2 0 0 0-1.021.564 10.163 10.163 0 0 0-2.143 1.775c-.093.1-.172.21-.261.313a.185.185 0 0 1-.14.168 6.565 6.565 0 0 0-.494.7l-.2.335-.182.322-.331.7c-.075.147-.145.291-.215.435z" class="kidney-11" transform="translate(-177.344 -471.494)"/>
                    <path id="패스_587" d="M193.209 517.9c.009-.01.014-.01.019-.019l-.009.019a2.01 2.01 0 0 1-.163.186 2.837 2.837 0 0 1-.732.54 7.124 7.124 0 0 1-2.819.685c-.536.023-1.053.018-1.542.028a12.218 12.218 0 0 0-1.318.065 4.732 4.732 0 0 0-.736.14c-.1.089-.2.172-.3.261-.145.126-.294.252-.452.373-.061.046-.126.093-.191.135-.037.028-.074.051-.112.079.14.06.3.121.466.2a7.006 7.006 0 0 1 1.114.671 3.043 3.043 0 0 1 .275.224l.07.065.065.065a1.11 1.11 0 0 1 .116.135 2.4 2.4 0 0 1 .359.633c.023.051.023.1.047.158a.067.067 0 0 1 .014.01s.014.009.014.019.019.009.019.014.1.163.266.4a5.566 5.566 0 0 0 .7.783 3.581 3.581 0 0 0 .9.639 2 2 0 0 0 .359.135l.131.037c-.019 0-.065-.009-.14-.019a2.3 2.3 0 0 1-.382-.1 4.05 4.05 0 0 1-1.044-.541 6.272 6.272 0 0 1-.787-.652 1.752 1.752 0 0 1-.116.471 1.646 1.646 0 0 1-.373.55 1.941 1.941 0 0 1-.485.382 2.3 2.3 0 0 1-.909.294 1.165 1.165 0 0 1-.317 0 2.363 2.363 0 0 0 .317-.033 2.144 2.144 0 0 0 .806-.368 1.614 1.614 0 0 0 .633-.89 1.153 1.153 0 0 0 .047-.419 1.287 1.287 0 0 0-.079-.415 1.236 1.236 0 0 0-.121-.28 1.9 1.9 0 0 0-.363-.471 1.615 1.615 0 0 0-.121-.112l-.112-.089a2.311 2.311 0 0 0-.265-.168 6.647 6.647 0 0 0-1.058-.494 6.568 6.568 0 0 0-.8-.228c-.084-.009-.14-.019-.21-.028a.678.678 0 0 0-.093-.009.088.088 0 0 0-.023 0 4.112 4.112 0 0 1-1.3.261 2.156 2.156 0 0 1-.3 0c-.149 0-.3-.014-.442-.028a4.26 4.26 0 0 1 .527 1.244 6.567 6.567 0 0 1 .168 1.151c.014.214.019.424.014.634 0 .107-.009.214-.019.322-.009.242-.033.475-.051.708v.042l.014.061a2.152 2.152 0 0 0 .335.629 7.371 7.371 0 0 0 1.841 1.561 5.186 5.186 0 0 1 1.808 1.682 1.807 1.807 0 0 1 .224.732v.214a.125.125 0 0 1 0 .042v-.037c-.009-.056 0-.121-.019-.219a1.586 1.586 0 0 0-.27-.7 3.3 3.3 0 0 0-.764-.806 8.037 8.037 0 0 0-1.123-.732 7.166 7.166 0 0 1-2.134-1.659 16.087 16.087 0 0 1-.424 1.976c-.037.149-.084.294-.126.433s-.075.247-.116.363c.042.019.093.047.168.084a1.912 1.912 0 0 1 .27.214c.051.065.112.14.163.219a.792.792 0 0 1 .051.084 1.894 1.894 0 0 1 .172.382c.051.14.079.284.121.433.028.177.051.368.07.564.009.126.014.261.014.391a8.451 8.451 0 0 1-.186 1.766 6.32 6.32 0 0 1-.2.736 5.582 5.582 0 0 0 .121-.741 6.989 6.989 0 0 0 .056-.825 5.119 5.119 0 0 0-.009-.6c0-.107-.009-.219-.023-.326a5.009 5.009 0 0 0-.177-.9 2.694 2.694 0 0 0-.144-.387 1.878 1.878 0 0 0-.182-.321 2.866 2.866 0 0 0-.191-.233 1.61 1.61 0 0 1-.168-.116c-.028-.009-.042-.019-.065-.028-.256.694-.5 1.277-.7 1.691-.177.368-.312.615-.363.708.037-.1.145-.354.284-.732a15.565 15.565 0 0 0 .634-2.055c.033-.139.07-.279.1-.429a16.375 16.375 0 0 0 .321-2.507c.023-.424.033-.871.019-1.314 0-.112-.009-.228-.019-.34-.009-.075-.014-.149-.023-.219a5.68 5.68 0 0 1-.676.89 5.9 5.9 0 0 1-1.058.89c0 .014-.028.019-.042.028a.885.885 0 0 1-.107.172 3.947 3.947 0 0 1-.373.466 15.725 15.725 0 0 0-1.2 1.314 2.5 2.5 0 0 0-.405.8c-.079.265-.14.517-.182.736-.056.331-.074.578-.1.68.009-.1.023-.354.061-.68a5.954 5.954 0 0 1 .13-.755 2.577 2.577 0 0 1 .373-.834 14.588 14.588 0 0 1 1.141-1.361 2.041 2.041 0 0 0 .2-.252 5.227 5.227 0 0 1-.736.377c-.1.042-.2.075-.289.107a1.347 1.347 0 0 1-.224.065 3.59 3.59 0 0 1-.718.135 2.784 2.784 0 0 1-.885-.051c-.056-.01-.1-.023-.14-.028l-.154-.046c.028 0 .084.019.158.037.042 0 .089.014.14.023a3.125 3.125 0 0 0 .871 0 3.978 3.978 0 0 0 .829-.214 2.195 2.195 0 0 0 .284-.121.348.348 0 0 0 .061-.023c.093-.047.2-.1.284-.154a5.358 5.358 0 0 0 .76-.5c.009-.01.014-.01.019-.014a.187.187 0 0 0 .046-.033c.019 0 .023-.014.037-.028a5.568 5.568 0 0 0 1.7-1.677 2.086 2.086 0 0 0 .219-.415 1.264 1.264 0 0 0 .065-.228 1.539 1.539 0 0 0-.047-.755l-.014-.042a.813.813 0 0 0-.033-.1 2.194 2.194 0 0 0-1.514-1.5.561.561 0 0 0-.065-.023l-.214-.121a11.879 11.879 0 0 1-1.388-1.756 10.032 10.032 0 0 1-1.37-1.556c-.056-.075-.107-.145-.163-.214a4.883 4.883 0 0 0-6.192-1.384c-1.556.844-5.279 4.93-5.889 5.54v-.932c.61-.61 4.333-4.7 5.889-5.54a4.883 4.883 0 0 1 6.192 1.384c.056.07.107.14.163.214a10.011 10.011 0 0 0 1.37 1.556 11.917 11.917 0 0 0 1.388 1.757c.042.023.13.075.214.121a.5.5 0 0 1 .065.023 1.957 1.957 0 0 1 .578.251c.009 0 .014.014.023.019s.028.014.042.023.009 0 .014.009a3.2 3.2 0 0 0 1.006.382l.1.014a4.124 4.124 0 0 0 2.446-.489c.037-.019.075-.042.112-.061a6.957 6.957 0 0 0 .792-.512c.392-.289.755-.606 1.114-.918.107-.093.214-.191.321-.28.135-.121.27-.242.405-.359l.559-.489a7.076 7.076 0 0 0 1.067-.918 10.421 10.421 0 0 1 1.048-.587 5.693 5.693 0 0 1 1.631-.536c.2-.028.363-.037.475-.042h.126a.973.973 0 0 1-.126.019 3.344 3.344 0 0 0-.466.084 5.413 5.413 0 0 0-1.528.633 13.215 13.215 0 0 0-1.808 1.356c-.187.158-.373.321-.564.489-.121.1-.247.21-.373.321-.247.21-.5.429-.75.643a.871.871 0 0 1 .149-.014 11.973 11.973 0 0 1 1.365-.009c.494.018 1.015.046 1.537.042a7.132 7.132 0 0 0 2.772-.527 2.8 2.8 0 0 0 .75-.489 1.411 1.411 0 0 0 .18-.167z" class="kidney-2" transform="translate(-146.695 -493.506)"/>
                    <path id="패스_588" d="M209.264 484.377a3.986 3.986 0 0 1 .014.531c0 .186-.009.368-.019.554a5.133 5.133 0 0 1 0-.7c.001-.129.005-.262.005-.385z" class="kidney-11" transform="translate(-175.973 -473.672)"/>
                    <path id="패스_589" d="M111.265 512.167c-.2-.392-.023-.522.307-.531a1.671 1.671 0 0 0 .829.415 22.5 22.5 0 0 1 2.32.582 1.074 1.074 0 0 1 .657 1.5 1.05 1.05 0 0 0-.657-.564 22.487 22.487 0 0 0-2.32-.583 1.6 1.6 0 0 1-1.136-.819z" class="kidney-2" transform="translate(-111.181 -491.682)"/>
                    <path id="패스_590" d="M156.492 511.792c.048.779.039 2.519.8 3 .8.5 3.041.187 4.3-.2a4.22 4.22 0 0 0 .6-.226 2.152 2.152 0 0 0 .983-.849 2.847 2.847 0 0 0 .183-1.623c-.787-9.542-2.141-19.176-2.476-28.762q-.065-1.939-.074-3.877-.007-2.258.091-4.508c.013-.283.022-.561.039-.844q.046-.927.1-1.854c.383-6 1.314-11.9 2.063-17.853a1.2 1.2 0 0 0-.087-.8 1.031 1.031 0 0 0-.466-.331 4.555 4.555 0 0 0-3.02.039c-.065.017-.126.035-.187.057a1.633 1.633 0 0 0-.818.474 1.733 1.733 0 0 0-.279.835c-.318 2.206-.413 4.417-.714 6.618-.322 2.332-.727 4.66-.862 7.014-.283 4.886-.6 9.764-.735 14.655q-.385 14.526.559 29.035z" class="kidney-11" transform="translate(-140.677 -452.826)"/>
                    <path id="패스_591" d="M131.3 510.86q-1.449-7.264-2.2-14.646a155.69 155.69 0 0 1-.435-26.146q.438-6.468 1.414-12.88a13.838 13.838 0 0 0 .509-3.287l-.192-.108a1.682 1.682 0 0 0-.848.484 1.733 1.733 0 0 0-.279.835c-.318 2.206-.413 4.417-.714 6.618-.322 2.332-.727 4.66-.862 7.014-.223 3.858-.465 7.712-.622 11.57a.582.582 0 0 1-1 .386 23.8 23.8 0 0 0-3.879-3.443 4.878 4.878 0 0 0-6.188 1.384c-.853 1.118-1.8 2.5-2.7 3.942a.94.94 0 0 1-.8.443.992.992 0 0 1-.233-.028c-.261.405-.405.727-.256.82a.934.934 0 0 0 1.286-.3c.895-1.444 1.845-2.824 2.7-3.942a4.878 4.878 0 0 1 6.188-1.384 31.154 31.154 0 0 1 4.793 4.391c-.008.273-.022.546-.029.819q-.391 14.522.553 29.031c.048.779.039 2.519.8 3 .8.5 3.041.187 4.3-.2a18.2 18.2 0 0 1-1.306-4.373z" class="kidney-2" transform="translate(-111.7 -453.465)"/>
                    <path id="패스_592" d="M163.586 475.634c.563-6.29 1.784-12.53 1.951-18.845a1.091 1.091 0 0 0-.227-.857c-1.253.327-1.2 3.923-1.369 4.939-.354 2.154-.695 4.309-1 6.471a119.779 119.779 0 0 0-1.309 17.029 134.474 134.474 0 0 0 1.543 16.445 55.526 55.526 0 0 0 1.444 7.392c.14.524.452 1.166.991 1.107.5-.055-1.076-8.046-1.16-8.711a123.767 123.767 0 0 1-1.068-22.122c.049-.95.118-1.899.204-2.848z" class="kidney-10" transform="translate(-144.514 -454.879)"/>
                    <path id="패스_593" d="M144.984 474.434c-.048.3-.222.689-.516.614a.5.5 0 0 1-.274-.249 4.932 4.932 0 0 1-.29-3.464c.608-3.394 1.758-6.743 1.616-10.188-.036-.878-.734-4.539.689-4.506 1.881.043 1.037 3.629.9 4.5q-1.065 6.648-2.125 13.293z" class="kidney-10" transform="translate(-132.689 -455.346)"/>
                </g>
            </g>
            <g id="그룹_437" transform="translate(43 440.74)">
                <g id="그룹_430">
                    <g id="그룹_429">
                        <g id="그룹_428">
                            <path id="패스_594" fill="#702f1d" d="M72.079 494.969c-.154.252-.317.5-.48.731-2.451 3.565-5.862 5.5-9.356 5.5a13.348 13.348 0 0 1-7.972-3.191C48.2 493.278 43 483.787 43 473.019a33.218 33.218 0 0 1 3.686-15.231c.046-.084.088-.172.13-.256 3.173-6.006 7.888-10.283 12.45-11.635a10.475 10.475 0 0 1 2.977-.452c5.055 0 11.755 3.76 12.454 10.95.009.056.014.116.019.177.266 3.159-.471 9.221-4.422 9.556-2.716.233-.9 2.1-1.538 5.983-.508 3.131-2.288 8.2.6 10.041 3.1 1.975 4.644 9.691 2.723 12.817z" transform="translate(-43 -445.445)"/>
                        </g>
                    </g>
                </g>
                <g id="그룹_432" class="kidney-13">
                    <g id="그룹_431">
                        <path id="패스_595" d="M74.1 453.669a13.311 13.311 0 0 0-7.665-2.633 10.474 10.474 0 0 0-2.977.452c-4.561 1.351-9.277 5.628-12.45 11.635-.042.084-.084.172-.13.256a33.219 33.219 0 0 0-3.686 15.231 34.369 34.369 0 0 0 4.655 17.211 30.47 30.47 0 0 1-5.391-7.832A34.426 34.426 0 0 1 43 473.019a33.218 33.218 0 0 1 3.686-15.231c.046-.084.088-.172.13-.256 3.173-6.006 7.888-10.283 12.45-11.635a10.475 10.475 0 0 1 2.977-.452 13.28 13.28 0 0 1 10.316 5.289 11.145 11.145 0 0 1 1.541 2.935z" class="kidney-14" transform="translate(-43 -445.445)"/>
                    </g>
                </g>
                <g id="그룹_434" class="kidney-13">
                    <g id="그룹_433">
                        <path id="패스_596" d="M72.559 450.734C70.2 449 65.928 448.3 63.473 448.3a10.475 10.475 0 0 0-2.977.452c-4.561 1.351-9.277 5.628-12.45 11.635-.042.084-.084.172-.13.256a33.219 33.219 0 0 0-3.686 15.231 34.3 34.3 0 0 0 2.227 12.114A34.426 34.426 0 0 1 43 473.019a33.218 33.218 0 0 1 3.686-15.231c.046-.084.088-.172.13-.256 3.173-6.006 7.888-10.283 12.45-11.635a10.475 10.475 0 0 1 2.977-.452 13.28 13.28 0 0 1 10.316 5.289z" class="kidney-14" transform="translate(-43 -445.445)"/>
                    </g>
                </g>
                <g id="그룹_436" opacity="0.15" transform="translate(11.271 10.056)">
                    <g id="그룹_435">
                        <path id="패스_597" fill="#210404" d="M94.027 514.551c-.154.252-.317.5-.48.732a13.329 13.329 0 0 1-9.356 5.5 13.348 13.348 0 0 1-7.972-3.191 6.881 6.881 0 0 1 .775-.666 9.792 9.792 0 0 1 4.731-1.838c3.492-.416 7.543-2.129 8.108-6.13.4-2.842-1.626-7.171-4.725-9.146-2.889-1.845.895-10.581 1.4-13.712.633-3.881-1.179-5.75 1.537-5.983 3.886-.331 8.159-7.5 8.6-4.142.009.056.014.116.019.177.266 3.159-.471 9.221-4.422 9.556-2.716.233-.9 2.1-1.538 5.983-.508 3.131-2.288 8.2.6 10.041 3.096 1.977 4.647 9.693 2.723 12.819z" transform="translate(-76.219 -475.083)"/>
                    </g>
                </g>
            </g>
        </g>
        <path id="사각형_593" fill="none" d="M0 0H96V96H0z" transform="translate(202)"/>
    </g>
</svg>
