<svg xmlns="http://www.w3.org/2000/svg" width="96" height="96" viewBox="0 0 96 96">
    <defs>
        <style>
            .liver-3{fill:#fff}.liver-7{fill:#a51010}.liver-8{opacity:.07}
        </style>
    </defs>
    <g id="liver_06" transform="translate(-202)">
        <g id="그룹_461" transform="translate(-419 -436.391)">
            <g id="그룹_448" transform="translate(682.683 459.815)">
                <g id="그룹_447">
                    <path id="패스_600" fill="#d21d22" d="M785.277 474.9a.016.016 0 0 0 .011.013l3.415 1.447c1.413.6 3.567.141 2.677-.89-2.55-2.954-2.358-6.307 1.917-9.951.005 0 0-.013-.008-.017l-1.086-.486a4.9 4.9 0 0 0-4.059-.083c-2.312 1.507-2.96 5.202-2.867 9.967z" transform="translate(-785.268 -464.536)"/>
                </g>
            </g>
            <g id="그룹_449" opacity="0.15" transform="translate(682.851 459.422)">
                <path id="패스_601" d="M786.662 471.974a1.368 1.368 0 0 1-.887-1.016c-.26-5.522 3.521-7.407 3.682-7.485a1.723 1.723 0 0 1 1.724.4c.484.447.5.991.039 1.216-.138.069-3.21 1.657-3.01 6.366.02.463-.447.772-1.1.654a1.968 1.968 0 0 1-.448-.135z" class="liver-3" transform="translate(-785.762 -463.377)"/>
            </g>
            <g id="그룹_450" transform="translate(647.461 457.391)">
                <path id="패스_602" fill="#618fd3" d="M690.381 468.39l-8.555 3.219q1.347-4.7-.365-12.473a7.37 7.37 0 0 1 3.7-1.739.743.743 0 0 1 .843.7c.229 4.83.967 9.082 4.377 10.293z" transform="translate(-681.462 -457.391)"/>
            </g>
            <g id="그룹_451" opacity="0.13" transform="translate(647.824 458.385)">
                <path id="패스_603" d="M685 470.882c-.209.083-.515-.752-.736-.748-.651.012-1.376.533-1.18.041 1.262-3.158-.479-8.406-.5-8.449-.2-.4.168-.959.819-1.242s1.338-.186 1.536.217c.1.2 2.336 4.828.86 8.521-.13.325-.393 1.498-.799 1.66z" class="liver-3" transform="translate(-682.53 -460.323)"/>
            </g>
            <g id="그룹_452" transform="translate(647.72 467.454)">
                <path id="패스_604" fill="#f79e92" d="M711.969 514.656s-3.585-3.729-.844-5.726 8.82-20.684 8.82-20.684-11.14-.756-13.671.842c-1.424.9-3.715.365-5.447-.274a28.158 28.158 0 0 0-7.765-1.581c-3.917-.268-11.835-.455-10.734 1.012 1.9 2.53 24.158 23.508 24.158 23.508s4.219 2.1 4.851 3.7.632-.797.632-.797z" transform="translate(-682.224 -487.049)"/>
            </g>
            <path id="패스_605" d="M670.905 498.023c.215-3.118-9.9-10.981-25.829-8.812s-15.068 20.47-15.068 20.47 2.368 20.827 3.013 22.047c.474.9 1.746 1 2.4.989-.013.017.013-.017.091-.136 1.364-2.093 2.067-4.664 3.91-6.352 2.378-2.178 5.757-2.349 9.031-2.843a26.158 26.158 0 0 1 2.927-.439 11.812 11.812 0 0 0 2.253-1.091 25.46 25.46 0 0 1 2.955-1.739 10.3 10.3 0 0 1 3.817-.474q1.514 0 3.032.005a24.555 24.555 0 0 0 8.549-6.713s-1.296-11.794-1.081-14.912z" class="liver-7" transform="translate(0 -20.778)"/>
            <g id="그룹_453" transform="translate(673.213 468.651)">
                <path id="패스_606" d="M792 493.069a.775.775 0 0 1 .01.985c-1.37 1.72-6.254 7.828-9.311 11.35-3.585 4.129-16.241 7.723-21.936 5.858-4.8-1.571-3.307-13.374-2.719-17.033a2.581 2.581 0 0 1 1.713-1.778 23.376 23.376 0 0 1 2.607-.919c.328-.1.656-.182.981-.26.09-.022.182-.043.272-.062 5.017-1.154 9.545-.451 13.705-.031a30.257 30.257 0 0 0 5.9.167c.176-.016.353-.037.529-.059a18.735 18.735 0 0 1 4.587-.127.011.011 0 0 0 .006 0 5.58 5.58 0 0 1 3.656 1.909z" class="liver-7" transform="translate(-757.359 -490.579)"/>
            </g>
            <g id="그룹_454" class="liver-8" transform="translate(675.121 468.651)">
                <path id="패스_607" d="M792.919 493.58c-2.549 2.459-6.934 6.746-8.97 9.094-2.966 3.415-13.436 6.39-18.15 4.847s-2.094-14.983-2.094-14.983a20.02 20.02 0 0 1 2.378-1.008c8.268-2.385 15.218.557 21.388-.244a18.736 18.736 0 0 1 4.587-.127.011.011 0 0 0 .006 0c1.26.488 1.736 1.573.855 2.421z" class="liver-3" transform="translate(-762.98 -490.576)"/>
            </g>
            <g id="그룹_455" class="liver-8" transform="translate(677.032 468.651)">
                <path id="패스_608" d="M790.365 492.52c-1.853 1.507-5.038 4.132-6.517 5.571-2.156 2.091-9.764 3.916-13.185 2.969s-1.522-9.18-1.522-9.18c.556-.235 1.107-.436 1.645-.609 7.606-1.84 14.089.631 19.879.074a1.1 1.1 0 0 1-.3 1.175z" class="liver-3" transform="translate(-768.614 -490.578)"/>
            </g>
            <g id="그룹_456" class="liver-8" transform="translate(679.205 468.651)">
                <path id="패스_609" d="M788.995 491.179a.624.624 0 0 1-.12.118c-1.178.909-3.211 2.493-4.154 3.362-1.37 1.262-6.217 2.36-8.4 1.791-1.859-.486-1.253-4.163-1.033-5.24 5.018-1.154 9.547-.452 13.707-.031z" class="liver-3" transform="translate(-775.018 -490.579)"/>
            </g>
            <g id="그룹_457" class="liver-8" transform="translate(631.055 468.02)">
                <path id="패스_610" d="M633.116 507.057s-.8-16.1 14.007-18.01 24.213 5.009 24.013 7.753 1 13.12 1 13.12-5.6 7.395-17.609 8.468-16.009 9.645-16.009 9.645-2 .239-2.6-.835-2.802-20.141-2.802-20.141z" class="liver-3" transform="translate(-633.109 -488.719)"/>
            </g>
            <g id="그룹_458" class="liver-8" transform="translate(633.117 468.061)">
                <path id="패스_611" d="M639.195 502.094s-.727-11.639 12.721-13.018 21.989 3.621 21.807 5.6a35.213 35.213 0 0 0 .347 5.145c.3 2.631-2.535 5-6.633 5.512-2.348.293-5.285.6-8.835.848-8.762.624-12.8 8.5-14.055 11.573a1.759 1.759 0 0 1-2.342.976 1.147 1.147 0 0 1-.464-.365c-.548-.774-2.546-16.271-2.546-16.271z" class="liver-3" transform="translate(-639.188 -488.839)"/>
            </g>
            <g id="그룹_459" class="liver-8" transform="translate(637.034 468.197)">
                <path id="패스_612" d="M650.9 496.505a2.889 2.889 0 0 1-.114-1.495c.33-1.687 1.97-5.127 9.8-5.65 10.441-.7 17.072 1.83 16.931 2.832a11.684 11.684 0 0 0 .269 2.6c.235 1.329-1.968 2.527-5.15 2.785-1.822.148-4.1.3-6.859.429-6.493.3-9.648 2.1-10.766 2.926a2.366 2.366 0 0 1-1.923.3.982.982 0 0 1-.4-.2 29.677 29.677 0 0 1-1.788-4.527z" class="liver-3" transform="translate(-650.731 -489.241)"/>
            </g>
            <g id="그룹_460" opacity="0.25" transform="translate(655.899 467.995)">
                <path id="패스_613" d="M706.329 488.643a56.229 56.229 0 0 1 13.868 2.43 5.266 5.266 0 0 0 3.692-.264 10.941 10.941 0 0 1 5.746-1.368s-6.011.9-6.433 5.26c-.3 3.124.561 13.69 1.845 15.448.633.866 0 1.432.949 3.7.308.735-3.375-1.7-3.059-3.862s.158-14.515-2.109-15.747c-.846-.464-7.591-4.964-14.499-5.597z" class="liver-3" transform="translate(-706.329 -488.643)"/>
            </g>
            <path id="패스_614" fill="#870606" d="M664.026 583.9q1.508-.561 3.047-1.042.314-.1.635-.187a16.633 16.633 0 0 0 3.787-1.552c1.172-.668 2.086-1.2 2.562-1.486h-3.093a10.275 10.275 0 0 0-3.817.473 18.563 18.563 0 0 0-2.657 1.562c-.1.062-.2.121-.3.176-2.3 1.29-4.878 1.3-7.451 1.6a11.086 11.086 0 0 0-6.758 2.771c-1.825 1.707-2.657 3.972-3.99 6.471-.195.368 5.215-2.283 8.107-4.005q1.833-1.09 3.742-2.06a60.7 60.7 0 0 1 6.186-2.721z" transform="translate(-10.561 -80.761)"/>
            <path id="패스_615" fill="#8dab42" d="M685.329 586.491c-.031.149-.068.3-.105.445-.068.279-.145.56-.229.835-.009.031-.019.062-.031.093-.034.111-.071.232-.112.349-.423 1.24-1.132 2.7-2.369 3.17a3.528 3.528 0 0 1-2.27-.043 3.588 3.588 0 0 1-1.435-.758 1.778 1.778 0 0 1-.152-.152 2.923 2.923 0 0 1-.516-.86 5.776 5.776 0 0 1-.263-.841 5.461 5.461 0 0 1-.148-.878 3.577 3.577 0 0 1-.022-.445c2.573-.306 5.156-.312 7.451-1.6.1-.056.2-.115.3-.176a4.542 4.542 0 0 1-.099.861z" transform="translate(-31.5 -84.726)"/>
            <path id="패스_616" d="M685.329 586.491c-.009.047-.022.1-.031.143-.056.034-.111.068-.17.1-2.27 1.274-4.822 1.3-7.368 1.593a4.685 4.685 0 0 1-.062-.473 3.577 3.577 0 0 1-.022-.445c2.573-.306 5.156-.312 7.451-1.6.1-.056.2-.115.3-.176a4.542 4.542 0 0 1-.098.858z" opacity="0.13" transform="translate(-31.5 -84.726)"/>
            <path id="패스_617" fill="#fff" d="M685.329 586.491c-.031.149-.068.3-.105.445-.068.279-.145.56-.229.835-.009.031-.019.062-.031.093-.034.111-.071.232-.112.349-.423 1.24-1.132 2.7-2.369 3.17a3.528 3.528 0 0 1-2.27-.043 3.588 3.588 0 0 1-1.435-.758 1.778 1.778 0 0 1-.152-.152 2.923 2.923 0 0 1-.516-.86 5.776 5.776 0 0 1-.263-.841 5.461 5.461 0 0 1-.148-.878 3.577 3.577 0 0 1-.022-.445l.083-.01c.025.136.053.273.087.406a5.786 5.786 0 0 0 .263.841 2.923 2.923 0 0 0 .516.86 1.778 1.778 0 0 0 .152.152 3.587 3.587 0 0 0 1.435.758 3.526 3.526 0 0 0 2.27.043c1.237-.47 1.946-1.93 2.369-3.17.04-.117.077-.238.112-.349.012-.031.021-.062.031-.093.083-.276.161-.557.229-.835l.074-.3c.043-.025.087-.05.13-.077a4.542 4.542 0 0 1-.099.859z" opacity="0.15" transform="translate(-31.5 -84.726)"/>
        </g>
        <path id="사각형_596" fill="none" d="M0 0H96V96H0z" transform="translate(202)"/>
    </g>
</svg>
