<svg xmlns="http://www.w3.org/2000/svg" width="151.5" height="28.942" viewBox="0 0 151.5 28.942">
    <defs>
        <style>.medilinx-logo { fill: #fff; }
        </style>
    </defs>
    <g id="medilinx_logo" transform="translate(-36 -133.163)">
        <g id="logo_medilinx" transform="translate(21 102.741)">
            <g id="그룹_2344" transform="translate(15 30.422)">
                <path id="패스_1168" fill="#09387a" d="M30.565 30.422c8.516 0 15.444 6.086 15.444 13.567a12.613 12.613 0 0 1-3.543 8.65 5.484 5.484 0 0 0 1.46 5.182.9.9 0 0 1-.642 1.544 10.041 10.041 0 0 1-6.939-2.79 17.2 17.2 0 0 1-5.78.981C22.049 57.555 15 51.47 15 43.989s7.049-13.567 15.565-13.567z" transform="translate(-15 -30.422)"/>
                <path id="패스_1169" fill="#18a8c5" d="M80.283 132.863c.37.156-5.475 6.474-7.222 4.8-1.528-1.461-5.265-7.428-4.644-8.221 0 0 .3-.571 1.332.384s4.519 5.251 10.534 3.037z" transform="translate(-61.668 -116.899)"/>
                <path id="패스_1170" d="M125.7 99.9a7.22 7.22 0 0 1-6.45.8 47.5 47.5 0 0 0 9.644-6.177c4.394-3.877-1.265 4.068-3.194 5.377z" class="medilinx-logo" transform="translate(-106.195 -85.571)"/>
            </g>
            <g id="그룹_2345" transform="translate(55.664 37.042)">
                <path id="패스_1171" d="M356.725 99h-3.9v-7.875l-3.487 5.38v.024h-2.17V96.5l-3.51-5.426.023 7.92h-3.9V83.3h2.886l5.588 8.382 5.565-8.382h2.909z" class="medilinx-logo" transform="translate(-339.777 -83.297)"/>
                <path id="패스_1172" d="M501.157 89.555h6.95v3.325h-6.95v2.72h7.966V99h-11.868V83.3h11.868v3.394h-7.966z" class="medilinx-logo" transform="translate(-477.538 -83.297)"/>
                <path id="패스_1173" d="M616.063 83.3c4.918 0 8.474 3.21 8.474 7.805 0 4.664-3.556 7.9-8.474 7.9h-6.327V83.3zm0 12.192a4.344 4.344 0 1 0 0-8.682h-2.424v8.682z" class="medilinx-logo" transform="translate(-575.935 -83.297)"/>
                <path id="패스_1174" d="M749.544 99h-3.9V83.3h3.9z" class="medilinx-logo" transform="translate(-694.825 -83.297)"/>
                <path id="패스_1175" d="M810.594 99h-11.661V83.3h3.9v12.258h7.759z" class="medilinx-logo" transform="translate(-741.444 -83.297)"/>
                <path id="패스_1176" d="M910.708 99h-3.9V83.3h3.9z" class="medilinx-logo" transform="translate(-835.81 -83.297)"/>
                <path id="패스_1177" d="M974.55 99h-3.025L964 90.386V99h-3.9V83.3h2.979l7.574 8.844V83.3h3.9z" class="medilinx-logo" transform="translate(-882.427 -83.297)"/>
                <path id="패스_1178" d="M1101.762 98.959l-2.849-5.06h-.051l-2.9 5.06h-5.3l5.272-7.745-5.159-7.8h5.74l2.644 4.8h.068l2.724-4.8h5.218l-5.153 7.332 5.467 8.21z" class="medilinx-logo" transform="translate(-996.642 -83.402)"/>
            </g>
        </g>
    </g>
</svg>
