<svg xmlns="http://www.w3.org/2000/svg" width="96" height="96" viewBox="0 0 96 96">
    <defs>
        <style>
            .pressure-2{fill:#780a0b}.pressure-3,.pressure-4{fill:#ed7a87}.pressure-3{opacity:.48}.pressure-7{opacity:.25;mix-blend-mode:multiply;isolation:isolate}.pressure-9{fill:#ffb3b3}.pressure-12{fill:#fbac1b}.pressure-13,.pressure-14{fill:#ffe46d}.pressure-13{opacity:.85}
        </style>
    </defs>
    <g id="pressure_02" transform="translate(-202)">
        <path id="사각형_600" fill="none" d="M0 0H96V96H0z" transform="translate(202)"/>
        <g id="그룹_1995" transform="translate(-231.803 -513.427)">
            <path id="패스_744" d="M512.148 557.163a52.576 52.576 0 0 0-12.2-.246 66.9 66.9 0 0 0-30.046 10.99 74.256 74.256 0 0 0-17.512 15.91 18.774 18.774 0 0 1 4.162 2.2 17.3 17.3 0 0 1 6.166 7.465c9.921-9.818 20.572-14.993 33.19-16.184 3.672-.347 9.972.575 14 .9-1.014-2.149-5.429-12.523 2.24-21.035z" class="pressure-2" transform="translate(-11.441 -12.585)"/>
            <g id="그룹_604" transform="translate(446.706 564.117)">
                <path id="패스_745" d="M473.313 621.2a2.382 2.382 0 1 0 2.382 2.382 2.381 2.381 0 0 0-2.382-2.382z" class="pressure-3" transform="translate(-470.931 -621.198)"/>
                <path id="패스_746" d="M473.313 621.2a2.382 2.382 0 1 0 2.382 2.382 2.381 2.381 0 0 0-2.382-2.382zm-.052 4.205a1.876 1.876 0 1 1 1.876-1.876 1.876 1.876 0 0 1-1.877 1.871z" class="pressure-4" transform="translate(-470.931 -621.198)"/>
            </g>
            <g id="그룹_605" transform="translate(486.745 549.219)">
                <path id="패스_747" d="M602.313 573.2a2.382 2.382 0 1 0 2.382 2.382 2.381 2.381 0 0 0-2.382-2.382z" class="pressure-3" transform="translate(-599.931 -573.198)"/>
                <path id="패스_748" d="M602.313 573.2a2.382 2.382 0 1 0 2.382 2.382 2.381 2.381 0 0 0-2.382-2.382zm-.052 4.205a1.876 1.876 0 1 1 1.876-1.876 1.876 1.876 0 0 1-1.877 1.871z" class="pressure-4" transform="translate(-599.931 -573.198)"/>
            </g>
            <g id="그룹_606" fill="#7aabed" transform="translate(456.012 566.872)">
                <path id="패스_749" d="M503.294 630.073a2.382 2.382 0 1 0 2.382 2.381 2.381 2.381 0 0 0-2.382-2.381z" opacity="0.48" transform="translate(-500.912 -630.073)"/>
                <path id="패스_750" d="M503.294 630.073a2.382 2.382 0 1 0 2.382 2.381 2.381 2.381 0 0 0-2.382-2.381zm-.052 4.205a1.876 1.876 0 1 1 1.876-1.876 1.876 1.876 0 0 1-1.877 1.876z" transform="translate(-500.912 -630.073)"/>
            </g>
            <g id="그룹_607" class="pressure-7" transform="translate(440.952 544.091)">
                <path id="패스_751" d="M510.47 556.963a52.88 52.88 0 0 0-10.519-.044A66.9 66.9 0 0 0 469.9 567.91a74.26 74.26 0 0 0-17.512 15.91 18.774 18.774 0 0 1 4.162 2.2 18.226 18.226 0 0 1 4.764 4.834c2.321-6.306 13.412-30.262 49.156-33.891z" class="pressure-2" transform="translate(-452.393 -556.679)"/>
            </g>
            <path id="패스_752" fill="#fc802d" d="M493.768 569.7a99.63 99.63 0 0 0 13.741-2.726c13.024-3.675 6.97-5.434 16.049-8.2s18.685 1.153 18.685 1.153l2.879-7.965-27.38.788-20.5 10.549z" transform="translate(-39.974 -9.335)"/>
            <path id="패스_753" d="M492.369 558.152a52.875 52.875 0 0 1 10.586.05c.271-.349.559-.7.869-1.04a52.575 52.575 0 0 0-12.2-.246 66.9 66.9 0 0 0-30.046 10.99 71.359 71.359 0 0 0-21.128 21.034c-.026.042-.107.2-.13.241.2.452 1.272.4 1.54-.045 4.921-8.075 11.763-14.3 20.459-19.994a66.9 66.9 0 0 1 30.05-10.99z" class="pressure-9" transform="translate(-3.118 -12.585)"/>
            <g id="그룹_608" class="pressure-7" transform="translate(456.894 560.134)">
                <path id="패스_754" d="M547.507 608.719c-3.562-.556-27.669-2.125-40.527 11.49-3.482 3.687-3.738 6.405-2.67 8.469 13.9-11.584 29.328-15.741 52.009-8.949a14.689 14.689 0 0 1-8.812-11.01z" class="pressure-2" transform="translate(-503.754 -608.365)"/>
            </g>
            <path id="패스_755" fill="#ff675c" d="M510.416 619.657c3.671-.347 9.972.575 14 .9-.153-.322-.382-.83-.636-1.487-4.061-.387-9.977-1.219-13.369-.9-14.049 1.327-25.733 7.523-36.541 19.7a1.624 1.624 0 0 0-.321 1.767c-.064.1.218-.174.321-.284 10.885-12.109 22.496-18.369 36.546-19.696z" transform="translate(-25.945 -54.946)"/>
            <path id="패스_756" fill="#c13542" d="M437.37 567.435a7.519 7.519 0 0 0-1.091 7.218 13.376 13.376 0 0 0 .927 1.944 2.575 2.575 0 0 1 .13-.241 71.36 71.36 0 0 1 21.128-21.034 66.9 66.9 0 0 1 30.046-10.99 52.575 52.575 0 0 1 12.2.246c-7.669 8.513-3.254 18.887-2.232 21.036-4.032-.327-10.333-1.249-14-.9-14.049 1.326-25.661 7.587-36.541 19.7a2.177 2.177 0 0 1-.321.284 7.37 7.37 0 0 0 6.8-1.583c15.116-13.95 31.565-19.191 57.036-11l10.539-27.05c-31.156-16.723-68.175.906-84.621 22.37z"/>
            <ellipse id="타원_25" cx="13.965" cy="14.903" class="pressure-9" rx="13.965" ry="14.903" transform="translate(500.371 542.628)"/>
            <ellipse id="타원_26" cx="11.864" cy="12.661" class="pressure-2" rx="11.864" ry="12.661" transform="translate(502.966 544.87)"/>
            <g id="그룹_609" class="pressure-7" transform="translate(503.395 548.819)">
                <path id="패스_757" d="M673.612 571.909s2.62 7.8-1.448 11.682c-2.458 2.343-11.283 1.465-18.591.4a12.018 12.018 0 0 0 11.435 9.287c6.552 0 11.864-5.668 11.864-12.66a13.076 13.076 0 0 0-3.26-8.709z" class="pressure-2" transform="translate(-653.573 -571.909)"/>
            </g>
            <g id="그룹_610" transform="translate(506.817 566.486)">
                <path id="패스_758" d="M667.241 632.744l-2.643-1.956a29.6 29.6 0 0 0 6.439-1.573 3.484 3.484 0 0 1 1.791-.383h.078a6.81 6.81 0 0 1 3.282 1.186c.39.223.786.449 1.193.639l2.436 1.65-5.168 1.443z" class="pressure-9" transform="translate(-664.598 -628.832)"/>
            </g>
            <g id="그룹_611" transform="translate(440.52 561.775)">
                <path id="패스_759" d="M475.873 616.493A42.075 42.075 0 0 0 451 636.4a42.7 42.7 0 0 1 24.554-20.939z" class="pressure-12" transform="translate(-451 -614.896)"/>
                <path id="패스_760" d="M517.483 613.655a.426.426 0 0 0-.269.767l1.516 1.2-.3 1.922a.421.421 0 0 0 .714.375l3.491-3.856z" class="pressure-12" transform="translate(-496.546 -613.654)"/>
            </g>
            <g id="그룹_612" transform="translate(473.173 557.425)">
                <path id="패스_761" d="M558.585 599.638a2.382 2.382 0 1 0 2.382 2.382 2.381 2.381 0 0 0-2.382-2.382z" class="pressure-13" transform="translate(-556.203 -599.638)"/>
                <path id="패스_762" d="M558.585 599.638a2.382 2.382 0 1 0 2.382 2.382 2.381 2.381 0 0 0-2.382-2.382zm-.052 4.205a1.876 1.876 0 1 1 1.876-1.876 1.876 1.876 0 0 1-1.877 1.876z" class="pressure-14" transform="translate(-556.203 -599.638)"/>
            </g>
            <g id="그룹_613" transform="translate(512.662 559.294)">
                <path id="패스_763" d="M685.813 605.66a2.382 2.382 0 1 0 2.382 2.382 2.381 2.381 0 0 0-2.382-2.382z" class="pressure-13" transform="translate(-683.432 -605.66)"/>
                <path id="패스_764" d="M685.813 605.66a2.382 2.382 0 1 0 2.382 2.382 2.381 2.381 0 0 0-2.382-2.382zm-.052 4.205a1.876 1.876 0 1 1 1.876-1.876 1.876 1.876 0 0 1-1.876 1.876z" class="pressure-14" transform="translate(-683.432 -605.66)"/>
            </g>
            <path id="패스_765" d="M649.948 565.067l7.19-10.42 7.408-.146 4.52 1.922 5.787 7.992c-.281.064-3.234-2.175-5.4-1.128s-3.547 5.382-6.892 4.936c-3.512-.47-5.841-8.88-12.613-3.156z" class="pressure-9" transform="translate(-147.678 -11.085)"/>
            <path id="패스_766" d="M657.794 551.962c-7.712 0-13.965 6.672-13.965 14.9s6.252 14.9 13.965 14.9 13.965-6.672 13.965-14.9-6.253-14.9-13.965-14.9zm.494 27.563c-6.552 0-11.864-5.668-11.864-12.66s5.312-12.661 11.864-12.661 11.864 5.668 11.864 12.661-5.312 12.66-11.864 12.66z" class="pressure-9" transform="translate(-143.459 -9.335)"/>
        </g>
    </g>
</svg>
