<svg xmlns="http://www.w3.org/2000/svg" width="48.75" height="45.5" viewBox="0 0 48.75 45.5">
    <g>
        <path fill="#09387a" d="M39.47 30.422c13.388 0 24.28 9.567 24.28 21.328a19.829 19.829 0 0 1-5.569 13.6 8.621 8.621 0 0 0 2.295 8.147 1.422 1.422 0 0 1-1.01 2.427 15.785 15.785 0 0 1-10.908-4.386 27.044 27.044 0 0 1-9.087 1.543C26.082 73.078 15 63.511 15 51.75s11.082-21.328 24.47-21.328z" transform="translate(-15 -30.422)"/>
        <path fill="#18a8c5" d="M87.111 134.915c.582.246-8.608 10.178-11.354 7.552-2.4-2.3-8.278-11.677-7.3-12.924 0 0 .476-.9 2.094.6s7.105 8.257 16.56 4.772z" transform="translate(-15 -30.422) translate(-42.847 -79.396)"/>
        <path fill="#fff" d="M129.388 103.58a11.35 11.35 0 0 1-10.14 1.253c-.09-.121 8.27-3.639 15.161-9.711 6.912-6.089-1.985 6.401-5.021 8.458z" transform="translate(-15 -30.422) translate(-83.728 -50.633)"/>
    </g>
</svg>
